<?xml version="1.0" encoding="utf-8"?>
<!-- Generator: Adobe Illustrator 18.1.1, SVG Export Plug-In . SVG Version: 6.00 Build 0)  -->
<!DOCTYPE svg PUBLIC "-//W3C//DTD SVG 1.1//EN" "http://www.w3.org/Graphics/SVG/1.1/DTD/svg11.dtd">
<svg version="1.1" id="Layer_1" xmlns="http://www.w3.org/2000/svg" xmlns:xlink="http://www.w3.org/1999/xlink" x="0px" y="0px"
	 width="507px" height="340.2px" viewBox="-142 136.8 507 340.2" style="enable-background:new -142 136.8 507 340.2;"
	 xml:space="preserve">
<style type="text/css">
	.st0{fill:#929497;}
	.st1{fill:#F05A2A;stroke:#231F20;stroke-width:1.0489;stroke-linecap:round;stroke-linejoin:round;stroke-miterlimit:10;}
	.st2{fill:#F05A2A;stroke:#231F20;stroke-width:1.0489;stroke-linecap:round;stroke-miterlimit:10;}
	.st3{fill:#F05A2A;}
	.st4{fill:none;stroke:#231F20;stroke-width:1.0489;stroke-linecap:round;stroke-miterlimit:10;}
	.st5{opacity:0.8;fill:#FFFFFF;}
	.st6{fill:#C3996B;}
	.st7{fill:#3C2417;}
</style>
<g>
	<path class="st0" d="M175.8,341.2c11.3-7.6,29.6-15.8,37.7-15c8.1,0.7,50.1,17.6,50.1,17.6l-14.8,32.7l-9.6,8.3l-17.4,10.4
		L175.8,341.2z"/>
	<path class="st1" d="M276.8,296.3c2.4-9,1.5-15.3,1-17.7l5.2,8.9l7.2-2.2l2,7l7-1.7v6.5l8-2l1.3,5l6.5-1.3v6.9l6.3-2.4l3.1,6.5
		l7.2-3l3.1,8.5l7-3.3l1.7,7.6l8.2-1.5l-0.9,8.1l11.1,1.9l-26.5,11.7l-63.7-39L276.8,296.3z"/>
	<path class="st2" d="M175.8,341.2c27.1-21.9,86.9-34.9,97.3-41.2c24.6,0,63.9,33.7,71.4,35.3c-23.6,12.2-97.5,41.2-109.6,52.7
		c8.2-10.6,12.3-15,8.4-20.8c-3.9-5.8,0.5-12.6,1.8-16.3c1.3-3.7,5-11-16-12.6S191.5,328.6,175.8,341.2z"/>
	<path class="st3" d="M142.6,359.8c-6.4-8.6-16.9-1.7-28.3,11.4h8l-2.3,8.9h8.4l-4.9,8.6h7.1l-2.2,7.3l7.3,1.5l-3.5,5.6h9.4
		l-4.3,6.6l7.6,1.8l-2.3,7.1c10.3-7.1,23.2-11.1,24.3-11.1l7.3,13.4c10.1-5.6,12.5-10.5,30.1-4.3c17.7,6.2,39.2-11.9,45.3-17.2
		s19.5-13.8-6.8-11.2s-10.1-13.4-8.6-20.2c1.5-6.8-6.8-17.7-6.8-24.9c-18.1,10.9-26.1,7-35.7,2.7
		C182.1,341.3,154.6,333.7,142.6,359.8z"/>
	<path class="st4" d="M146.4,372.8l27.8,47.9c10.1-5.6,12.5-10.5,30.1-4.3c17.7,6.2,39.2-11.9,45.3-17.2s19.5-13.8-6.8-11.2
		s-10.1-13.4-8.6-20.2c1.5-6.8-6.8-17.7-6.8-24.9c-18.1,10.9-26.1,7-35.7,2.7c-9.6-4.3-37.1-11.9-49.1,14.2
		c-6.4-8.6-16.9-1.7-28.3,11.4h8l-2.3,8.9h8.4l-4.9,8.6h7.1l-2.2,7.3l7.3,1.5l-3.5,5.6h9.4l-4.3,6.6l7.6,1.8l-2.3,7.1
		c10.3-7.1,22.9-11,23.9-11"/>
</g>
<path class="st5" d="M189.2,311.3c-4.3-1-6.1-4.9-5.7-9c0.4-4.1,1.8-10.8-5.7-11.5c-7.5-0.6-9.8-2.6-6.3-21.2
	c3.5-18.6-24.6-16.2-33.7-15.4c-9.1,0.8-56.2,2.8-68-31.3c-11.8-34.1-58-45-97.6-28.9c0,0-42.7,14.9-42.8,53.9
	c-14.9-3-27.3-1.7-36,3.8c-7,4.5-11.3,11.4-12.9,20.5c-0.6,3.2,1.6,6.3,4.8,6.8c0.3,0.1,0.7,0.1,1,0.1c2.8,0,5.3-2,5.8-4.9
	c1-5.9,3.5-10,7.6-12.6c6.6-4.2,17.5-4.7,30.9-1.4c0,0.2,0.1,0.4,0.1,0.6c10.7,48.7,49.4,59.4,75.2,61.2
	c30.9,2.2,104.2-25,115.4-32.5c11.2-7.5,33.6-13.6,33-3.1c-0.5,10.6,3.8,13.2,10.7,13.4c7,0.2,10.1,1.2,11,7.7
	c0.8,6.6,4.4,10.9,8.2,10.5c3.8-0.4,9-1.6,12.4,2.1C197.2,316.8,193.5,312.3,189.2,311.3z M-23.3,250.2c-0.4-0.2-0.9-0.5-1.5-0.8
	c-0.3-0.2-0.6-0.3-0.9-0.4c-0.3-0.1-0.6-0.3-1-0.4c-0.7-0.2-1.5-0.4-2.3-0.5c-0.8-0.1-1.6-0.1-2.5,0c-0.9,0.1-1.8,0.2-2.7,0.5
	c-0.9,0.2-1.8,0.6-2.7,1c-3.5,1.5-6.6,4.1-8.2,6.6c-0.4,0.6-0.7,1.2-1,1.8c-0.2,0.6-0.4,1.1-0.5,1.5c-0.1,0.4-0.2,0.8-0.2,1.1
	c0,0.3-0.1,0.4-0.1,0.4s-0.1-0.1-0.2-0.4c-0.1-0.2-0.3-0.6-0.4-1.1c-0.1-0.5-0.3-1.1-0.3-1.9c0-0.7,0-1.6,0.3-2.5
	c0.4-1.8,1.5-3.8,3-5.5c0.8-0.8,1.6-1.7,2.6-2.4c1-0.7,2-1.3,3.1-1.8c2.2-1,4.7-1.5,7.1-1.3c1.2,0,2.3,0.3,3.3,0.7
	c1,0.4,1.9,0.9,2.7,1.4c0.4,0.3,0.7,0.5,1,0.8c0.3,0.3,0.6,0.6,0.8,0.9c0.5,0.5,0.8,1.1,1,1.5c0.3,0.4,0.4,0.8,0.5,1.1
	c0.1,0.3,0.1,0.4,0.1,0.4S-22.5,250.8-23.3,250.2z M27.6,281.7c-15.4,4.3-37.2,3.9-44.5-1.1c17.7-4.2,35.2-8.6,43.8-17.8
	C28.5,268,29.7,275.5,27.6,281.7z M27.9,232c-0.4-0.2-0.9-0.5-1.5-0.8c-0.3-0.2-0.6-0.3-0.9-0.4c-0.3-0.1-0.6-0.3-1-0.4
	c-0.7-0.2-1.5-0.4-2.3-0.5c-0.8-0.1-1.6-0.1-2.5,0c-0.9,0.1-1.8,0.2-2.7,0.5c-0.9,0.2-1.8,0.6-2.7,1c-3.5,1.5-6.6,4.1-8.2,6.6
	c-0.4,0.6-0.7,1.2-1,1.8c-0.2,0.6-0.4,1.1-0.5,1.5c-0.1,0.4-0.2,0.8-0.2,1.1c0,0.3-0.1,0.4-0.1,0.4s-0.1-0.1-0.2-0.4
	c-0.1-0.2-0.3-0.6-0.4-1.1c-0.1-0.5-0.3-1.1-0.3-1.9c0-0.7,0-1.6,0.3-2.5c0.4-1.8,1.5-3.8,3-5.5c0.8-0.8,1.6-1.7,2.6-2.4
	c1-0.7,2-1.3,3.1-1.8c2.2-1,4.7-1.5,7.1-1.3c1.2,0,2.3,0.3,3.3,0.7c1,0.4,1.9,0.9,2.7,1.4c0.4,0.3,0.7,0.5,1,0.9
	c0.3,0.3,0.6,0.6,0.8,0.9c0.5,0.5,0.8,1.1,1,1.5c0.3,0.4,0.4,0.8,0.5,1.1c0.1,0.3,0.1,0.4,0.1,0.4S28.7,232.5,27.9,232z"/>
<g>
	
		<rect x="-133.8" y="282.4" transform="matrix(0.9903 -0.1389 0.1389 0.9903 -44.9708 -11.2682)" class="st6" width="61.2" height="68.1"/>
	<path class="st7" d="M-101.2,318.6c-14.1-6.1-26.6-4-26.6-4c6.3,4.8,9.7,7.8,10.3,11c2.8-2.7,9.7-7.9,17.1-0.7
		c3-3.9,5.8-7.9,16.1-7.1c-1.1-5.1-0.9-8.5,2.5-11.4C-89.3,307.4-96.5,313.5-101.2,318.6z"/>
</g>
</svg>
