<?xml version="1.0" encoding="utf-8"?>
<!-- Generator: Adobe Illustrator 18.1.1, SVG Export Plug-In . SVG Version: 6.00 Build 0)  -->
<!DOCTYPE svg PUBLIC "-//W3C//DTD SVG 1.1//EN" "http://www.w3.org/Graphics/SVG/1.1/DTD/svg11.dtd">
<svg version="1.1" id="Layer_1" xmlns="http://www.w3.org/2000/svg" xmlns:xlink="http://www.w3.org/1999/xlink" x="0px" y="0px"
	 width="71.1px" height="71.1px" viewBox="0 0 71.1 71.1" style="enable-background:new 0 0 71.1 71.1;" xml:space="preserve">
<style type="text/css">
	.st0{fill:none;stroke:#FBED21;stroke-width:1.2706;stroke-miterlimit:10;}
	.st1{fill:#FFFFFF;}
	.st2{fill:#FBED21;}
	.st3{fill:#EE4137;}
</style>
<g>
	<circle class="st0" cx="37.2" cy="36" r="26.2"/>
	<g>
		<path class="st1" d="M30,32c-0.6,1.9,0.3,3.9,2.1,4.7l5.9,2.7c1.8,0.8,3.9,0.2,4.9-1.5l3.2-5.2l-14.3-6.5L30,32z"/>
		<path class="st2" d="M56.7,15.5c1.2-2,0.4-4.6-1.7-5.6L43.2,4.6c-2.1-1-4.6,0.1-5.3,2.4l-1.7,5.4l17.6,8L56.7,15.5z"/>
		<polygon class="st3" points="36.2,12.3 31.8,26.2 46.1,32.7 53.8,20.3 		"/>
	</g>
	<g>
		<path class="st1" d="M25.2,52.8c-1.4,1.8-1.2,4.3,0.4,5.9l5.2,5.2c1.6,1.6,4.1,1.7,5.9,0.4l5.6-4.3L29.6,47.2L25.2,52.8z"/>
		<path class="st2" d="M60.6,45.7c2.1-1.7,2.3-4.8,0.4-6.7L50.4,28.5c-1.9-1.9-5-1.7-6.7,0.4L39.8,34l15.7,15.6L60.6,45.7z"/>
		<polygon class="st3" points="39.8,34 28.6,48.5 41.1,60.9 55.5,49.7 		"/>
	</g>
	<g>
		<path class="st1" d="M29.9,44.3c1.6,1.2,3.8,1,5.1-0.4l4.5-4.6c1.4-1.4,1.5-3.6,0.2-5.2l-3.9-4.8L25,40.6L29.9,44.3z"/>
		<path class="st2" d="M23.3,13.6c-1.5-1.8-4.2-1.9-5.8-0.3l-9,9.3c-1.6,1.7-1.4,4.4,0.5,5.8l4.5,3.4L26.8,18L23.3,13.6z"/>
		<polygon class="st3" points="13.4,31.9 26.2,41.4 36.8,30.4 26.8,18 		"/>
	</g>
</g>
<g>
</g>
<g>
</g>
<g>
</g>
<g>
</g>
<g>
</g>
<g>
</g>
<g>
</g>
<g>
</g>
<g>
</g>
<g>
</g>
<g>
</g>
<g>
</g>
<g>
</g>
<g>
</g>
<g>
</g>
</svg>
