<?xml version="1.0" encoding="utf-8"?>
<!-- Generator: Adobe Illustrator 18.1.1, SVG Export Plug-In . SVG Version: 6.00 Build 0)  -->
<!DOCTYPE svg PUBLIC "-//W3C//DTD SVG 1.1//EN" "http://www.w3.org/Graphics/SVG/1.1/DTD/svg11.dtd">
<svg version="1.1" id="Layer_1" xmlns="http://www.w3.org/2000/svg" xmlns:xlink="http://www.w3.org/1999/xlink" x="0px" y="0px"
	 width="71.1px" height="71.1px" viewBox="-63 65.9 71.1 71.1" style="enable-background:new -63 65.9 71.1 71.1;"
	 xml:space="preserve">
<style type="text/css">
	.st0{fill:none;stroke:#FBED21;stroke-width:1.2706;stroke-miterlimit:10;}
	.st1{fill:#5F3A16;}
	.st2{fill:#3B2617;}
</style>
<g>
	<circle class="st0" cx="-28.3" cy="101.4" r="26.2"/>
	<g>
		
			<ellipse transform="matrix(0.9986 5.325422e-02 -5.325422e-02 0.9986 5.4975 1.7157)" class="st1" cx="-29.4" cy="104" rx="15.3" ry="6.2"/>
		<path class="st2" d="M-44.5,104.4l1.6,5.9c3,7,21.6,8.2,25.9,1.1c0.2-0.4,2.6-5.7,2.6-5.7C-20.1,113.5-41.9,109.9-44.5,104.4z"/>
	</g>
	<g>
		
			<ellipse transform="matrix(0.9221 -0.3869 0.3869 0.9221 -40.179 -9.0186)" class="st1" cx="-42.5" cy="95.3" rx="15.3" ry="6.2"/>
		<path class="st2" d="M-55.9,102.2l4,4.6c5.8,5,23-2.1,23.8-10.2c0-0.4-0.1-6.2-0.1-6.2C-30,99.8-51.2,106.1-55.9,102.2z"/>
	</g>
	<g>
		<ellipse transform="matrix(0.7972 0.6037 -0.6037 0.7972 54.8524 27.7981)" class="st1" cx="-14" cy="95.5" rx="19" ry="7.7"/>
		<path class="st2" d="M-29.7,85.5l-2.4,7.2c-1.8,9.4,16.6,23.4,25.8,19.2c0.5-0.2,6.6-4,6.6-4C-10.9,111.8-30.9,92.9-29.7,85.5z"/>
	</g>
</g>
</svg>
