<?xml version="1.0" encoding="utf-8"?>
<!-- Generator: Adobe Illustrator 18.1.1, SVG Export Plug-In . SVG Version: 6.00 Build 0)  -->
<!DOCTYPE svg PUBLIC "-//W3C//DTD SVG 1.1//EN" "http://www.w3.org/Graphics/SVG/1.1/DTD/svg11.dtd">
<svg version="1.1" id="Layer_1" xmlns="http://www.w3.org/2000/svg" xmlns:xlink="http://www.w3.org/1999/xlink" x="0px" y="0px"
	 width="71.1px" height="71.1px" viewBox="-63 65.9 71.1 71.1" style="enable-background:new -63 65.9 71.1 71.1;"
	 xml:space="preserve">
<style type="text/css">
	.st0{fill:none;stroke:#FBED21;stroke-width:1.2706;stroke-miterlimit:10;}
	.st1{fill:#91298C;}
	.st2{fill:#FFFFFF;stroke:#FFFFFF;stroke-width:0.3156;stroke-miterlimit:10;}
	.st3{fill:#EB2027;}
	.st4{fill:#FBED21;}
</style>
<g>
	<circle class="st0" cx="-28.4" cy="101.4" r="26.2"/>
	<g>
		<g>
			<ellipse transform="matrix(0.979 0.2041 -0.2041 0.979 18.5541 8.088)" class="st1" cx="-29.9" cy="94" rx="14.8" ry="10.2"/>
			<g>
				<path class="st2" d="M-34.6,92.8c-0.1,0.4-0.2,0.7-0.1,0.9c0.1,0.4,0.5,0.8,1.1,1.1c0.4,0.2,0.7,0.3,1,0.3
					c0.5,0.1,0.9-0.1,1.1-0.5c0.1-0.2,0.1-0.5,0-0.7c-0.2-0.2-0.4-0.5-0.9-0.9l-0.7-0.6c-0.7-0.6-1.2-1.1-1.4-1.4
					c-0.3-0.6-0.3-1.3,0.1-2c0.3-0.7,0.9-1.1,1.6-1.3c0.7-0.2,1.6-0.1,2.5,0.4c0.8,0.4,1.4,1,1.7,1.7c0.4,0.7,0.3,1.5,0,2.3
					l-1.5-0.8c0.2-0.5,0.2-0.9-0.1-1.3c-0.2-0.3-0.5-0.5-0.8-0.7c-0.4-0.2-0.8-0.3-1.1-0.3c-0.3,0-0.6,0.2-0.7,0.5
					c-0.1,0.3-0.1,0.5,0.1,0.8c0.1,0.2,0.4,0.4,0.8,0.8l1.2,1c0.5,0.4,0.9,0.8,1,1.2c0.3,0.6,0.2,1.2-0.1,1.9
					c-0.3,0.7-0.9,1.1-1.7,1.3c-0.8,0.2-1.6,0-2.6-0.5c-1-0.5-1.7-1.1-2-1.9c-0.3-0.7-0.3-1.5,0.1-2.3L-34.6,92.8z"/>
			</g>
		</g>
		<g>
			<ellipse class="st3" cx="-40.2" cy="111.6" rx="17" ry="11.7"/>
			<g>
				<path class="st2" d="M-44.6,111.5c0,0.5,0,0.9,0.2,1.2c0.3,0.5,0.9,0.9,1.7,1.1c0.5,0.1,1,0.2,1.3,0.1c0.7-0.1,1.1-0.4,1.2-1
					c0.1-0.4,0-0.7-0.3-0.9c-0.3-0.3-0.7-0.5-1.4-0.8l-1.1-0.5c-1.1-0.5-1.8-1-2.1-1.3c-0.6-0.7-0.8-1.5-0.6-2.5
					c0.2-1,0.7-1.7,1.6-2.1c0.8-0.5,1.9-0.6,3.3-0.2c1.1,0.3,2,0.8,2.7,1.5c0.7,0.8,0.9,1.7,0.7,2.9l-2.1-0.5
					c0.1-0.6-0.1-1.2-0.5-1.6c-0.3-0.3-0.7-0.4-1.3-0.6c-0.6-0.1-1.1-0.1-1.5,0s-0.7,0.4-0.7,0.8c-0.1,0.4,0,0.7,0.3,1
					c0.2,0.2,0.6,0.4,1.3,0.8l1.8,0.9c0.8,0.4,1.3,0.8,1.7,1.2c0.5,0.6,0.7,1.4,0.5,2.4c-0.2,1-0.8,1.7-1.7,2.2
					c-0.9,0.5-2,0.6-3.4,0.2c-1.4-0.3-2.4-0.9-3.1-1.7c-0.7-0.8-0.9-1.8-0.6-2.9L-44.6,111.5z"/>
			</g>
		</g>
		<g>
			
				<ellipse transform="matrix(-0.8266 0.5628 -0.5628 -0.8266 37.1233 184.931)" class="st4" cx="-9.9" cy="98.2" rx="13.4" ry="9.2"/>
			<g>
				<path class="st2" d="M-6.7,95.8c-0.2-0.3-0.4-0.6-0.6-0.7c-0.4-0.2-0.9-0.2-1.6,0c-0.4,0.1-0.7,0.3-0.9,0.5
					c-0.4,0.3-0.5,0.7-0.4,1.2c0.1,0.3,0.3,0.4,0.6,0.5c0.3,0.1,0.7,0.1,1.2,0l0.9-0.1c0.9-0.1,1.6-0.1,2,0c0.7,0.2,1.1,0.7,1.4,1.4
					c0.3,0.7,0.2,1.4-0.2,2.1c-0.4,0.7-1,1.2-2.1,1.5c-0.8,0.3-1.6,0.3-2.4,0.1c-0.8-0.2-1.3-0.8-1.6-1.6l1.6-0.6
					c0.2,0.5,0.5,0.7,1,0.8c0.3,0,0.7,0,1.1-0.2c0.4-0.2,0.8-0.4,1-0.6c0.2-0.3,0.2-0.6,0.1-0.9c-0.1-0.3-0.3-0.5-0.6-0.5
					c-0.2,0-0.6,0-1.2,0l-1.5,0.2c-0.7,0.1-1.2,0-1.6-0.1c-0.6-0.2-1-0.7-1.3-1.4c-0.3-0.7-0.2-1.4,0.2-2.1c0.4-0.7,1.1-1.2,2.1-1.6
					c1-0.4,2-0.4,2.7-0.2c0.8,0.3,1.3,0.8,1.6,1.6L-6.7,95.8z"/>
			</g>
		</g>
	</g>
</g>
</svg>
