<?xml version="1.0" encoding="utf-8"?>
<!-- Generator: Adobe Illustrator 18.1.1, SVG Export Plug-In . SVG Version: 6.00 Build 0)  -->
<!DOCTYPE svg PUBLIC "-//W3C//DTD SVG 1.1//EN" "http://www.w3.org/Graphics/SVG/1.1/DTD/svg11.dtd">
<svg version="1.1" id="Layer_1" xmlns="http://www.w3.org/2000/svg" xmlns:xlink="http://www.w3.org/1999/xlink" x="0px" y="0px"
	 width="71.1px" height="71.1px" viewBox="-63 65.9 71.1 71.1" style="enable-background:new -63 65.9 71.1 71.1;"
	 xml:space="preserve">
<style type="text/css">
	.st0{fill:none;stroke:#FBED21;stroke-width:1.2706;stroke-miterlimit:10;}
	.st1{fill:#E6DA19;}
	.st2{fill:#EB2027;}
	.st3{fill:#BD202E;}
</style>
<g>
	<circle class="st0" cx="-27.5" cy="102" r="26.2"/>
	<path class="st1" d="M-30.4,105c3.2-3.2,1.8-5.6-1-7s-3.5-3.8-4.6-5.3c-1.1-1.4-4.4-1.8-5.1-3s-1.4-3.9-3.4-5.9
		c-1.9-2-2.8-1-6.1,2.3c-3.2,3.3-5.4,5.5,0.8,8.2c4.2,1.9,3.2,3.6,6.6,6.1c3.4,2.5,4.4,2.7,7.2,5.2C-33.2,108.2-32.9,107.5-30.4,105
		z"/>
	<g>
		<path class="st2" d="M-31.7,95.6c-1.2,1.4-1.3,3.3-0.2,4.4l3.5,3.5c1.1,1.1,2.9,1,4.4-0.2l4.5-3.7l-8.5-8.5L-31.7,95.6z"/>
		<path class="st2" d="M-4.7,87.5c1.7-1.4,2.1-3.8,0.8-5l-7-7c-1.3-1.3-3.6-0.9-5,0.9l-3.4,4.1l10.5,10.5L-4.7,87.5z"/>
		<polygon class="st2" points="-19.3,80.4 -28.8,92.1 -20.5,100.4 -8.8,90.8 		"/>
	</g>
	<circle class="st3" cx="-37.5" cy="113.8" r="11.8"/>
	<ellipse class="st1" cx="-13.1" cy="103.4" rx="9.3" ry="6.9"/>
</g>
</svg>
