<?xml version="1.0" encoding="utf-8"?>
<!-- Generator: Adobe Illustrator 18.1.1, SVG Export Plug-In . SVG Version: 6.00 Build 0)  -->
<!DOCTYPE svg PUBLIC "-//W3C//DTD SVG 1.1//EN" "http://www.w3.org/Graphics/SVG/1.1/DTD/svg11.dtd">
<svg version="1.1" id="Layer_1" xmlns="http://www.w3.org/2000/svg" xmlns:xlink="http://www.w3.org/1999/xlink" x="0px" y="0px"
	 width="71.1px" height="71.1px" viewBox="-63 65.9 71.1 71.1" style="enable-background:new -63 65.9 71.1 71.1;"
	 xml:space="preserve">
<style type="text/css">
	.st0{fill:none;stroke:#FBED21;stroke-width:1.2706;stroke-miterlimit:10;}
	.st1{fill:#3C2417;}
	.st2{fill:#FFFFFF;}
	.st3{fill:#F05A2A;}
	.st4{fill:#FBED21;}
</style>
<g>
	<circle class="st0" cx="-28.2" cy="101.4" r="26.2"/>
	<g>
		<ellipse transform="matrix(0.979 0.2041 -0.2041 0.979 18.4438 8.0647)" class="st1" cx="-29.9" cy="93.5" rx="14.5" ry="10"/>
		<g>
			<path class="st2" d="M-30.2,91.3l-1.5,3l-1.5-0.8l1.5-3c0.2-0.4,0.3-0.8,0.3-1.1c0-0.3-0.2-0.5-0.5-0.6c-0.3-0.1-0.6-0.2-1-0.1
				c-0.3,0.1-0.6,0.4-0.8,0.8l-1.5,3l-1.5-0.8l2.8-5.5l1.5,0.8l-0.3,0.6c0.7-0.3,1.3-0.3,1.8,0c0.3,0.2,0.6,0.4,0.8,0.8
				c0.2,0.3,0.3,0.7,0.3,1.1c0.4-0.2,0.8-0.3,1.2-0.3c0.5,0,0.9,0.1,1.2,0.3c0.6,0.3,1.1,0.8,1.3,1.4c0.2,0.6,0.1,1.2-0.3,2
				l-1.7,3.3l-1.5-0.8l1.5-3c0.4-0.8,0.3-1.4-0.3-1.7c-0.3-0.2-0.6-0.2-1-0.1C-29.7,90.6-29.9,90.8-30.2,91.3z"/>
		</g>
	</g>
	<g>
		<ellipse class="st3" cx="-39.9" cy="110.7" rx="16.6" ry="11.4"/>
		<g>
			<path class="st2" d="M-40.8,108.1l-1,3.7l-1.9-0.5l1-3.7c0.1-0.5,0.2-1,0.1-1.3s-0.3-0.5-0.7-0.6c-0.4-0.1-0.7,0-1.1,0.2
				c-0.4,0.2-0.6,0.6-0.7,1.1l-1,3.7l-1.9-0.5l1.8-6.8l1.9,0.5l-0.2,0.8c0.7-0.5,1.4-0.6,2-0.4c0.4,0.1,0.8,0.3,1.1,0.7
				c0.3,0.3,0.5,0.7,0.5,1.1c0.4-0.3,0.8-0.6,1.3-0.7c0.5-0.1,1-0.1,1.4,0c0.8,0.2,1.4,0.6,1.7,1.2c0.4,0.6,0.4,1.4,0.2,2.3
				l-1.1,4.1l-1.9-0.5l1-3.7c0.3-1,0-1.7-0.7-1.9c-0.4-0.1-0.7-0.1-1.1,0.1C-40.4,107.2-40.6,107.6-40.8,108.1z"/>
		</g>
	</g>
	<g>
		<ellipse transform="matrix(-0.8266 0.5628 -0.5628 -0.8266 36.0211 183.9848)" class="st4" cx="-10.3" cy="97.5" rx="13" ry="9"/>
		<g>
			<path class="st2" d="M-8.6,98.8l-1-2.8l1.5-0.5l1,2.9c0.1,0.4,0.3,0.7,0.5,0.9c0.2,0.2,0.4,0.2,0.7,0.1s0.5-0.3,0.6-0.6
				c0.1-0.3,0.1-0.6,0-1l-1-2.8l1.5-0.5l1.8,5.2l-1.5,0.5l-0.2-0.6c-0.2,0.6-0.6,1-1.1,1.2c-0.3,0.1-0.7,0.1-1,0
				c-0.3-0.1-0.6-0.3-0.9-0.5c-0.1,0.4-0.3,0.7-0.6,1c-0.3,0.3-0.6,0.5-0.9,0.6c-0.6,0.2-1.2,0.2-1.7,0c-0.5-0.2-0.9-0.7-1.1-1.4
				l-1.1-3.2l1.5-0.5l1,2.9c0.3,0.8,0.7,1.1,1.3,0.9c0.3-0.1,0.5-0.3,0.6-0.6S-8.4,99.2-8.6,98.8z"/>
		</g>
	</g>
</g>
</svg>
