<?xml version="1.0" encoding="utf-8"?>
<!-- Generator: Adobe Illustrator 18.1.1, SVG Export Plug-In . SVG Version: 6.00 Build 0)  -->
<!DOCTYPE svg PUBLIC "-//W3C//DTD SVG 1.1//EN" "http://www.w3.org/Graphics/SVG/1.1/DTD/svg11.dtd">
<svg version="1.1" id="Layer_1" xmlns="http://www.w3.org/2000/svg" xmlns:xlink="http://www.w3.org/1999/xlink" x="0px" y="0px"
	 width="71.1px" height="71.1px" viewBox="-359 271.9 71.1 71.1" style="enable-background:new -359 271.9 71.1 71.1;"
	 xml:space="preserve">
<style type="text/css">
	.st0{fill:none;stroke:#FBED21;stroke-width:1.2706;stroke-miterlimit:10;}
	.st1{fill:#3BB44A;}
	.st2{fill:#009348;}
	.st3{fill:#C2986B;}
	.st4{fill:#8CC540;}
</style>
<g>
	<circle class="st0" cx="-323.5" cy="307.9" r="26.2"/>
	<g>
		<path class="st1" d="M-317.6,299.1c23.5-13.5,15.3,27.8,0,22.5C-332.9,326.9-341.1,285.6-317.6,299.1z"/>
		<path class="st2" d="M-317.6,296.7c-4.1-3.8,4.1-3.4,5.9-7.1C-314.4,296.9-316.7,297.5-317.6,296.7z"/>
		<path class="st3" d="M-320,296.2L-320,296.2c-0.3,0.2-0.6,0.2-0.8-0.1l-2.6-3.2c-0.2-0.3-0.2-0.6,0.1-0.8l0,0
			c0.3-0.2,0.6-0.2,0.8,0.1l2.6,3.2C-319.7,295.6-319.8,296-320,296.2z"/>
	</g>
	<g>
		<path class="st4" d="M-329.5,303.2c23.5-13.5,15.3,27.8,0,22.5C-344.8,331-353,289.7-329.5,303.2z"/>
		<path class="st2" d="M-329.5,300.8c-4.1-3.8,4.1-3.4,5.9-7.1C-326.3,300.9-328.7,301.6-329.5,300.8z"/>
		<path class="st3" d="M-332,300.3L-332,300.3c-0.3,0.2-0.6,0.2-0.8-0.1l-2.6-3.2c-0.2-0.3-0.2-0.6,0.1-0.8l0,0
			c0.3-0.2,0.6-0.2,0.8,0.1l2.6,3.2C-331.7,299.7-331.7,300.1-332,300.3z"/>
	</g>
</g>
</svg>
