<?xml version="1.0" encoding="utf-8"?>
<!-- Generator: Adobe Illustrator 18.1.1, SVG Export Plug-In . SVG Version: 6.00 Build 0)  -->
<!DOCTYPE svg PUBLIC "-//W3C//DTD SVG 1.1//EN" "http://www.w3.org/Graphics/SVG/1.1/DTD/svg11.dtd">
<svg version="1.1" id="Layer_1" xmlns="http://www.w3.org/2000/svg" xmlns:xlink="http://www.w3.org/1999/xlink" x="0px" y="0px"
	 width="71.1px" height="71.1px" viewBox="-63 65.9 71.1 71.1" style="enable-background:new -63 65.9 71.1 71.1;"
	 xml:space="preserve">
<style type="text/css">
	.st0{fill:none;stroke:#FBED21;stroke-width:1.2706;stroke-miterlimit:10;}
	.st1{fill:#8A5F3C;}
	.st2{fill:#A87C51;}
	.st3{fill:#3C2417;}
	.st4{fill:#4D2F16;}
</style>
<g>
	<circle class="st0" cx="-27.4" cy="101.4" r="26.2"/>
	<g>
		<polygon class="st1" points="-49,93.9 -46.9,92.3 -31.5,97.5 -30.8,99.9 -32.5,109.1 -56.7,103.9 		"/>
		<polygon class="st2" points="-53.5,100.8 -46.9,92.3 -31.5,97.5 -33,105.2 		"/>
	</g>
	<g>
		<polygon class="st1" points="-36.4,99.6 -33.9,99.2 -22.7,111 -23.3,113.5 -29.1,120.7 -47.9,104.8 		"/>
		<polygon class="st2" points="-43.7,103.6 -33.9,99.2 -22.7,111 -27.6,117.1 		"/>
	</g>
	<g>
		<polygon class="st3" points="0,99.3 -1,96.6 -19.1,92.6 -21.2,94.7 -24.9,104.6 1.8,113.6 		"/>
		<polygon class="st4" points="0.5,108.7 -1,96.6 -19.1,92.6 -22.2,101.1 		"/>
	</g>
	<g>
		<polygon class="st3" points="-29.4,81.5 -27.4,79.9 -11.8,84.3 -11,86.8 -12.3,96 -36.6,91.9 		"/>
		<polygon class="st4" points="-33.6,88.6 -27.4,79.9 -11.8,84.3 -12.9,92.1 		"/>
	</g>
</g>
</svg>
