<?xml version="1.0" encoding="utf-8"?>
<!-- Generator: Adobe Illustrator 19.2.1, SVG Export Plug-In . SVG Version: 6.00 Build 0)  -->
<!DOCTYPE svg PUBLIC "-//W3C//DTD SVG 1.1//EN" "http://www.w3.org/Graphics/SVG/1.1/DTD/svg11.dtd">
<svg version="1.1" id="Layer_1" xmlns="http://www.w3.org/2000/svg" xmlns:xlink="http://www.w3.org/1999/xlink" x="0px" y="0px"
	 viewBox="0 0 71.1 71.1" style="enable-background:new 0 0 71.1 71.1;" xml:space="preserve">
<g>
	<circle style="fill:none;stroke:#FBED21;stroke-width:1.2706;stroke-miterlimit:10;" cx="35.5" cy="35.5" r="26.2"/>
	<g>
		<path style="fill:#3BB44A;" d="M41.4,26.8c23.5-13.5,15.3,27.8,0,22.5C26.2,54.5,17.9,13.3,41.4,26.8z"/>
		<path style="fill:#009348;" d="M41.4,24.4c-4.1-3.8,4.1-3.4,5.9-7.1C44.7,24.5,42.3,25.2,41.4,24.4z"/>
		<path style="fill:#C2986B;" d="M39,23.9L39,23.9c-0.3,0.2-0.6,0.2-0.8-0.1l-2.6-3.2c-0.2-0.3-0.2-0.6,0.1-0.8l0,0
			c0.3-0.2,0.6-0.2,0.8,0.1l2.6,3.2C39.3,23.3,39.3,23.7,39,23.9z"/>
	</g>
	<g>
		<path style="fill:#8CC540;" d="M29.5,30.9c23.5-13.5,15.3,27.8,0,22.5C14.3,58.7,6,17.4,29.5,30.9z"/>
		<path style="fill:#009348;" d="M29.5,28.4c-4.1-3.8,4.1-3.4,5.9-7.1C32.8,28.5,30.3,29.3,29.5,28.4z"/>
		<path style="fill:#C2986B;" d="M27,27.9L27,27.9c-0.3,0.2-0.6,0.2-0.8-0.1l-2.6-3.2c-0.2-0.3-0.2-0.6,0.1-0.8l0,0
			c0.3-0.2,0.6-0.2,0.8,0.1l2.6,3.2C27.3,27.4,27.3,27.8,27,27.9z"/>
	</g>
</g>
</svg>
