<?xml version="1.0" encoding="utf-8"?>
<!-- Generator: Adobe Illustrator 18.1.1, SVG Export Plug-In . SVG Version: 6.00 Build 0)  -->
<!DOCTYPE svg PUBLIC "-//W3C//DTD SVG 1.1//EN" "http://www.w3.org/Graphics/SVG/1.1/DTD/svg11.dtd">
<svg version="1.1" id="Layer_1" xmlns="http://www.w3.org/2000/svg" xmlns:xlink="http://www.w3.org/1999/xlink" x="0px" y="0px"
	 width="71.1px" height="71.1px" viewBox="-359 271.9 71.1 71.1" style="enable-background:new -359 271.9 71.1 71.1;"
	 xml:space="preserve">
<style type="text/css">
	.st0{fill:none;stroke:#FBED21;stroke-width:1.2706;stroke-miterlimit:10;}
	.st1{fill:#F05A2A;}
</style>
<g>
	<circle class="st0" cx="-318.3" cy="307.9" r="26.2"/>
	<g>
		<path d="M-332.3,326.3l-13-8.7c-1.8-1.2-2.3-3.7-1.1-5.5l4.4-6.5c1.2-1.8,3.7-2.3,5.5-1.1l13,8.7c1.8,1.2,2.3,3.7,1.1,5.5
			l-4.4,6.5C-328,327-330.4,327.5-332.3,326.3z"/>
		<polygon points="-326.1,321 -313.8,319.7 -322.5,332.8 		"/>
		<polygon points="-343,309.7 -346.6,297.8 -355.3,310.9 		"/>
	</g>
	<g>
		<path class="st1" d="M-300.3,302.8l-11.6,10.5c-1.6,1.5-4.1,1.3-5.6-0.3l-5.3-5.8c-1.5-1.6-1.3-4.1,0.3-5.6l11.6-10.5
			c1.6-1.5,4.1-1.3,5.6,0.3l5.3,5.8C-298.5,298.9-298.7,301.4-300.3,302.8z"/>
		<polygon class="st1" points="-303.9,295.5 -302.1,283.3 -291.6,295 		"/>
		<polygon class="st1" points="-319,309.2 -331.4,309.8 -320.8,321.4 		"/>
	</g>
</g>
</svg>
