<?xml version="1.0" encoding="utf-8"?>
<!-- Generator: Adobe Illustrator 18.1.1, SVG Export Plug-In . SVG Version: 6.00 Build 0)  -->
<!DOCTYPE svg PUBLIC "-//W3C//DTD SVG 1.1//EN" "http://www.w3.org/Graphics/SVG/1.1/DTD/svg11.dtd">
<svg version="1.1" id="Layer_1" xmlns="http://www.w3.org/2000/svg" xmlns:xlink="http://www.w3.org/1999/xlink" x="0px" y="0px"
	 width="71.1px" height="71.1px" viewBox="-359 271.9 71.1 71.1" style="enable-background:new -359 271.9 71.1 71.1;"
	 xml:space="preserve">
<style type="text/css">
	.st0{fill:none;stroke:#FBED21;stroke-width:1.2706;stroke-miterlimit:10;}
	.st1{fill:#FAAF41;}
	.st2{fill:#F79420;}
</style>
<g>
	<g>
		<circle class="st0" cx="-321.5" cy="307.9" r="26.2"/>
		<g>
			<path class="st1" d="M-347.8,314.8c16,6.3,29.2,5.1,38.1,3.9c5.3-0.7,14.9-21.3-12.2-13.7c-6.4,1.8-14.6,0.3-18.4-4.3
				C-348,291.7-366.4,307.5-347.8,314.8z"/>
			<path class="st1" d="M-342.5,295.2c11.3,4.5,20.7,3.6,26.9,2.8c3.8-0.5,10.5-15.1-8.6-9.7c-4.6,1.3-10.3,0.2-13-3
				C-342.6,278.9-355.7,290-342.5,295.2z"/>
			<path class="st1" d="M-321.6,332.2c14.1-4.4,22.4-12.3,27.6-17.8c3.2-3.3-1.4-22.3-15.5-2.6c-3.4,4.7-9.6,8.1-14.7,7
				C-334,316.8-337.9,337.2-321.6,332.2z"/>
		</g>
	</g>
	<g>
		<path class="st2" d="M-304.6,306.1c0,0-0.3,0.3-0.8,1c-0.5,0.6-1.2,1.5-2,2.6c-0.4,0.6-0.8,1.2-1.3,1.8c-0.2,0.3-0.4,0.7-0.7,1
			c-0.2,0.3-0.5,0.7-0.8,1c-0.6,0.7-1.2,1.3-1.9,1.9c-0.7,0.6-1.4,1.2-2.2,1.7c-0.8,0.5-1.6,0.9-2.5,1.3c-0.9,0.4-1.7,0.6-2.6,0.8
			c-0.9,0.2-1.7,0.3-2.5,0.3c-0.4,0-0.8,0-1.2-0.1c-0.4-0.1-0.7-0.1-1.1-0.2c-0.7-0.2-1.2-0.2-1.8-0.2c-0.5,0-1,0.1-1.4,0.2
			c-0.8,0.2-1.2,0.4-1.2,0.4s0.1-0.1,0.3-0.2c0.2-0.1,0.5-0.3,0.8-0.4c0.4-0.2,0.9-0.3,1.4-0.4c0.6-0.1,1.2-0.1,1.9,0
			c0.7,0.1,1.4,0.1,2.1,0.1c0.7-0.1,1.5-0.2,2.3-0.4c0.8-0.2,1.6-0.5,2.4-0.8c0.8-0.4,1.6-0.8,2.3-1.2c0.8-0.5,1.5-1,2.1-1.5
			c0.7-0.6,1.3-1.1,1.8-1.7c0.3-0.3,0.5-0.6,0.8-0.9c0.3-0.3,0.5-0.6,0.7-0.9c0.5-0.6,1-1.2,1.4-1.7
			C-306.1,307.1-304.6,306.1-304.6,306.1z"/>
	</g>
</g>
</svg>
