<?xml version="1.0" encoding="utf-8"?>
<!-- Generator: Adobe Illustrator 18.1.1, SVG Export Plug-In . SVG Version: 6.00 Build 0)  -->
<!DOCTYPE svg PUBLIC "-//W3C//DTD SVG 1.1//EN" "http://www.w3.org/Graphics/SVG/1.1/DTD/svg11.dtd">
<svg version="1.1" id="Layer_1" xmlns="http://www.w3.org/2000/svg" xmlns:xlink="http://www.w3.org/1999/xlink" x="0px" y="0px"
	 width="71.1px" height="71.1px" viewBox="-359 271.9 71.1 71.1" style="enable-background:new -359 271.9 71.1 71.1;"
	 xml:space="preserve">
<style type="text/css">
	.st0{fill:none;stroke:#FBED21;stroke-width:1.2706;stroke-miterlimit:10;}
	.st1{fill:none;stroke:#C2986B;stroke-width:1.2706;stroke-miterlimit:10;}
	.st2{fill:#EB2027;}
	.st3{clip-path:url(#SVGID_2_);fill:#FAAF41;}
	.st4{fill:#3BB44A;}
	.st5{clip-path:url(#SVGID_4_);fill:#FAAF41;}
	.st6{fill:#009348;}
	.st7{fill:#C2986B;}
</style>
<g>
	<circle class="st0" cx="-323.4" cy="308.2" r="26.2"/>
	<g>
		<line class="st1" x1="-337.9" y1="317.5" x2="-334.5" y2="338"/>
		<path class="st2" d="M-336.5,297.7c23.5-13.5,15.3,27.8,0,22.5C-351.8,325.5-360,284.2-336.5,297.7z"/>
		<g>
			<defs>
				<path id="SVGID_1_" d="M-336.5,297.7c23.5-13.5,15.3,27.8,0,22.5C-351.8,325.5-360,284.2-336.5,297.7z"/>
			</defs>
			<clipPath id="SVGID_2_">
				<use xlink:href="#SVGID_1_"  style="overflow:visible;"/>
			</clipPath>
			<path class="st3" d="M-353.2,315.4c2.9-3,4.4-7,7.4-3c3,4,4.4-0.2,5.7-0.8c1.3-0.6,1.9-0.5,3.6,2.5c1.7,3,5.6,1.1,7.3-1.9
				s2.2-0.2,3.4,2.3c1.2,2.5,7.6-4,7.5-6.6c-0.1-2.5,1.6-23.1,1.6-23.1l-45,2.7L-353.2,315.4z"/>
		</g>
	</g>
	<g>
		<g>
			<line class="st1" x1="-318.1" y1="316.6" x2="-332.2" y2="331.7"/>
			<path class="st4" d="M-308.3,299.2c-12.2-24.2-28.1,14.8-12.4,18.8C-310.9,330.9-281.3,300.9-308.3,299.2z"/>
			<g>
				<defs>
					<path id="SVGID_3_" d="M-308.3,299.2c-12.2-24.2-28.1,14.8-12.4,18.8C-310.9,330.9-281.3,300.9-308.3,299.2z"/>
				</defs>
				<clipPath id="SVGID_4_">
					<use xlink:href="#SVGID_3_"  style="overflow:visible;"/>
				</clipPath>
				<path class="st5" d="M-304.2,323.2c-0.8-4.1,0.2-8.3-4.5-6.6c-4.7,1.7-3.5-2.6-4.3-3.9c-0.8-1.2-1.3-1.4-4.4,0.1
					c-3.1,1.6-5.3-2.2-5-5.6s-1.7-1.4-4.1,0s-4.1-7.6-2.6-9.6c1.5-2,11.4-20.2,11.4-20.2l36,27L-304.2,323.2z"/>
			</g>
		</g>
		<path class="st6" d="M-306.6,298.1c-2.2-5.1,5.1-1.5,8.3-4.2C-303.8,299.5-306.2,299.2-306.6,298.1z"/>
		<path class="st7" d="M-308.7,296.7L-308.7,296.7c-0.3,0.1-0.6-0.1-0.7-0.4l-1.1-4c-0.1-0.3,0.1-0.6,0.4-0.7l0,0
			c0.3-0.1,0.6,0.1,0.7,0.4l1.1,4C-308.2,296.3-308.3,296.6-308.7,296.7z"/>
	</g>
	<path class="st6" d="M-335.3,296.1c-4.1-3.8,4.1-3.4,5.9-7.1C-332.1,296.2-334.5,296.9-335.3,296.1z"/>
	<path class="st7" d="M-337.7,295.6L-337.7,295.6c-0.3,0.2-0.6,0.2-0.8-0.1l-2.6-3.2c-0.2-0.3-0.2-0.6,0.1-0.8l0,0
		c0.3-0.2,0.6-0.2,0.8,0.1l2.6,3.2C-337.5,295-337.5,295.4-337.7,295.6z"/>
</g>
</svg>
