<?xml version="1.0" encoding="utf-8"?>
<!-- Generator: Adobe Illustrator 18.1.1, SVG Export Plug-In . SVG Version: 6.00 Build 0)  -->
<!DOCTYPE svg PUBLIC "-//W3C//DTD SVG 1.1//EN" "http://www.w3.org/Graphics/SVG/1.1/DTD/svg11.dtd">
<svg version="1.1" id="Layer_1" xmlns="http://www.w3.org/2000/svg" xmlns:xlink="http://www.w3.org/1999/xlink" x="0px" y="0px"
	 width="71.1px" height="71.1px" viewBox="-63 65.9 71.1 71.1" style="enable-background:new -63 65.9 71.1 71.1;"
	 xml:space="preserve">
<style type="text/css">
	.st0{fill:none;stroke:#FBED21;stroke-width:1.2706;stroke-miterlimit:10;}
	.st1{fill:#CFAE89;}
	.st2{fill:#FAAF41;}
	.st3{fill:#C2986B;}
	.st4{fill:none;stroke:#5F3A16;stroke-width:3.8118;stroke-miterlimit:10;}
</style>
<g>
	<circle class="st0" cx="-27.5" cy="101.4" r="26.2"/>
	<g>
		<g>
			<path class="st1" d="M-1.6,120.7h-51.8V95.9c0-7.6,6.2-13.7,13.7-13.7h24.3c7.6,0,13.7,6.2,13.7,13.7V120.7z"/>
			<path class="st2" d="M-1.6,101.5c0-1.3-5.8-2.9-6.8-3.2c-3.5-0.9-7.3-0.8-10.7,0.4c-3,1.1-6,3-9.2,2.6c-2.3-0.2-4.4-1.6-6.5-2.5
				c-4-1.6-7.8-1.3-11.9-0.2c-1.2,0.3-6.6,1.3-6.6,2.9v-5.6c0-7.6,6.2-13.7,13.7-13.7h24.3c7.6,0,13.7,6.2,13.7,13.7
				C-1.6,95.9-1.6,101.5-1.6,101.5z"/>
			<path class="st3" d="M-37.7,98.9c1.2,2.2,2.3,5.1,1.2,7.6c-0.5,1.2-1.6,2.1-2.9,2.3c-1.1,0.1-2.2-0.4-3.1-1
				c-2.6-1.7-4.5-4.4-5.4-7.4c-0.6-2.1-0.1-4.2,1.8-5.4C-42.9,92.8-39.6,95.5-37.7,98.9z"/>
			<path class="st3" d="M-10.3,104.6c-1.9,1.7-4.5,3.3-7.2,2.7c-1.3-0.3-2.4-1.2-2.8-2.4c-0.3-1.1,0-2.2,0.4-3.3
				c1.2-2.9,3.4-5.4,6.2-6.8c2-1,4.1-1,5.7,0.7C-5.5,98.3-7.4,102.1-10.3,104.6z"/>
			<path class="st3" d="M-24.8,104.5c-1.5,1.3-3.6,2.6-5.7,2.1c-1-0.2-1.9-0.9-2.2-1.9c-0.3-0.8,0-1.8,0.3-2.6
				c0.9-2.3,2.7-4.3,4.9-5.4c1.6-0.8,3.2-0.8,4.5,0.5C-20.9,99.5-22.5,102.5-24.8,104.5z"/>
			<path class="st3" d="M-27.3,115.3c-2-0.4-4.2-1.3-5.1-3.2c-0.4-0.9-0.4-2.1,0.2-2.9c0.5-0.7,1.4-1.1,2.2-1.3
				c2.4-0.7,5-0.4,7.3,0.6c1.6,0.8,2.6,2.1,2.3,3.9C-21,115.3-24.3,115.9-27.3,115.3z"/>
		</g>
		<path class="st4" d="M-1.6,120.7h-51.8V95.9c0-7.6,6.2-13.7,13.7-13.7h24.3c7.6,0,13.7,6.2,13.7,13.7V120.7z"/>
	</g>
</g>
</svg>
