<?xml version="1.0" encoding="utf-8"?>
<!-- Generator: Adobe Illustrator 19.2.1, SVG Export Plug-In . SVG Version: 6.00 Build 0)  -->
<!DOCTYPE svg PUBLIC "-//W3C//DTD SVG 1.1//EN" "http://www.w3.org/Graphics/SVG/1.1/DTD/svg11.dtd">
<svg version="1.1" id="Layer_1" xmlns="http://www.w3.org/2000/svg" xmlns:xlink="http://www.w3.org/1999/xlink" x="0px" y="0px"
	 viewBox="0 0 71.1 71.1" style="enable-background:new 0 0 71.1 71.1;" xml:space="preserve">
<g>
	<g>
		<circle style="fill:none;stroke:#FBED21;stroke-width:1.2706;stroke-miterlimit:10;" cx="38.5" cy="35.5" r="26.2"/>
		<g>
			<path style="fill:#FAAF41;" d="M12.2,42.4c16,6.3,29.2,5.1,38.1,3.9c5.3-0.7,14.9-21.3-12.2-13.7c-6.4,1.8-14.6,0.3-18.4-4.3
				C12,19.4-6.4,35.2,12.2,42.4z"/>
			<path style="fill:#FAAF41;" d="M17.5,22.9c11.3,4.5,20.7,3.6,26.9,2.8c3.8-0.5,10.5-15.1-8.6-9.7c-4.6,1.3-10.3,0.2-13-3
				C17.4,6.5,4.3,17.7,17.5,22.9z"/>
			<path style="fill:#FAAF41;" d="M38.4,59.9C52.5,55.5,60.8,47.6,66,42.1c3.2-3.3-1.4-22.3-15.5-2.6c-3.4,4.7-9.6,8.1-14.7,7
				C26,44.4,22.1,64.9,38.4,59.9z"/>
		</g>
	</g>
	<g>
		<path style="fill:#F79420;" d="M55.4,33.8c0,0-0.3,0.3-0.8,1c-0.5,0.6-1.2,1.5-2,2.6c-0.4,0.6-0.8,1.2-1.3,1.8
			c-0.2,0.3-0.4,0.7-0.7,1c-0.2,0.3-0.5,0.7-0.8,1c-0.6,0.7-1.2,1.3-1.9,1.9c-0.7,0.6-1.4,1.2-2.2,1.7s-1.6,0.9-2.5,1.3
			s-1.7,0.6-2.6,0.8c-0.9,0.2-1.7,0.3-2.5,0.3c-0.4,0-0.8,0-1.2-0.1s-0.7-0.1-1.1-0.2c-0.7-0.2-1.2-0.2-1.8-0.2
			c-0.5,0-1,0.1-1.4,0.2c-0.8,0.2-1.2,0.4-1.2,0.4s0.1-0.1,0.3-0.2c0.2-0.1,0.5-0.3,0.8-0.4c0.4-0.2,0.9-0.3,1.4-0.4
			c0.6-0.1,1.2-0.1,1.9,0s1.4,0.1,2.1,0.1c0.7-0.1,1.5-0.2,2.3-0.4s1.6-0.5,2.4-0.8c0.8-0.4,1.6-0.8,2.3-1.2c0.8-0.5,1.5-1,2.1-1.5
			c0.7-0.6,1.3-1.1,1.8-1.7c0.3-0.3,0.5-0.6,0.8-0.9s0.5-0.6,0.7-0.9c0.5-0.6,1-1.2,1.4-1.7C53.9,34.8,55.4,33.8,55.4,33.8z"/>
	</g>
</g>
</svg>
