<?xml version="1.0" encoding="utf-8"?>
<!-- Generator: Adobe Illustrator 18.1.1, SVG Export Plug-In . SVG Version: 6.00 Build 0)  -->
<!DOCTYPE svg PUBLIC "-//W3C//DTD SVG 1.1//EN" "http://www.w3.org/Graphics/SVG/1.1/DTD/svg11.dtd">
<svg version="1.1" id="Layer_1" xmlns="http://www.w3.org/2000/svg" xmlns:xlink="http://www.w3.org/1999/xlink" x="0px" y="0px"
	 width="71.1px" height="71.1px" viewBox="-63 65.9 71.1 71.1" style="enable-background:new -63 65.9 71.1 71.1;"
	 xml:space="preserve">
<style type="text/css">
	.st0{fill:none;stroke:#FBED21;stroke-width:1.2706;stroke-miterlimit:10;}
	.st1{fill:#FFFFFF;}
	.st2{fill:#BD202E;}
	.st3{fill:#3C2417;}
</style>
<g>
	<circle class="st0" cx="-23.7" cy="103.6" r="26.2"/>
	<g>
		<polygon class="st1" points="-34.7,110 -29.4,108.2 -24.1,106.4 -25.2,111.9 -26.3,117.4 -30.5,113.7 		"/>
		<polygon class="st1" points="-3.4,73.1 -4.2,78.6 -5.1,84.2 0.1,82.2 5.3,80.2 1,76.6 		"/>
		<g>
			
				<rect x="-13.5" y="84" transform="matrix(0.7638 0.6455 -0.6455 0.7638 53.8133 24.8219)" class="st2" width="12.9" height="3.9"/>
			<path class="st1" d="M0.4,87.2c0.9-1.1,0.8-2.8-0.3-3.7l-5.8-4.9c-1.1-0.9-2.8-0.8-3.7,0.3l-1.1,1.4l9.9,8.4L0.4,87.2z"/>
			<path class="st1" d="M-20,111.4l0.8-0.9l-9.9-8.4l-0.8,0.9c-0.9,1.1-0.8,2.8,0.3,3.7l5.8,4.9C-22.7,112.6-21,112.5-20,111.4z"/>
			
				<rect x="-21.4" y="85" transform="matrix(0.7638 0.6455 -0.6455 0.7638 58.0162 32.1915)" class="st3" width="12.9" height="20.7"/>
			
				<rect x="-29.4" y="102.8" transform="matrix(0.7638 0.6455 -0.6455 0.7638 62.2191 39.561)" class="st2" width="12.9" height="3.9"/>
		</g>
	</g>
	<g>
		<polygon class="st1" points="-54.6,100.1 -51.5,103.6 -48.4,107 -52.9,108 -57.4,108.9 -56,104.5 		"/>
		<polygon class="st1" points="-16.4,111.8 -20.9,112.9 -25.4,114.1 -22.2,117.4 -18.9,120.7 -17.7,116.3 		"/>
		<g>
			
				<rect x="-32.7" y="111.6" transform="matrix(-0.2909 0.9568 -0.9568 -0.2909 73.0704 172.3189)" class="st2" width="10.7" height="3.2"/>
			<path class="st1" d="M-25.9,119.2c1.2,0.4,2.4-0.3,2.7-1.5l1.8-6c0.4-1.2-0.3-2.4-1.5-2.7l-1.4-0.4l-3.1,10.2L-25.9,119.2z"/>
			<path class="st1" d="M-50.8,111.7l0.9,0.3l3.1-10.2l-0.9-0.3c-1.2-0.4-2.4,0.3-2.7,1.5l-1.8,6C-52.6,110.1-52,111.3-50.8,111.7z"
				/>
			<polygon class="st3" points="-27.3,118.8 -27.3,107.7 -43.7,102.7 -46.8,112.9 			"/>
			
				<rect x="-52.1" y="105.7" transform="matrix(-0.2909 0.9568 -0.9568 -0.2909 42.3044 183.2956)" class="st2" width="10.7" height="3.2"/>
		</g>
	</g>
	<g>
		<polygon class="st1" points="-19.3,126.5 -20.9,119.8 -22.4,113.2 -15.9,115.2 -9.3,117.1 -14.3,121.8 		"/>
		<polygon class="st1" points="-60.2,84 -53.7,85.8 -47.1,87.6 -48.8,81 -50.6,74.4 -55.4,79.2 		"/>
		<g>
			
				<rect x="-53" y="87.6" transform="matrix(0.7182 -0.6959 0.6959 0.7182 -75.3634 -6.0272)" class="st2" width="15.7" height="4.8"/>
			<path class="st1" d="M-42.6,81.3c-1.2-1.3-3.3-1.3-4.6-0.1l-6.7,6.5c-1.3,1.2-1.3,3.3-0.1,4.6l1.5,1.6l11.3-11L-42.6,81.3z"/>
			<path class="st1" d="M-15.9,108.9l-1-1l-11.3,11l1,1c1.2,1.3,3.3,1.3,4.6,0.1l6.7-6.5C-14.7,112.2-14.7,110.1-15.9,108.9z"/>
			
				<rect x="-42.5" y="88.2" transform="matrix(0.7182 -0.6959 0.6959 0.7182 -79.9223 4.2826)" class="st3" width="15.7" height="25.2"/>
			
				<rect x="-32.1" y="109.2" transform="matrix(0.7182 -0.6959 0.6959 0.7182 -84.4813 14.5923)" class="st2" width="15.7" height="4.8"/>
		</g>
	</g>
</g>
</svg>
