<?xml version="1.0" encoding="utf-8"?>
<!-- Generator: Adobe Illustrator 18.1.1, SVG Export Plug-In . SVG Version: 6.00 Build 0)  -->
<!DOCTYPE svg PUBLIC "-//W3C//DTD SVG 1.1//EN" "http://www.w3.org/Graphics/SVG/1.1/DTD/svg11.dtd">
<svg version="1.1" id="Layer_1" xmlns="http://www.w3.org/2000/svg" xmlns:xlink="http://www.w3.org/1999/xlink" x="0px" y="0px"
	 width="71.1px" height="71.1px" viewBox="-63 65.9 71.1 71.1" style="enable-background:new -63 65.9 71.1 71.1;"
	 xml:space="preserve">
<style type="text/css">
	.st0{fill:#27A8E0;}
	.st1{fill:none;stroke:#FBED21;stroke-width:1.2706;stroke-miterlimit:10;}
	.st2{fill:#F05A2A;}
</style>
<g>
	<path class="st0" d="M-48.4,93.9c-1.2-0.2-2.6,0.1-3.2,1.1c-0.7,1.1-0.7,2.4-0.6,3.7c0,0.4,0.1,0.9,0.3,1.2c0.3,0.5,1,0.7,1.6,0.9
		c1.8,0.5,4,0.7,5.4-0.5c1-0.9,1.3-2.5,0.7-3.7C-44.7,95.4-47.1,94.2-48.4,93.9z"/>
	<path class="st0" d="M-21.9,95.5c-1.4-0.2-2.8,0-3.5,0.9c-0.7,0.9-0.8,2-0.7,3.1c0,0.4,0.1,0.7,0.4,1c0.4,0.4,1.1,0.6,1.8,0.8
		c2,0.4,4.4,0.6,5.9-0.4c1.1-0.7,1.4-2.1,0.8-3.1S-20.5,95.7-21.9,95.5z"/>
	<path class="st0" d="M-12.8,87.7c-1.4-0.2-2.8,0-3.5,0.9c-0.7,0.9-0.8,2-0.7,3.1c0,0.4,0.1,0.7,0.4,1c0.4,0.4,1.1,0.6,1.8,0.8
		c2,0.4,4.4,0.6,5.9-0.4c1.1-0.7,1.4-2.1,0.8-3.1C-8.8,89-11.3,87.9-12.8,87.7z"/>
	<path class="st0" d="M-7.4,107.3c-0.8-1.1-1.9-2-3.1-1.9c-1.1,0.1-2,0.8-2.7,1.6c-0.2,0.3-0.5,0.6-0.5,1c-0.1,0.6,0.3,1.2,0.6,1.8
		c1.1,1.7,2.5,3.6,4.3,4c1.3,0.3,2.5-0.4,2.8-1.5C-5.7,111.1-6.6,108.5-7.4,107.3z"/>
	<path class="st0" d="M-29.9,81.1c-1-0.2-2.1,0-2.7,0.9c-0.6,0.9-0.6,2-0.5,3.1c0,0.4,0.1,0.7,0.3,1c0.3,0.4,0.8,0.6,1.3,0.8
		c1.5,0.4,3.3,0.6,4.5-0.4c0.8-0.7,1.1-2.1,0.6-3.1S-28.8,81.3-29.9,81.1z"/>
	<path class="st0" d="M-22.1,110.9c-1-0.2-2.1,0-2.7,0.9c-0.6,0.9-0.6,2-0.5,3.1c0,0.4,0.1,0.7,0.3,1c0.3,0.4,0.8,0.6,1.3,0.8
		c1.5,0.4,3.3,0.6,4.5-0.4c0.8-0.7,1.1-2.1,0.6-3.1C-19,112.2-21,111.1-22.1,110.9z"/>
	<path class="st0" d="M-37.4,112.4c-0.6-0.1-1.3,0-1.6,0.6c-0.3,0.5-0.4,1.2-0.3,1.9c0,0.2,0,0.4,0.2,0.6c0.2,0.3,0.5,0.4,0.8,0.5
		c0.9,0.2,2,0.4,2.7-0.3c0.5-0.5,0.7-1.2,0.4-1.9C-35.5,113.2-36.7,112.5-37.4,112.4z"/>
	<path class="st0" d="M-44,96.9c-0.6-0.1-1.3,0-1.6,0.6c-0.3,0.5-0.4,1.2-0.3,1.9c0,0.2,0,0.4,0.2,0.6c0.2,0.3,0.5,0.4,0.8,0.5
		c0.9,0.2,2,0.4,2.7-0.3c0.5-0.5,0.7-1.2,0.4-1.9C-42.2,97.7-43.3,97.1-44,96.9z"/>
	<path class="st0" d="M-33.3,121.5c-0.6-0.1-1.3,0-1.6,0.6s-0.4,1.2-0.3,1.9c0,0.2,0,0.4,0.2,0.6c0.2,0.3,0.5,0.4,0.8,0.5
		c0.9,0.2,2,0.4,2.7-0.3c0.5-0.5,0.7-1.2,0.4-1.9C-31.5,122.2-32.6,121.6-33.3,121.5z"/>
	<path class="st0" d="M-33.4,90.8c-1-0.2-2.1,0-2.7,0.9c-0.6,0.9-0.6,2-0.5,3.1c0,0.4,0.1,0.7,0.3,1c0.3,0.4,0.8,0.6,1.3,0.8
		c1.5,0.4,3.3,0.6,4.5-0.4c0.8-0.7,1.1-2.1,0.6-3.1C-30.4,92.1-32.3,91-33.4,90.8z"/>
	<circle class="st1" cx="-28.5" cy="101.6" r="26.2"/>
	<path class="st2" d="M-48.9,111.7c-1.2-0.2-2.6,0.1-3.2,1.1c-0.7,1.1-0.7,2.4-0.6,3.7c0,0.4,0.1,0.9,0.3,1.2c0.3,0.5,1,0.7,1.6,0.9
		c1.8,0.5,4,0.7,5.4-0.5c1-0.9,1.3-2.5,0.7-3.7C-45.2,113.2-47.6,112-48.9,111.7z"/>
	<path class="st2" d="M-32.4,99.3c-1.4-0.2-2.8,0-3.5,0.9c-0.7,0.9-0.8,2-0.7,3.1c0,0.4,0.1,0.7,0.4,1c0.4,0.4,1.1,0.6,1.8,0.8
		c2,0.4,4.4,0.6,5.9-0.4c1.1-0.7,1.4-2.1,0.8-3.1C-28.4,100.5-30.9,99.5-32.4,99.3z"/>
	<path class="st2" d="M-5.1,88.3c-1.4-0.2-2.8,0-3.5,0.9c-0.7,0.9-0.8,2-0.7,3.1c0,0.4,0.1,0.7,0.4,1c0.4,0.4,1.1,0.6,1.8,0.8
		c2,0.4,4.4,0.6,5.9-0.4c1.1-0.7,1.4-2.1,0.8-3.1C-1.1,89.6-3.7,88.5-5.1,88.3z"/>
	<path class="st2" d="M-15.3,77c-0.8-1.1-1.9-2-3.1-1.9c-1.1,0.1-2,0.8-2.7,1.6c-0.2,0.3-0.5,0.6-0.5,1c-0.1,0.6,0.3,1.2,0.6,1.8
		c1.1,1.7,2.5,3.6,4.3,4c1.3,0.3,2.5-0.4,2.8-1.5C-13.5,80.8-14.4,78.2-15.3,77z"/>
	<path class="st2" d="M-40.3,83.6c-1-0.2-2.1,0-2.7,0.9c-0.6,0.9-0.6,2-0.5,3.1c0,0.4,0.1,0.7,0.3,1c0.3,0.4,0.8,0.6,1.3,0.8
		c1.5,0.4,3.3,0.6,4.5-0.4c0.8-0.7,1.1-2.1,0.6-3.1C-37.3,84.8-39.2,83.8-40.3,83.6z"/>
	<path class="st2" d="M-18.3,113.8c-1-0.2-2.1,0-2.7,0.9s-0.6,2-0.5,3.1c0,0.4,0.1,0.7,0.3,1c0.3,0.4,0.8,0.6,1.3,0.8
		c1.5,0.4,3.3,0.6,4.5-0.4c0.8-0.7,1.1-2.1,0.6-3.1C-15.3,115.1-17.2,114-18.3,113.8z"/>
	<path class="st2" d="M-27,109.5c-0.6-0.1-1.3,0-1.6,0.6c-0.3,0.5-0.4,1.2-0.3,1.9c0,0.2,0,0.4,0.2,0.6c0.2,0.3,0.5,0.4,0.8,0.5
		c0.9,0.2,2,0.4,2.7-0.3c0.5-0.5,0.7-1.2,0.4-1.9C-25.1,110.2-26.3,109.6-27,109.5z"/>
	<path class="st2" d="M-41.6,100c-0.6-0.1-1.3,0-1.6,0.6c-0.3,0.5-0.4,1.2-0.3,1.9c0,0.2,0,0.4,0.2,0.6c0.2,0.3,0.5,0.4,0.8,0.5
		c0.9,0.2,2,0.4,2.7-0.3c0.5-0.5,0.7-1.2,0.4-1.9C-39.8,100.8-40.9,100.2-41.6,100z"/>
	<path class="st2" d="M-24.2,121.5c-0.6-0.1-1.3,0-1.6,0.6c-0.3,0.5-0.4,1.2-0.3,1.9c0,0.2,0,0.4,0.2,0.6c0.2,0.3,0.5,0.4,0.8,0.5
		c0.9,0.2,2,0.4,2.7-0.3c0.5-0.5,0.7-1.2,0.4-1.9C-22.3,122.2-23.5,121.6-24.2,121.5z"/>
	<path class="st2" d="M-13.1,100.7c-1-0.2-2.1,0-2.7,0.9c-0.6,0.9-0.6,2-0.5,3.1c0,0.4,0.1,0.7,0.3,1c0.3,0.4,0.8,0.6,1.3,0.8
		c1.5,0.4,3.3,0.6,4.5-0.4c0.8-0.7,1.1-2.1,0.6-3.1C-10,102-12,100.9-13.1,100.7z"/>
</g>
</svg>
