<?xml version="1.0" encoding="utf-8"?>
<!-- Generator: Adobe Illustrator 19.2.1, SVG Export Plug-In . SVG Version: 6.00 Build 0)  -->
<!DOCTYPE svg PUBLIC "-//W3C//DTD SVG 1.1//EN" "http://www.w3.org/Graphics/SVG/1.1/DTD/svg11.dtd">
<svg version="1.1" id="Layer_1" xmlns="http://www.w3.org/2000/svg" xmlns:xlink="http://www.w3.org/1999/xlink" x="0px" y="0px"
	 viewBox="0 0 507 112.6" style="enable-background:new 0 0 507 112.6;" xml:space="preserve">
<g>
	<polygon style="fill:#EE4137;" points="462,101.9 450,101.9 455.2,81.1 416.5,86.3 423.4,77.4 412.1,71.7 420,66.3 412.8,56.3 
		448.2,61.3 437,18.9 449,30.7 457,10.7 465.1,28.3 477,18.9 467.4,61.4 500.8,52.4 488,65.1 500.8,72.7 488,76.5 496,86.3 
		462,82.1 	"/>
	<polygon style="fill:#EE4137;" points="360.5,101.9 348.5,101.9 353.9,81.1 315,86.3 321.9,77.4 310.8,71.7 318.6,66.3 311.2,56.3 
		346.9,61.3 335.5,18.9 347.5,30.7 355.5,10.7 363.6,28.3 375.5,18.9 365.9,61.4 399.2,52.4 386.5,65.1 399.2,72.7 386.5,76.5 
		394.5,86.3 360.5,82.1 	"/>
	<polygon style="fill:#EE4137;" points="259,101.9 247.1,101.9 252.4,81.1 213.6,86.3 220.4,77.4 209.2,71.7 217.1,66.3 209.9,56.3 
		245.4,61.3 234.1,18.9 245.9,30.7 254.1,10.7 262.2,28.3 274,18.9 264.4,61.4 297.8,52.4 285,65.1 297.8,72.7 285,76.5 293.1,86.3 
		259,82.1 	"/>
	<polygon style="fill:#EE4137;" points="157.6,101.9 145.6,101.9 150.9,81.1 112.1,86.3 118.9,77.4 107.8,71.7 115.7,66.3 
		108.3,56.3 143.9,61.3 132.6,18.9 144.4,30.7 152.6,10.7 160.8,28.3 172.6,18.9 162.9,61.4 196.4,52.4 183.6,65.1 196.4,72.7 
		183.6,76.5 191.6,86.3 157.6,82.1 	"/>
	<polyline style="fill:#EE4137;" points="51.2,10.7 59.2,28.3 71.2,18.9 61.4,61.4 94.8,52.4 82.2,65.1 94.8,72.7 82.2,76.5 
		90.2,86.3 56.1,82.1 56.1,101.9 44.2,101.9 49.3,81.1 10.6,86.3 17.4,77.4 6.2,71.7 14.2,66.3 6.9,56.3 42.3,61.3 31.2,18.9 
		43.1,30.7 	"/>
	<g>
		<rect x="29.9" y="44.2" style="fill:#FFFFFF;" width="41.2" height="37.1"/>
		<g>
			<g>
				<g>
					<g>
						<path style="fill:#FFFFFF;" d="M75.1,81.1c-0.1,0.2,0.6,0.1,0.7,0.2C75.7,80.9,74.8,81.1,75.1,81.1z"/>
						<polygon style="fill:#FFFFFF;" points="73.6,77.3 73.8,77.4 73.2,76.8 						"/>
						<path style="fill:#FFFFFF;" d="M73.6,73.7c-1.1,0.3,0.2,1.3-0.2,1.9l-0.3,0.1L74,76C73.8,75.3,73.2,74.3,73.6,73.7z"/>
						<path style="fill:#FFFFFF;" d="M76.1,71.8c-0.4,0.1-0.4-0.4-0.1,0.4l0.1-0.1C75.9,72.1,75.9,72,76.1,71.8z"/>
						<path style="fill:#FFFFFF;" d="M76.1,72.2C76.1,72.6,76.3,71.9,76.1,72.2L76.1,72.2z"/>
						<path style="fill:#FFFFFF;" d="M75.8,70.4l0.4,0.5c0.3-0.1,0.3-0.5,0.5-0.4C76.4,70.1,76.2,70.2,75.8,70.4z"/>
						<path style="fill:#FFFFFF;" d="M74.9,70l0.2,0.3C75.2,70.2,75.2,70.1,74.9,70z"/>
						<path style="fill:#FFFFFF;" d="M75.4,70.8L75,70.3c-0.2,0.1-0.6,0.1,0.1,0.2C74.8,70.4,75.2,70.5,75.4,70.8z"/>
						<path style="fill:#FFFFFF;" d="M75.2,71.1c-0.2,0.3-0.4,0.6-0.8,0.1C74.7,72.2,75.4,72,75.2,71.1z"/>
						<path style="fill:#FFFFFF;" d="M72.3,73.5L72,73.9l0.4,0.3C72.2,74.1,72.8,73.5,72.3,73.5z"/>
						<path style="fill:#FFFFFF;" d="M76.3,67.4c-0.2,0-0.6,0.2-1,0.2l0.3,0.4C75.8,67.7,75.9,67.4,76.3,67.4z"/>
						<path style="fill:#FFFFFF;" d="M75.3,67.6l-0.4-0.5C74.9,67.5,75.2,67.6,75.3,67.6z"/>
						<polygon style="fill:#FFFFFF;" points="73.7,69.9 74.6,70.8 73.7,69.7 						"/>
						<polygon style="fill:#FFFFFF;" points="76.3,65.3 76.9,65.6 76.1,65 						"/>
						<path style="fill:#FFFFFF;" d="M76.2,63.9c0.5,0.2,0.8-0.3,1.1-0.1c-0.1-0.4-0.5-0.7-0.8-1C76.8,63.1,76.7,63.5,76.2,63.9z"/>
						<path style="fill:#FFFFFF;" d="M75.9,62.3c0.1,0.2,0.3,0.3,0.5,0.5C76.3,62.7,76.2,62.5,75.9,62.3z"/>
						<path style="fill:#FFFFFF;" d="M75.1,66.1c0.1,0,0.5-0.1,0.7-0.4l-0.7,0.2C75.1,65.9,75.1,66,75.1,66.1z"/>
						<path style="fill:#FFFFFF;" d="M75.1,65.9L75.1,65.9c0-0.2,0.1-0.4,0.1-0.5C75.2,65.5,75.2,65.6,75.1,65.9z"/>
						<path style="fill:#FFFFFF;" d="M75.1,66.1L75.1,66.1C75.1,66.1,74.9,66.1,75.1,66.1z"/>
						<path style="fill:#FFFFFF;" d="M74.2,68.5c-0.4-0.3-0.8-1-1.4-0.3C73.3,68.3,73.7,68,74.2,68.5z"/>
						<path style="fill:#FFFFFF;" d="M74.2,66.4L74.1,67c0.2,0,0.4-0.1,0.6,0L74.2,66.4z"/>
						<polygon style="fill:#FFFFFF;" points="74.1,66.1 74.2,66.4 74.2,66.2 						"/>
						<path style="fill:#FFFFFF;" d="M75.3,63.3C75,63,75,62.8,74.9,62.5c-0.1,0.3-0.2,0.7-0.2,1C74.9,63.5,75.3,63.7,75.3,63.3z"/>
						<path style="fill:#FFFFFF;" d="M75.2,64.6L75.2,64.6C75.1,64.5,75.1,64.6,75.2,64.6z"/>
						<path style="fill:#FFFFFF;" d="M74.9,59.4L74.9,59.4L74.9,59.4L74.9,59.4z"/>
						<path style="fill:#FFFFFF;" d="M74.7,63.6c-0.1,0.3,0,0.4,0.2,0.5c-0.1-0.2-0.1-0.4-0.1-0.6C74.7,63.5,74.7,63.5,74.7,63.6z"
							/>
						<path style="fill:#FFFFFF;" d="M75.7,61.5c-0.1,0.1-0.3,0.3-0.4,0.4C75.6,61.8,75.8,61.5,75.7,61.5z"/>
						<path style="fill:#FFFFFF;" d="M75.3,64.4C75.3,64.4,75.3,64.5,75.3,64.4C75.4,64.4,75.4,64.4,75.3,64.4z"/>
						<path style="fill:#FFFFFF;" d="M75.3,64.4c-0.1-0.1-0.3-0.2-0.4-0.3c0.1,0.2,0.1,0.3,0.2,0.4C75.2,64.5,75.2,64.5,75.3,64.4z"
							/>
						<path style="fill:#FFFFFF;" d="M70.6,58.5c0.6,0,1.2,0.7,0.5,1.3c0.5,0.6,2.6,0.2,3.7-0.3c-0.3,0-0.5,0-0.9-0.6
							c-0.3,0.2-0.8,1.3-1.4,0.8c-0.3-0.8,0.2-0.6,0.6-1c-0.8,0.3-1.1-1-2.3-0.8l0.4,0.7C71.1,58.6,70.8,58.3,70.6,58.5z"/>
						<path style="fill:#FFFFFF;" d="M74.8,60.6l0.1,0.2c0.1-0.3,0.4-0.5,0.9-0.8c-0.3-0.4-0.5-0.5-0.8-0.5L74.8,60.6L74.8,60.6z"/>
						<path style="fill:#FFFFFF;" d="M74.8,61.9c-0.7-0.2-1-0.8-1.7-0.4c0,0.7,0.6,0.5,0.9,0.9C73.8,61.3,74.3,62.7,74.8,61.9
							c0,0.2,0.1,0.4,0.1,0.6c0.1-0.2,0.2-0.4,0.3-0.6l0,0l0,0l0,0c-0.1,0-0.1,0.1-0.1,0l0,0C75.1,61.9,74.9,61.9,74.8,61.9
							c0.1-0.3,0.2-0.1,0.3,0.1h0.1l0,0l-0.4-1.1C74.8,61.1,74.8,61.4,74.8,61.9z"/>
						<path style="fill:#FFFFFF;" d="M71.4,67.5c0.1,0,0.1,0,0.2,0C71.4,67.4,71.4,67.4,71.4,67.5z"/>
						<path style="fill:#FFFFFF;" d="M71.8,67.1c0.1,0.1,0.4,0.1,0.3,0.4c-0.2,0.2-0.3,0-0.6,0c0.2,0.2,0.5,0.6,0.8,0.1l-0.1-0.1
							c0.2-0.5,1.1-1,1.2-1C72.8,66.6,72.4,66.8,71.8,67.1z"/>
						<path style="fill:#FFFFFF;" d="M73.2,64.4l-0.3-0.9L72.2,64h0.4C72.4,64.5,72.9,64.4,73.2,64.4z"/>
						<polygon style="fill:#FFFFFF;" points="75.3,59.3 76.1,59.5 75.1,58.9 						"/>
						<polygon style="fill:#FFFFFF;" points="75.2,58.1 75.8,58.2 75.4,57.8 						"/>
						<path style="fill:#FFFFFF;" d="M33.8,57.5l0.2,0.3C33.8,57.7,33.8,57.6,33.8,57.5z"/>
						<path style="fill:#FFFFFF;" d="M33.8,55.5h-0.3C33.7,55.6,33.8,55.6,33.8,55.5z"/>
						<path style="fill:#FFFFFF;" d="M55.3,40.2c-0.4-0.6-0.8-1.5-0.8-0.8l0.1,0.7C54.9,40,55.2,40.1,55.3,40.2z"/>
						<path style="fill:#FFFFFF;" d="M34.9,44.3c0,0.1,0.1,0.1,0.2,0.2c0-0.2,0.1-0.5,0.2-0.7C35.2,44,35.1,44.2,34.9,44.3z"/>
						<path style="fill:#FFFFFF;" d="M35.3,47.2c0,0-0.1-0.1-0.2-0.2S35,46.8,35,46.8C35.1,46.9,35.2,47.1,35.3,47.2z"/>
						<path style="fill:#FFFFFF;" d="M34.4,68.4l0.7,0.3C35.2,68.2,34.8,68.4,34.4,68.4z"/>
						<path style="fill:#FFFFFF;" d="M74.9,42.8c0.3-0.8,0.4-1.3,0.4-1.8C74.9,42.1,74.3,43.1,74.9,42.8z"/>
						<path style="fill:#FFFFFF;" d="M26.3,56.7c0.1,0.2,0.3,0.2,0.4,0.2C26.7,56.8,26.6,56.7,26.3,56.7z"/>
						<path style="fill:#FFFFFF;" d="M74.8,40c0,0.1,0.1,0.1,0.1,0.2c0.1,0,0.2,0,0.4-0.1c0.1,0.2,0.1,0.6,0.1,1
							c0.2-0.5,0.3-1,0.3-1.4C75.4,39.7,75.2,39.8,74.8,40z"/>
						<path style="fill:#FFFFFF;" d="M56.3,77.3C56.4,77.4,56.4,77.4,56.3,77.3C56.4,77.3,56.4,77.3,56.3,77.3z"/>
						<path style="fill:#FFFFFF;" d="M67.8,84.3c-0.1,0-0.3,0-0.5,0.1C67.4,84.4,67.7,84.4,67.8,84.3z"/>
						<path style="fill:#FFFFFF;" d="M75.6,53.2C75.6,53.5,75.7,53.3,75.6,53.2L75.6,53.2z"/>
						<path style="fill:#FFFFFF;" d="M72.8,54.5c-0.1-0.1-0.2-0.1-0.3-0.1C72.7,54.4,72.8,54.4,72.8,54.5z"/>
						<path style="fill:#FFFFFF;" d="M68.2,44.3L68.2,44.3C68.2,44.4,68.2,44.4,68.2,44.3z"/>
						<path style="fill:#FFFFFF;" d="M75.2,53.6c0.1-0.1,0.2-0.2,0.2-0.3C75.3,53.3,75.3,53.4,75.2,53.6z"/>
						<path style="fill:#FFFFFF;" d="M75.6,53.6c0,0.1,0,0.2-0.1,0.2C75.6,53.8,75.7,53.8,75.6,53.6z"/>
						<path style="fill:#FFFFFF;" d="M75.4,52.9c0,0.1,0,0.3-0.1,0.4c0-0.1,0.1-0.1,0.1-0.1C75.6,53.2,75.6,53.1,75.4,52.9z"/>
						<path style="fill:#FFFFFF;" d="M35.6,79.2L35.6,79.2C35.8,79,35.8,79,35.6,79.2z"/>
						<path style="fill:#FFFFFF;" d="M48.6,47.4C48.7,47.4,48.7,47.4,48.6,47.4L48.6,47.4L48.6,47.4z"/>
						<path style="fill:#FFFFFF;" d="M47.7,47.9c0.4-0.9,0.6-0.8,0.9-0.6l-0.3-2L47.7,47.9z"/>
						<path style="fill:#FFFFFF;" d="M33.9,62.3l0.6-0.6c1,0.8,0.7,1.4,1.5,0.7c-2.2-0.1-0.2-2.5-2.4-2.6l0.5-0.4
							c0,0.1,0.1,0.1,0.1,0.3c1-0.8-1.6-0.6-1.3-1.7c0.2-0.4,0.5-0.6,0.7-0.4l-0.5-0.8c0-0.2,0.4-0.2,0.4,0.1l-0.2-1.3h0.1
							c-0.3-0.2-0.9-0.6-1.1-0.8c0.3-0.3,0.2,0.2,0.5,0.1l-0.5-0.7c0.6-0.3,1.1,0.3,1,0.8c2.2-0.7-0.5-0.6,0.7-2l0.3,0.7
							c1.2-0.4,0.8-0.9,1.6-1.7c-0.4,0.2-1.9,1.5-2.5,0.7c0.2-0.2,0.2-0.5-0.2-0.9c0.8,0,0.6-0.4,0.5-0.9h1
							c-0.3-0.6-0.8-0.4-1.3-0.6c0.1-0.3,0.9-0.2,1.6,0c0.1-0.1-0.2-0.1-0.6-0.2s-0.8-0.1-0.9-0.3c0.4-0.2,0-0.5-0.6-1.4
							c0.4,0,0.6,0.5,0.9,0.6c0,0-0.2-0.2-0.4-0.4c-0.2-0.2-0.4-0.4-0.4-0.4s0.3,0.2,0.4,0.3c-0.3-0.4-1-0.8-1.3-1.4
							c-0.5-0.5-0.2-0.5,0.1-0.3c0.7,0.4,1.4,1,1.1,0.3c0.3,0.3,0.4,0.6,0.8,1c-0.1-0.4,0-0.6,0-0.8c0-0.2,0-0.4,0-1l0.8,0.7
							c-0.6-0.8-0.5-1.7,0-2.4c-0.3-0.4-0.5-0.7-0.7-0.8l1.1-0.5c0.2,0.2,0.1,0.5-0.1,0.9c0.1-0.1,0.1-0.2,0.2-0.2
							c0.4,0.4,0.2,1,0.1,1.5c-0.1-0.2-0.3-0.4-0.4-0.6c-0.1,0.6-0.1,1.3,0.1,1.9c0-0.1,0.1-0.2,0.2-0.3c0,0.2,0,0.3,0,0.4
							s0.1-0.1,0.1-0.4c0,0,0.1,0.3,0.2,0.6c0.1,0.3,0.1,0.6,0.1,0.6v-0.5c0,0,0.2,0.2,0.4,0.4c0.3,0.2,0.7,0.4,0.7,0.4
							c1-1.1,1.8-2.8,3.3-3.3c-0.4,0.8-0.1,1.4-0.1,2.4c-0.4-1-1.2,0.4-2,0.2c0.4,0.1,0.3,0.6,0.2,0.7l1.4-1c0,0.8,0.3,0.6,0.7,0.9
							c-0.3-1.6,1.1-1.1,1.6-1.6c0,0.5-0.1,1.1-0.8,1c0.8,1.2,1-1.9,1.8-0.9c-0.2,0-0.3-0.1-0.3,0.2c0.4-0.5,1.4-0.1,1.2,0.4h-0.2
							c1.1,0.2,3.5,0,3.7-1.3c0,0.2-0.1,1.6-0.2,1.9l2-4.6c-0.2,1.2,0.5,3.9-0.4,4.6c0.3,0.2,0.6,0.4,1.2-0.1
							c-0.2-0.2-0.5-1.7-0.2-1.8c0.7,1.3,0.5,0.7,1.3,1.8c-0.3-0.3,0-2.1,0.5-2c-0.1,0.3,0,1.8-0.1,2l1.1-1.8c-0.3,0.3,0,1.5,0.2,2
							c-0.1-0.4,0.9,0,1.2-0.1l-0.5-0.4c1.2,0.3,1.2-2.5,2.4-2.4c-0.1,0.4-0.4,2.3,0.3,2.5c0.3-0.9,1.3-4.4,2.4-5.1l0.2,0.5l0.8-0.6
							c-0.5,1.4-2,4.3-2.8,5.4c0.5,0.4,0.1,0.6,0.8,0.6c0.2,0.5-0.4,0.7-0.6,0.8l1.6,0.3c-0.1-1.1,1.2-1.1,1.2-2L58,48.3
							c-0.1-1.1,1-3,2.2-2.9c0.3,0.4-0.2,1.9-0.2,2.3c0.1-0.4,1.1-0.7,1.2-0.4l-0.5,0.6c0.6,0.4,1-1.4,1.8-0.4
							c0.3,0.1,0.8,1.4,0.8,0.7c-0.4-1.2-0.5-5-0.2-5.9c0.1,0.1,1.4,1.2,1.7,1.8c0.4,1-0.7,2.3-0.3,3.1c0-0.3,0.3-0.7,0.4-0.8
							c0.1,0.1,0.1,0.4,0.1,0.5c0,0.2,0.1,0.3,0.2,0.2c0.1-1.1,0.8,0.1,0.2-0.9c0.5-0.3,0.4,0.2,0.9,0.2c0-0.4,0.3-0.9,0.7-1.5
							c0.4-0.5,1-1,1.4-1.2c-0.2,0.3-0.2,0.6-0.2,0.8c1.1,0.1,1.4,0.6,2.3,0.6c0,0,0,0,0,0.1c-0.3,0.4-0.6,1.1-1.1,1.3
							c0.2-0.1,0.6-0.3,0.6,0c-0.9,1.3-0.1-0.5-1.3,0.9c0.6-0.5,0.9-0.1,1.3,0c1-0.8,0.2-1.2-0.2-1.1c0.7-0.6,1.4-1,2-1.1
							s1.1,0.2,1.4,0.8c0.3,1.1-0.9,1-0.7,1.1c-0.1,1.1,0.5,1.4,1,1.7c0.5,0.3,0.9,0.8,0.4,1.9c-0.9,0.6-1.7,0-2.3,0.2
							c-0.3-0.7,0.5-1.3,0.5-1.9c0,0-0.1,0.2-0.2,0.4c-0.1,0.2-0.2,0.4-0.2,0.4c-0.3-0.2-0.5-0.7-0.3-1c-0.4,0.4-0.4,1.1-0.5,1.9
							c0,0.8-0.1,1.8-0.4,2.5c0.3,0.2,0.6,0.7,0.9,0.5l-0.1-0.4c0.7-0.4,1,0.8,1.3,0.3c0.5,0.6,1.3,1.2,0.9,2l-1,0.2
							c0.3,0,0.6-0.5,0.3-0.8c0.4,0.3-1.3,1.2,0,1.6l0.7-0.6c0.5,0.6,1.5,1.3,1.2,2c1-0.3-0.1-0.2,1-0.7c-1.4,0.4,0.1-1.8-1.4-1.1
							c1.3-0.5,0.6-0.9,1.7-1.6c-0.3,0-0.6,0.2-0.5-0.4c-0.1,0-0.2-0.1-0.3-0.1l0,0l0,0c0,0-0.1,0,0,0c-0.1,0.1-0.3,0.3-0.5,0.3
							c-0.7-0.3-0.7-1.3-1.1-1.6c0.2-0.4,0.4,0.1,0.7,0l-0.6-0.5c0.7,0,1.2-1,1.6-0.1v-0.8c0.1-0.1,0.2-0.2,0.3-0.4
							c0-0.1,0.1-0.1,0.1-0.2s0-0.1,0.1-0.3c0.1-0.4,0-0.9-0.1-1.2c0.2-0.7-0.8-1.4-0.2-1l-0.4-1.8l0.2-0.1c0-0.9-0.2-1.8-0.4-2.6
							c-0.2-0.8-0.2-1.7,0.3-3.2c0,0-0.1-0.1-0.1-0.2c-0.8,0.2-1.7,0.4-2.6,0.2l0.2-0.6c-0.5,0.1-1.1,0-1.6-0.1s-1.1-0.1-1.4,0.2
							c-0.1-0.8-1.3-0.9-2.5-0.8c-0.6,0-1.3,0.1-1.8,0.2h-0.2h-0.1c-0.1,0-0.1,0-0.2,0s-0.3,0-0.4,0v0.8c-0.6,0-1.2,0.2-2,0.5v0.7
							c-0.7,0.6-1.7-0.5-2.7-0.4c0.1-0.3,0.3-0.2,0.5,0c-1.2-1.6-2.6,1.2-3.7,0c-0.3,0.3-0.5,0.2-0.7,0c0,0,0,0,0.1,0h-0.1
							c-0.1-0.1-0.3-0.3-0.4-0.4c0.1,0.2,0.2,0.3,0.3,0.4c-0.2,0-0.5,0.1-0.9,0.3l-0.1-0.8c0,0,0,0-0.1,0c-0.3-0.3-0.3,0.4-0.1,0.9
							c-0.2,0.1-0.3,0.3-0.4,0.5c-0.3-1.2-0.8,0.4-1.2-0.9c-0.2,0.6-1.6,0.5-1.8,1.8c0-0.2-0.1-0.3,0.1-0.3c-0.4-0.2-0.7-0.3-1,0.1
							l-0.2-1L49.3,43c-0.5-0.6-0.7-0.9-0.2-1.7c-1.1,1.2-0.9,0.4-1.9,1.6v-0.6c-0.3,0-0.9,0.9-1.1,0.3c-0.8-1.2-3.8-0.2-5.8-1.3
							c0.4,1.9-0.9-0.8-1,0.6c-0.1-0.4-0.4-0.7-0.1-1.1c-1,0.4-1.5-0.7-2.2,0.5c-0.1-0.4,0.2-0.6,0.1-0.9c-0.1,0.1-0.3,0.4-0.4,0.1
							s0.1-0.4,0.3-0.6c-0.5,0-0.8,0.4-1.1,0.9c-0.2,0.5-0.3,1.2-0.3,1.8c-0.7-0.6-1.2-0.5-1.4,0.3c-0.3-0.4-0.9-0.9,0-1
							c-0.5-0.1-3.5-0.6-2.9,0.4c-0.3-0.3-0.7-0.1-0.8,0c-1.1-0.1-1.3-0.2-2.3-0.1l0.5,0.2C29,42.8,29,43,28.9,43
							c0.1,0.3-0.3,0.4-0.2,1l-0.1-0.1c-0.4,0.6-0.3,0.9-0.2,1.2c0.1,0.3,0.2,0.5-0.3,1.2l0.8,0.3c0.8,0.5,0.6,0.7,0.2,1.1
							c-0.4,0.3-0.9,0.9-0.6,1.5c0,0,0.1-0.1,0.2-0.2s0.2-0.1,0.2-0.1c0.3,0.3-0.3,0.6-0.9,1c-0.3,0.2-0.7,0.4-1,0.6
							s-0.5,0.3-0.5,0.4c-0.1,0.1-0.2-0.2-0.3-0.3c-1,1.2,1,0.2,1.2,1.1c-0.5,0.2-1.4-0.2-1.5,0.4c-0.4,0.3,1.8,1.8,0.7,2.6
							c0.4-0.2,0.8-0.4,1.1,0.1c0.1,0.6-1.6,1.7-0.3,2.3c-0.1,0.1-0.2,0.1-0.3,0.1c0.3,0.5,0.6,1.6,1.3,1.9
							c-2.6,0.5,1.3,3.1-1.2,3.1l0.1,1.5h-0.2c-0.2,1,0.4,1.3,1,1.7c-0.2,0.2-0.4,0.1-0.5,0c-0.5,1.4-0.4,1.6,0.8,2.7l-0.8,0.1
							c0.5,0.3-1.2,2-0.3,3.4c-0.1,0-0.2,0-0.4-0.2c0.5,0.8-0.1,1.7-0.4,2.5c-0.2,0.4-0.2,0.8-0.1,1.1c0.1,0.2,0.5,0.7,1.2,0.9
							l0.7,1.3c0.1-0.9,0.4-0.9,0.8-0.7c0.3,0.1,0.7,0.3,1,0c0.1,0.3-0.1,0.6-0.4,0.9s-0.6,0.5-0.6,0.1l0.1-0.2
							c-0.8,0.1-0.9,0.6-1,1.2s-0.1,1.2-0.6,1.5c0,1.3-0.1,2.7-0.2,4.2c2.1,0.2,4.4,0.6,6.8,0.6c0,0,0-0.3-0.1-0.6
							c0-0.3-0.1-0.6-0.1-0.6l1.2,0.1c0.3,0.3,0.4,0.9-0.6,0.9c0.2,0.3,0.6,0.2,1-0.1c0.4-0.3,0.6-0.6,0.6-0.7
							c0.6,0.2,0.5,0.6,0.3,0.9c-0.1,0.3-0.8,0.5-0.4,0.5c0,0,0.2,0,0.3,0c0.1,0,0.2,0,0.2,0l-0.1-0.1c0.4-0.5,0.4-1,1.2-0.9
							c0.5,0.2,0.2,0.7,0.4,0.8c0,0.1,0.1,0.1,0.3,0l1.1,0.1l-0.4-0.9c0.5-0.5,1,0,0.5-1c0.7,1.6,4,0.6,4.5,1.1
							c0.7-0.7,1.3-0.7,2.2-0.6c-0.2-0.2-0.3-1.2,0.4-1.1c-0.3,2.1,1.3,0.9,1.9,2.5c-0.5-1,2-0.3,1.2-1.7c0.6,0.2,0,0.8,0.5,1.3
							c1.4-0.8,3.1,0.5,4.8,0.3c0-0.3-0.3-0.7,0.1-1.1l0.9,1.4c0.3-0.1,0.3-1.6,0.9-0.6c-0.1-0.2-0.2-0.6,0-0.7
							c3.4,1.4,7-1.1,10.4,1.5c-0.5-0.5-0.2-0.6,0.2-0.6c-0.2-0.1,0-0.7,0-1.1l1.4,1.1c0.3-1.1,1.6-0.1,1.7-1.1L70.2,84
							c0.6-1.2-0.9-2.6-0.8-4.2c-0.7,1.4-1.8-2-2.9-0.1c-0.2-0.3,0.2-0.5,0.1-0.8c-0.3,0.7-0.6,0.8-1.3,0.5l0.1-0.2
							c-1.8,0.2-2.5-0.5-4.6-0.9l0.1,0.8c-0.4-0.1-0.5-0.3-0.7-0.5c-0.5,1.1,1.2,0.1,0.8,1.3c-0.6-1.5-3,0-3.4-1.8
							c-0.7,0,0.2,0.9-0.5,0.9l-0.2-0.5l-0.2,0.6C56.3,79,56,78.4,56,78c0.1,0,0.3-0.1,0.4-0.1c-0.6-0.6-1.6,0.2-1.8,0l0.6,0.3
							c-1.8,0.4-4-0.2-5.8,0.8l0.1,0.4c-1.3,0.7-1.1-0.4-2.5-0.1l0.1-0.1c-0.3,0.4-0.7,0.5-1.1,0.5c0.4-0.4-0.7-0.8-0.2-1.3
							c-1.4,0.7-0.7,0.6-1.7,1.9l-0.2-0.6c-0.3,0.5-0.4,0.8-1.1,1c0.6-0.5-0.5-0.9,0.2-1.6c-1.5-1.3-2.3,1.3-3-0.6
							c-0.7,1.6,1.3,0.9,0.9,1.3c0.3,0.5-0.6,1.2-1.1,1.1c-0.5,0-0.8-2.1-2.1-2.1c0.1,0,0.1-0.1,0.3-0.1c-0.5-0.4-0.9,0.6-1.5-0.1
							c-0.2,0.5-0.3,0.5-0.5,0.5c-0.1,0-0.2,0.1-0.2,0.7c-0.1,0,1-0.3,1-0.3c-0.7,0.3-1.2,1.8-2,1.1c0.1-0.3,0.4-0.6,0.6-0.8
							c-0.1-0.4-0.4,0.2-0.6-0.1c0.2-0.6,0.4-0.7,0.6-0.7c0.1,0,0.2,0,0.3-0.1c0.1,0,0.1-0.1,0.2-0.1c0.1-0.1,0.2-0.2,0.3-0.3
							c-0.1-0.1-0.2-0.1-0.3-0.1c-0.1,0-0.1,0.1-0.2,0.2s-0.2,0.1,0-0.5c-0.2,0.9-0.4,0.8-0.5,0.7c-0.2-0.1-0.2-0.3-0.7,0.4l0.4-0.8
							c-0.1,0.1-0.4,0.5-0.5,0.5c0,0,0.2-0.2,0.4-0.5c0.2-0.2,0.3-0.5,0.3-0.5c-0.3,0.4-0.4,0.2-0.3,0c0-0.2,0.2-0.5-0.1-0.3
							c0.2,0,0.1,0.2-0.1,0.5s-0.5,0.7-0.5,0.9c-1.5,0.9,0.4-1.3,0.4-1.6c0-0.1,0-0.1,0-0.2c0.1,0-0.1,0.2-0.3,0.5
							c-0.1,0.2-0.3,0.3-0.5,0.5l0,0c0.2-0.3,0.4-0.7,0.8-1.1c-0.1-0.1-0.3,0-0.5,0.3c-0.2,0.2-0.5,0.5-0.7,0.6
							c0.9-0.9-0.4,0-0.7-0.1l0.8-0.5c0.5-0.9-1.6,0.6-1-0.4l1.1-0.1l-0.3-0.2l0.9-0.2c-0.7-0.1-0.5-0.3-0.2-0.5
							c-0.3,0-0.6,0.1-0.9,0c-0.1,0-0.3-0.1-0.4-0.1c-0.1-0.1-0.2-0.2-0.2-0.4c0.5-0.4,0.7,0.2,0.6-0.6c0.5,0.2,1.1,0.4,0.4,0.8
							c0.3,0,0.5,0.2,0.7,0.2c0.5-0.5,0.1-1.2,0.1-1.5c0,0.1-0.1,0.3-0.2,0.3l-1.1-1.3c0.3-0.2,0.5,0,0.7,0.1
							c-0.1-0.3-0.4-0.4-0.5-0.8c0.6,0.1,1.3,0.1,1.6,0.6L34,72.1c0.3-0.1,0.7-0.6,1-0.5c0.4-0.7-1.2-1.7-0.7-2.6
							c-0.1,0-0.2-0.1-0.3-0.3c0.1-0.8,0.9-1.6,0.1-2.6l1.1-0.6c-0.3-0.8-1.4,0.8-1.8-0.5c-0.4-0.9,1-0.3,1.3-0.7
							c-0.6-0.5-1.7-1.3-0.8-2.1C34.1,61.8,33.8,62,33.9,62.3z M33.4,52.6c0.2,0.2,0.7,0.6,0.2,0.7C32.8,53.1,33.2,52.9,33.4,52.6z
							 M36.3,45.8c-0.2,0.3-0.3,0.1-0.5-0.2C35.9,45.6,36.1,45.6,36.3,45.8z M74.9,50.4C74.8,50.4,74.8,50.4,74.9,50.4
							c0.1-0.3,0.2-0.5,0.1-0.4C75.1,50,74.9,50.3,74.9,50.4z M74.6,51.3c0.1,0.1,0.2,0.1,0.3,0c-0.2-0.1-0.2-0.3-0.2-0.5
							C74.6,50.9,74.3,51,74.6,51.3z M38.1,84.4l-0.2-0.2C38.2,84,38.2,84.2,38.1,84.4z"/>
						<path style="fill:#FFFFFF;" d="M35.2,46.9c-0.1-0.1-0.1-0.3-0.2-0.4C35.2,46.6,35.2,46.7,35.2,46.9z"/>
						<path style="fill:#FFFFFF;" d="M34.3,68.3L34.3,68.3l0.1,0.1L34.3,68.3z"/>
						<path style="fill:#FFFFFF;" d="M64.8,47.3c-0.2-0.1-0.3-0.3-0.3-0.4C64.4,47.1,64.6,47.3,64.8,47.3z"/>
						<path style="fill:#FFFFFF;" d="M75.8,55.9l-0.2-0.6c0,0.3-0.1,0.4-0.3,0.5C75.7,55.8,75.8,55.7,75.8,55.9z"/>
						<path style="fill:#FFFFFF;" d="M71.2,60.7c0.1,0.1,0,0.2,0.1,0.3h0.4C71.6,60.6,71.2,60.4,71.2,60.7z"/>
						<path style="fill:#FFFFFF;" d="M73.3,56.4c-0.6,0-0.4,0.4-0.3,0.8c0,0,0,0,0-0.1C73.9,57.2,73.7,56.8,73.3,56.4z"/>
						<path style="fill:#FFFFFF;" d="M73.1,57.3c0,0.1,0,0.2,0,0.4C73.4,57.7,73.2,57.5,73.1,57.3z"/>
						<path style="fill:#FFFFFF;" d="M75.1,52.4c-0.2,0.2,0.8,0.1,0.6,0.2C76.3,52.8,74.6,51.4,75.1,52.4z"/>
						<polygon style="fill:#FFFFFF;" points="71.2,56.7 71.9,56.6 71.3,56.4 						"/>
						<path style="fill:#FFFFFF;" d="M71.8,53.6l-0.2,0.6c0.1,0,0.2,0.1,0.3,0.2C71.8,54.1,72.1,53.6,71.8,53.6z"/>
						<path style="fill:#FFFFFF;" d="M71.8,54.4c0,0.2,0,0.4,0.1,0.5C71.9,54.8,71.9,54.6,71.8,54.4z"/>
						<polygon style="fill:#FFFFFF;" points="70.9,55.9 71.2,55.7 71.2,55.3 						"/>
						<path style="fill:#FFFFFF;" d="M71.9,46.5l-0.2-0.6c-0.3,0.1-0.4,0.4-0.3,0.6C71.6,46.6,71.7,46.8,71.9,46.5z"/>
						<path style="fill:#FFFFFF;" d="M69.8,49.3c0.2-0.2,0.3-0.2,0.6-0.4l-1,0.3c0,0,0.1,0,0.2,0.1C69.7,49.3,69.8,49.3,69.8,49.3z"
							/>
						<path style="fill:#FFFFFF;" d="M69.6,47.9c-0.3,0.1-0.8-0.2-0.7,0.3C69.1,48.1,69.2,48.5,69.6,47.9z"/>
						<polygon style="fill:#FFFFFF;" points="63.8,44.6 63.9,44.6 63.8,43 						"/>
						<path style="fill:#FFFFFF;" d="M54.7,48.5c0.8,0.4,0.2-1,0.9-0.5c0.2-0.4-0.6-0.4-0.4-0.7C54.8,47.7,54.4,47.4,54.7,48.5z"/>
						<path style="fill:#FFFFFF;" d="M55.2,47.2c0.1-0.1,0.2-0.1,0.2-0.2C55.3,47.1,55.2,47.2,55.2,47.2z"/>
						<polygon style="fill:#FFFFFF;" points="69.8,85.2 70.2,85.6 69.9,85 						"/>
						<path style="fill:#FFFFFF;" d="M70.8,84l0.1,1l0.3-0.9C71.1,84.1,70.8,84.2,70.8,84z"/>
						<path style="fill:#FFFFFF;" d="M35.6,51.1h-0.2c-0.3,0.1-0.3,0.2-0.3,0.4L35.6,51.1z"/>
						<polygon style="fill:#FFFFFF;" points="34.8,58.2 34.8,58 33.8,58.3 						"/>
						<path style="fill:#FFFFFF;" d="M35.9,64.1c0-0.2-0.2-0.5-0.1-0.8C35.9,63.8,34.8,64.1,35.9,64.1z"/>
					</g>
				</g>
			</g>
		</g>
	</g>
</g>
</svg>
