<?xml version="1.0" encoding="utf-8"?>
<!-- Generator: Adobe Illustrator 18.1.1, SVG Export Plug-In . SVG Version: 6.00 Build 0)  -->
<!DOCTYPE svg PUBLIC "-//W3C//DTD SVG 1.1//EN" "http://www.w3.org/Graphics/SVG/1.1/DTD/svg11.dtd">
<svg version="1.1" id="Layer_1" xmlns="http://www.w3.org/2000/svg" xmlns:xlink="http://www.w3.org/1999/xlink" x="0px" y="0px"
	 width="507px" height="112.6px" viewBox="-142 251.8 507 112.6" style="enable-background:new -142 251.8 507 112.6;"
	 xml:space="preserve">
<style type="text/css">
	.st0{fill:#EE4137;}
	.st1{fill:#FFFFFF;}
</style>
<g>
	<polygon class="st0" points="321.2,352.6 309.3,352.6 314.5,331.8 275.7,337 282.6,328.1 271.4,322.4 279.3,317 272,307 307.5,312 
		296.3,269.6 308.2,281.4 316.3,261.4 324.4,279 336.3,269.6 326.6,312.1 360,303.1 347.3,315.8 360,323.4 347.3,327.2 355.3,337 
		321.2,332.8 	"/>
	<polygon class="st0" points="219.7,352.6 207.8,352.6 213.1,331.8 174.3,337 181.1,328.1 170,322.4 177.9,317 170.5,307 206.1,312 
		194.8,269.6 206.7,281.4 214.8,261.4 222.9,279 234.8,269.6 225.1,312.1 258.5,303.1 245.8,315.8 258.5,323.4 245.8,327.2 
		253.8,337 219.7,332.8 	"/>
	<polygon class="st0" points="118.2,352.6 106.3,352.6 111.6,331.8 72.8,337 79.6,328.1 68.5,322.4 76.4,317 69.1,307 104.6,312 
		93.3,269.6 105.2,281.4 113.3,261.4 121.5,279 133.3,269.6 123.6,312.1 157,303.1 144.3,315.8 157,323.4 144.3,327.2 152.4,337 
		118.2,332.8 	"/>
	<polygon class="st0" points="16.8,352.6 4.9,352.6 10.1,331.8 -28.7,337 -21.8,328.1 -33,322.4 -25.1,317 -32.4,307 3.1,312 
		-8.2,269.6 3.7,281.4 11.9,261.4 20,279 31.9,269.6 22.1,312.1 55.6,303.1 42.8,315.8 55.6,323.4 42.8,327.2 50.9,337 16.8,332.8 	
		"/>
	<polyline class="st0" points="-89.6,261.4 -81.5,279 -69.6,269.6 -79.3,312.1 -45.9,303.1 -58.6,315.8 -45.9,323.4 -58.6,327.2 
		-50.6,337 -84.7,332.8 -84.7,352.6 -96.6,352.6 -91.4,331.8 -130.2,337 -123.3,328.1 -134.5,322.4 -126.6,317 -133.9,307 
		-98.4,312 -109.6,269.6 -97.7,281.4 	"/>
	<g>
		<rect x="-110.8" y="294.9" class="st1" width="41.2" height="37.1"/>
		<g>
			<g>
				<g>
					<g>
						<path class="st1" d="M-65.7,331.8c-0.1,0.2,0.6,0.1,0.7,0.2C-65.1,331.6-65.9,331.8-65.7,331.8z"/>
						<polygon class="st1" points="-67.2,328 -66.9,328.1 -67.6,327.5 						"/>
						<path class="st1" d="M-67.2,324.4c-1.1,0.3,0.2,1.3-0.2,1.9l-0.3,0.1l0.9,0.3C-66.9,326-67.5,325-67.2,324.4z"/>
						<path class="st1" d="M-64.7,322.5c-0.4,0.1-0.4-0.4-0.1,0.4c0,0,0.1-0.1,0.1-0.1C-64.8,322.8-64.8,322.7-64.7,322.5z"/>
						<path class="st1" d="M-64.7,322.9C-64.7,323.3-64.4,322.6-64.7,322.9L-64.7,322.9z"/>
						<path class="st1" d="M-65,321.1l0.4,0.5c0.3-0.1,0.3-0.5,0.5-0.4C-64.3,320.8-64.6,320.9-65,321.1z"/>
						<path class="st1" d="M-65.8,320.7l0.2,0.3C-65.6,320.9-65.5,320.8-65.8,320.7z"/>
						<path class="st1" d="M-65.3,321.5l-0.4-0.5c-0.2,0.1-0.6,0.1,0.1,0.2C-65.9,321.1-65.6,321.2-65.3,321.5z"/>
						<path class="st1" d="M-65.5,321.8c-0.2,0.3-0.4,0.6-0.8,0.1C-66.1,322.9-65.3,322.7-65.5,321.8z"/>
						<path class="st1" d="M-68.4,324.2l-0.3,0.4l0.4,0.3C-68.5,324.8-68,324.2-68.4,324.2z"/>
						<path class="st1" d="M-64.4,318.1c-0.2,0-0.6,0.2-1,0.2l0.3,0.4C-64.9,318.4-64.8,318.1-64.4,318.1z"/>
						<path class="st1" d="M-65.4,318.3l-0.4-0.5C-65.8,318.2-65.6,318.3-65.4,318.3z"/>
						<polygon class="st1" points="-67.1,320.6 -66.2,321.5 -67.1,320.4 						"/>
						<polygon class="st1" points="-64.4,316 -63.8,316.3 -64.7,315.7 						"/>
						<path class="st1" d="M-64.5,314.6c0.5,0.2,0.8-0.3,1.1-0.1c-0.1-0.4-0.5-0.7-0.8-1C-64,313.8-64.1,314.2-64.5,314.6z"/>
						<path class="st1" d="M-64.8,313c0.1,0.2,0.3,0.3,0.5,0.5C-64.4,313.4-64.5,313.2-64.8,313z"/>
						<path class="st1" d="M-65.7,316.8c0.1,0,0.5-0.1,0.7-0.4l-0.7,0.2C-65.7,316.6-65.7,316.7-65.7,316.8z"/>
						<path class="st1" d="M-65.7,316.6L-65.7,316.6c0-0.2,0.1-0.4,0.1-0.5C-65.6,316.2-65.6,316.3-65.7,316.6z"/>
						<path class="st1" d="M-65.7,316.8C-65.7,316.8-65.7,316.8-65.7,316.8C-65.7,316.8-65.8,316.8-65.7,316.8z"/>
						<path class="st1" d="M-66.5,319.2c-0.4-0.3-0.8-1-1.4-0.3C-67.4,319-67.1,318.7-66.5,319.2z"/>
						<path class="st1" d="M-66.5,317.1l-0.2,0.6c0.2,0,0.4-0.1,0.6,0L-66.5,317.1z"/>
						<polygon class="st1" points="-66.7,316.8 -66.5,317.1 -66.5,316.9 						"/>
						<path class="st1" d="M-65.4,314c-0.3-0.3-0.3-0.5-0.4-0.8c-0.1,0.3-0.2,0.7-0.2,1C-65.8,314.2-65.4,314.4-65.4,314z"/>
						<path class="st1" d="M-65.6,315.3L-65.6,315.3C-65.7,315.2-65.7,315.3-65.6,315.3z"/>
						<path class="st1" d="M-65.8,310.1c0,0-0.1,0-0.1,0L-65.8,310.1L-65.8,310.1z"/>
						<path class="st1" d="M-66.1,314.3c-0.1,0.3,0,0.4,0.2,0.5c-0.1-0.2-0.1-0.4-0.1-0.6C-66.1,314.2-66.1,314.2-66.1,314.3z"/>
						<path class="st1" d="M-65.1,312.2c-0.1,0.1-0.3,0.3-0.4,0.4C-65.2,312.5-64.9,312.2-65.1,312.2z"/>
						<path class="st1" d="M-65.4,315.1C-65.4,315.1-65.4,315.2-65.4,315.1C-65.3,315.1-65.3,315.1-65.4,315.1z"/>
						<path class="st1" d="M-65.4,315.1c-0.1-0.1-0.3-0.2-0.4-0.3c0.1,0.2,0.1,0.3,0.2,0.4C-65.6,315.2-65.5,315.2-65.4,315.1z"/>
						<path class="st1" d="M-70.2,309.2c0.6,0,1.2,0.7,0.5,1.3c0.5,0.6,2.6,0.2,3.7-0.3c-0.3,0-0.5,0-0.9-0.6
							c-0.3,0.2-0.8,1.3-1.4,0.8c-0.3-0.8,0.2-0.6,0.6-1c-0.8,0.3-1.1-1-2.3-0.8l0.4,0.7C-69.7,309.3-70,309-70.2,309.2z"/>
						<path class="st1" d="M-66,311.3l0.1,0.2c0.1-0.3,0.4-0.5,0.9-0.8c-0.3-0.4-0.5-0.5-0.8-0.5L-66,311.3L-66,311.3z"/>
						<path class="st1" d="M-65.9,312.6c-0.7-0.2-1-0.8-1.7-0.4c0,0.7,0.6,0.5,0.9,0.9C-66.9,312-66.4,313.4-65.9,312.6
							c0,0.2,0.1,0.4,0.1,0.6c0.1-0.2,0.2-0.4,0.3-0.6c0,0,0,0,0,0l0,0l0,0c-0.1,0-0.1,0.1-0.1,0c0,0,0,0,0,0
							C-65.7,312.6-65.8,312.6-65.9,312.6c0.1-0.3,0.2-0.1,0.3,0.1c0,0,0.1,0,0.1,0l0,0l-0.4-1.1C-66,311.8-66,312.1-65.9,312.6z"/>
						<path class="st1" d="M-69.3,318.2c0.1,0,0.1,0,0.2,0C-69.3,318.1-69.3,318.1-69.3,318.2z"/>
						<path class="st1" d="M-68.9,317.8c0.1,0.1,0.4,0.1,0.3,0.4c-0.2,0.2-0.3,0-0.6,0c0.2,0.2,0.5,0.6,0.8,0.1l-0.1-0.1
							c0.2-0.5,1.1-1,1.2-1C-67.9,317.3-68.3,317.5-68.9,317.8z"/>
						<path class="st1" d="M-67.6,315.1l-0.3-0.9l-0.6,0.5l0.4,0C-68.3,315.2-67.8,315.1-67.6,315.1z"/>
						<polygon class="st1" points="-65.4,310 -64.7,310.2 -65.7,309.6 						"/>
						<polygon class="st1" points="-65.5,308.8 -64.9,308.9 -65.3,308.5 						"/>
						<path class="st1" d="M-107,308.2l0.2,0.3C-106.9,308.4-107,308.3-107,308.2z"/>
						<path class="st1" d="M-107,306.2l-0.3,0C-107.1,306.3-107,306.3-107,306.2z"/>
						<path class="st1" d="M-85.4,290.9c-0.4-0.6-0.8-1.5-0.8-0.8l0.1,0.7C-85.8,290.7-85.6,290.8-85.4,290.9z"/>
						<path class="st1" d="M-105.8,295c0,0.1,0.1,0.1,0.2,0.2c0-0.2,0.1-0.5,0.2-0.7C-105.6,294.7-105.7,294.9-105.8,295z"/>
						<path class="st1" d="M-105.4,297.9c0,0-0.1-0.1-0.2-0.2c-0.1-0.1-0.2-0.2-0.2-0.2C-105.7,297.6-105.6,297.8-105.4,297.9z"/>
						<path class="st1" d="M-106.3,319.1l0.7,0.3C-105.6,318.9-105.9,319.1-106.3,319.1z"/>
						<path class="st1" d="M-65.8,293.5c0.3-0.8,0.4-1.3,0.4-1.8C-65.8,292.8-66.4,293.8-65.8,293.5z"/>
						<path class="st1" d="M-114.4,307.4c0.1,0.2,0.3,0.2,0.4,0.2C-114.1,307.5-114.2,307.4-114.4,307.4z"/>
						<path class="st1" d="M-66,290.7c0,0.1,0.1,0.1,0.1,0.2c0.1,0,0.2,0,0.4-0.1c0.1,0.2,0.1,0.6,0.1,1c0.2-0.5,0.3-1,0.3-1.4
							C-65.3,290.4-65.6,290.5-66,290.7z"/>
						<path class="st1" d="M-84.4,328C-84.3,328.1-84.3,328.1-84.4,328C-84.3,328-84.3,328-84.4,328z"/>
						<path class="st1" d="M-72.9,335c-0.1,0-0.3,0-0.5,0.1C-73.3,335.1-73.1,335.1-72.9,335z"/>
						<path class="st1" d="M-65.2,303.9C-65.2,304.2-65.1,304-65.2,303.9L-65.2,303.9z"/>
						<path class="st1" d="M-68,305.2c-0.1-0.1-0.2-0.1-0.3-0.1C-68.1,305.1-68,305.1-68,305.2z"/>
						<path class="st1" d="M-72.5,295L-72.5,295C-72.6,295.1-72.6,295.1-72.5,295z"/>
						<path class="st1" d="M-65.5,304.3c0.1-0.1,0.2-0.2,0.2-0.3C-65.4,304-65.4,304.1-65.5,304.3z"/>
						<path class="st1" d="M-65.2,304.3c0,0.1,0,0.2-0.1,0.2C-65.2,304.5-65.1,304.5-65.2,304.3z"/>
						<path class="st1" d="M-65.3,303.6c0,0.1,0,0.3-0.1,0.4c0-0.1,0.1-0.1,0.1-0.1C-65.2,303.9-65.2,303.8-65.3,303.6z"/>
						<path class="st1" d="M-105.2,329.9C-105.2,329.9-105.2,329.9-105.2,329.9C-105,329.7-105,329.7-105.2,329.9z"/>
						<path class="st1" d="M-92.2,298.1C-92.1,298.1-92.1,298.1-92.2,298.1L-92.2,298.1L-92.2,298.1z"/>
						<path class="st1" d="M-93.1,298.6c0.4-0.9,0.6-0.8,0.9-0.6l-0.3-2L-93.1,298.6z"/>
						<path class="st1" d="M-106.8,313l0.6-0.6c1,0.8,0.7,1.4,1.5,0.7c-2.2-0.1-0.2-2.5-2.4-2.6l0.5-0.4c0,0.1,0.1,0.1,0.1,0.3
							c1-0.8-1.6-0.6-1.3-1.7c0.2-0.4,0.5-0.6,0.7-0.4l-0.5-0.8c0-0.2,0.4-0.2,0.4,0.1l-0.2-1.3l0.1,0c-0.3-0.2-0.9-0.6-1.1-0.8
							c0.3-0.3,0.2,0.2,0.5,0.1l-0.5-0.7c0.6-0.3,1.1,0.3,1,0.8c2.2-0.7-0.5-0.6,0.7-2l0.3,0.7c1.2-0.4,0.8-0.9,1.6-1.7
							c-0.4,0.2-1.9,1.5-2.5,0.7c0.2-0.2,0.2-0.5-0.2-0.9c0.8,0,0.6-0.4,0.5-0.9l1,0c-0.3-0.6-0.8-0.4-1.3-0.6
							c0.1-0.3,0.9-0.2,1.6,0c0.1-0.1-0.2-0.1-0.6-0.2c-0.4-0.1-0.8-0.1-0.9-0.3c0.4-0.2,0-0.5-0.6-1.4c0.4,0,0.6,0.5,0.9,0.6
							c0,0-0.2-0.2-0.4-0.4c-0.2-0.2-0.4-0.4-0.4-0.4c0,0,0.3,0.2,0.4,0.3c-0.3-0.4-1-0.8-1.3-1.4c-0.5-0.5-0.2-0.5,0.1-0.3
							c0.7,0.4,1.4,1,1.1,0.3c0.3,0.3,0.4,0.6,0.8,1c-0.1-0.4,0-0.6,0-0.8c0-0.2,0-0.4,0-1c0,0,0.8,0.7,0.8,0.7
							c-0.6-0.8-0.5-1.7,0-2.4c-0.3-0.4-0.5-0.7-0.7-0.8c0,0,1.1-0.5,1.1-0.5c0.2,0.2,0.1,0.5-0.1,0.9c0.1-0.1,0.1-0.2,0.2-0.2
							c0.4,0.4,0.2,1,0.1,1.5c-0.1-0.2-0.3-0.4-0.4-0.6c-0.1,0.6-0.1,1.3,0.1,1.9c0-0.1,0.1-0.2,0.2-0.3c0,0.2,0,0.3,0,0.4
							c0,0.1,0.1-0.1,0.1-0.4c0,0,0.1,0.3,0.2,0.6c0.1,0.3,0.1,0.6,0.1,0.6l0-0.5c0,0,0.2,0.2,0.4,0.4c0.3,0.2,0.7,0.4,0.7,0.4
							c1-1.1,1.8-2.8,3.3-3.3c-0.4,0.8-0.1,1.4-0.1,2.4c-0.4-1-1.2,0.4-2,0.2c0.4,0.1,0.3,0.6,0.2,0.7l1.4-1c0,0.8,0.3,0.6,0.7,0.9
							c-0.3-1.6,1.1-1.1,1.6-1.6c0,0.5-0.1,1.1-0.8,1c0.8,1.2,1-1.9,1.8-0.9c-0.2,0-0.3-0.1-0.3,0.2c0.4-0.5,1.4-0.1,1.2,0.4l-0.2,0
							c1.1,0.2,3.5,0,3.7-1.3c0,0.2-0.1,1.6-0.2,1.9l2-4.6c-0.2,1.2,0.5,3.9-0.4,4.6c0.3,0.2,0.6,0.4,1.2-0.1
							c-0.2-0.2-0.5-1.7-0.2-1.8c0.7,1.3,0.5,0.7,1.3,1.8c-0.3-0.3,0-2.1,0.5-2c-0.1,0.3,0,1.8-0.1,2l1.1-1.8c-0.3,0.3,0,1.5,0.2,2
							c-0.1-0.4,0.9,0,1.2-0.1l-0.5-0.4c1.2,0.3,1.2-2.5,2.4-2.4c-0.1,0.4-0.4,2.3,0.3,2.5c0.3-0.9,1.3-4.4,2.4-5.1l0.2,0.5l0.8-0.6
							c-0.5,1.4-2,4.3-2.8,5.4c0.5,0.4,0.1,0.6,0.8,0.6c0.2,0.5-0.4,0.7-0.6,0.8l1.6,0.3c-0.1-1.1,1.2-1.1,1.2-2l-1.8,1.1
							c-0.1-1.1,1-3,2.2-2.9c0.3,0.4-0.2,1.9-0.2,2.3c0.1-0.4,1.1-0.7,1.2-0.4l-0.5,0.6c0.6,0.4,1-1.4,1.8-0.4
							c0.3,0.1,0.8,1.4,0.8,0.7c-0.4-1.2-0.5-5-0.2-5.9c0.1,0.1,1.4,1.2,1.7,1.8c0.4,1-0.7,2.3-0.3,3.1c0-0.3,0.3-0.7,0.4-0.8
							c0.1,0.1,0.1,0.4,0.1,0.5c0,0.2,0.1,0.3,0.2,0.2c0.1-1.1,0.8,0.1,0.2-0.9c0.5-0.3,0.4,0.2,0.9,0.2c0-0.4,0.3-0.9,0.7-1.5
							c0.4-0.5,1-1,1.4-1.2c-0.2,0.3-0.2,0.6-0.2,0.8c1.1,0.1,1.4,0.6,2.3,0.6c0,0,0,0,0,0.1c-0.3,0.4-0.6,1.1-1.1,1.3
							c0.2-0.1,0.6-0.3,0.6,0c-0.9,1.3-0.1-0.5-1.3,0.9c0.6-0.5,0.9-0.1,1.3,0c1-0.8,0.2-1.2-0.2-1.1c0.7-0.6,1.4-1,2-1.1
							c0.6-0.1,1.1,0.2,1.4,0.8c0.3,1.1-0.9,1-0.7,1.1c-0.1,1.1,0.5,1.4,1,1.7c0.5,0.3,0.9,0.8,0.4,1.9c-0.9,0.6-1.7,0-2.3,0.2
							c-0.3-0.7,0.5-1.3,0.5-1.9c0,0-0.1,0.2-0.2,0.4c-0.1,0.2-0.2,0.4-0.2,0.4c-0.3-0.2-0.5-0.7-0.3-1c-0.4,0.4-0.4,1.1-0.5,1.9
							c0,0.8-0.1,1.8-0.4,2.5c0.3,0.2,0.6,0.7,0.9,0.5l-0.1-0.4c0.7-0.4,1,0.8,1.3,0.3c0.5,0.6,1.3,1.2,0.9,2l-1,0.2
							c0.3,0,0.6-0.5,0.3-0.8c0.4,0.3-1.3,1.2,0,1.6l0.7-0.6c0.5,0.6,1.5,1.3,1.2,2c1-0.3-0.1-0.2,1-0.7c-1.4,0.4,0.1-1.8-1.4-1.1
							c1.3-0.5,0.6-0.9,1.7-1.6c-0.3,0-0.6,0.2-0.5-0.4c-0.1,0-0.2-0.1-0.3-0.1c0,0,0,0,0,0l0,0c0,0-0.1,0,0,0
							c-0.1,0.1-0.3,0.3-0.5,0.3c-0.7-0.3-0.7-1.3-1.1-1.6c0.2-0.4,0.4,0.1,0.7,0l-0.6-0.5c0.7,0,1.2-1,1.6-0.1l0-0.8
							c0.1-0.1,0.2-0.2,0.3-0.4c0-0.1,0.1-0.1,0.1-0.2c0-0.1,0-0.1,0.1-0.3c0.1-0.4,0-0.9-0.1-1.2c0.2-0.7-0.8-1.4-0.2-1l-0.4-1.8
							l0.2-0.1c0-0.9-0.2-1.8-0.4-2.6c-0.2-0.8-0.2-1.7,0.3-3.2c0,0-0.1-0.1-0.1-0.2c-0.8,0.2-1.7,0.4-2.6,0.2l0.2-0.6
							c-0.5,0.1-1.1,0-1.6-0.1c-0.5-0.1-1.1-0.1-1.4,0.2c-0.1-0.8-1.3-0.9-2.5-0.8c-0.6,0-1.3,0.1-1.8,0.2l-0.2,0l-0.1,0
							c-0.1,0-0.1,0-0.2,0c-0.1,0-0.3,0-0.4,0l0,0.8c-0.6,0-1.2,0.2-2,0.5l0,0.7c-0.7,0.6-1.7-0.5-2.7-0.4c0.1-0.3,0.3-0.2,0.5,0
							c-1.2-1.6-2.6,1.2-3.7,0c-0.3,0.3-0.5,0.2-0.7,0c0,0,0,0,0.1,0c0,0-0.1,0-0.1,0c-0.1-0.1-0.3-0.3-0.4-0.4
							c0.1,0.2,0.2,0.3,0.3,0.4c-0.2,0-0.5,0.1-0.9,0.3l-0.1-0.8c0,0,0,0-0.1,0c-0.3-0.3-0.3,0.4-0.1,0.9c-0.2,0.1-0.3,0.3-0.4,0.5
							c-0.3-1.2-0.8,0.4-1.2-0.9c-0.2,0.6-1.6,0.5-1.8,1.8c0-0.2-0.1-0.3,0.1-0.3c-0.4-0.2-0.7-0.3-1,0.1l-0.2-1l-0.8,1.3
							c-0.5-0.6-0.7-0.9-0.2-1.7c-1.1,1.2-0.9,0.4-1.9,1.6l0-0.6c-0.3,0-0.9,0.9-1.1,0.3c-0.8-1.2-3.8-0.2-5.8-1.3
							c0.4,1.9-0.9-0.8-1,0.6c-0.1-0.4-0.4-0.7-0.1-1.1c-1,0.4-1.5-0.7-2.2,0.5c-0.1-0.4,0.2-0.6,0.1-0.9c-0.1,0.1-0.3,0.4-0.4,0.1
							c-0.1-0.3,0.1-0.4,0.3-0.6c-0.5,0-0.8,0.4-1.1,0.9c-0.2,0.5-0.3,1.2-0.3,1.8c-0.7-0.6-1.2-0.5-1.4,0.3c-0.3-0.4-0.9-0.9,0-1
							c-0.5-0.1-3.5-0.6-2.9,0.4c-0.3-0.3-0.7-0.1-0.8,0c-1.1-0.1-1.3-0.2-2.3-0.1l0.5,0.2c0.3,0.4,0.3,0.6,0.2,0.6
							c0.1,0.3-0.3,0.4-0.2,1l-0.1-0.1c-0.4,0.6-0.3,0.9-0.2,1.2c0.1,0.3,0.2,0.5-0.3,1.2l0.8,0.3c0.8,0.5,0.6,0.7,0.2,1.1
							c-0.4,0.3-0.9,0.9-0.6,1.5c0,0,0.1-0.1,0.2-0.2c0.1-0.1,0.2-0.1,0.2-0.1c0.3,0.3-0.3,0.6-0.9,1c-0.3,0.2-0.7,0.4-1,0.6
							c-0.3,0.2-0.5,0.3-0.5,0.4c-0.1,0.1-0.2-0.2-0.3-0.3c-1,1.2,1,0.2,1.2,1.1c-0.5,0.2-1.4-0.2-1.5,0.4c-0.4,0.3,1.8,1.8,0.7,2.6
							c0.4-0.2,0.8-0.4,1.1,0.1c0.1,0.6-1.6,1.7-0.3,2.3c-0.1,0.1-0.2,0.1-0.3,0.1c0.3,0.5,0.6,1.6,1.3,1.9
							c-2.6,0.5,1.3,3.1-1.2,3.1l0.1,1.5l-0.2,0c-0.2,1,0.4,1.3,1,1.7c-0.2,0.2-0.4,0.1-0.5,0c-0.5,1.4-0.4,1.6,0.8,2.7l-0.8,0.1
							c0.5,0.3-1.2,2-0.3,3.4c-0.1,0-0.2,0-0.4-0.2c0.5,0.8-0.1,1.7-0.4,2.5c-0.2,0.4-0.2,0.8-0.1,1.1c0.1,0.2,0.5,0.7,1.2,0.9
							c0,0,0.7,1.3,0.7,1.3c0.1-0.9,0.4-0.9,0.8-0.7c0.3,0.1,0.7,0.3,1,0c0.1,0.3-0.1,0.6-0.4,0.9c-0.3,0.3-0.6,0.5-0.6,0.1l0.1-0.2
							c-0.8,0.1-0.9,0.6-1,1.2c-0.1,0.6-0.1,1.2-0.6,1.5c0,1.3-0.1,2.7-0.2,4.2c2.1,0.2,4.4,0.6,6.8,0.6c0,0,0-0.3-0.1-0.6
							c0-0.3-0.1-0.6-0.1-0.6l1.2,0.1c0.3,0.3,0.4,0.9-0.6,0.9c0.2,0.3,0.6,0.2,1-0.1c0.4-0.3,0.6-0.6,0.6-0.7
							c0.6,0.2,0.5,0.6,0.3,0.9c-0.1,0.3-0.8,0.5-0.4,0.5c0,0,0.2,0,0.3,0c0.1,0,0.2,0,0.2,0l-0.1-0.1c0.4-0.5,0.4-1,1.2-0.9
							c0.5,0.2,0.2,0.7,0.4,0.8c0,0.1,0.1,0.1,0.3,0l1.1,0.1l-0.4-0.9c0.5-0.5,1,0,0.5-1c0.7,1.6,4,0.6,4.5,1.1
							c0.7-0.7,1.3-0.7,2.2-0.6c-0.2-0.2-0.3-1.2,0.4-1.1c-0.3,2.1,1.3,0.9,1.9,2.5c-0.5-1,2-0.3,1.2-1.7c0.6,0.2,0,0.8,0.5,1.3
							c1.4-0.8,3.1,0.5,4.8,0.3c0-0.3-0.3-0.7,0.1-1.1l0.9,1.4c0.3-0.1,0.3-1.6,0.9-0.6c-0.1-0.2-0.2-0.6,0-0.7
							c3.4,1.4,7-1.1,10.4,1.5c-0.5-0.5-0.2-0.6,0.2-0.6c-0.2-0.1,0-0.7,0-1.1l1.4,1.1c0.3-1.1,1.6-0.1,1.7-1.1l-0.5,0.2
							c0.6-1.2-0.9-2.6-0.8-4.2c-0.7,1.4-1.8-2-2.9-0.1c-0.2-0.3,0.2-0.5,0.1-0.8c-0.3,0.7-0.6,0.8-1.3,0.5l0.1-0.2
							c-1.8,0.2-2.5-0.5-4.6-0.9l0.1,0.8c-0.4-0.1-0.5-0.3-0.7-0.5c-0.5,1.1,1.2,0.1,0.8,1.3c-0.6-1.5-3,0-3.4-1.8
							c-0.7,0,0.2,0.9-0.5,0.9l-0.2-0.5l-0.2,0.6c-0.4-0.1-0.7-0.7-0.7-1.1c0.1,0,0.3-0.1,0.4-0.1c-0.6-0.6-1.6,0.2-1.8,0l0.6,0.3
							c-1.8,0.4-4-0.2-5.8,0.8l0.1,0.4c-1.3,0.7-1.1-0.4-2.5-0.1l0.1-0.1c-0.3,0.4-0.7,0.5-1.1,0.5c0.4-0.4-0.7-0.8-0.2-1.3
							c-1.4,0.7-0.7,0.6-1.7,1.9l-0.2-0.6c-0.3,0.5-0.4,0.8-1.1,1c0.6-0.5-0.5-0.9,0.2-1.6c-1.5-1.3-2.3,1.3-3-0.6
							c-0.7,1.6,1.3,0.9,0.9,1.3c0.3,0.5-0.6,1.2-1.1,1.1c-0.5,0-0.8-2.1-2.1-2.1c0.1,0,0.1-0.1,0.3-0.1c-0.5-0.4-0.9,0.6-1.5-0.1
							c-0.2,0.5-0.3,0.5-0.5,0.5c-0.1,0-0.2,0.1-0.2,0.7c-0.1,0,1-0.3,1-0.3c-0.7,0.3-1.2,1.8-2,1.1c0.1-0.3,0.4-0.6,0.6-0.8
							c-0.1-0.4-0.4,0.2-0.6-0.1c0.2-0.6,0.4-0.7,0.6-0.7c0.1,0,0.2,0,0.3-0.1c0.1,0,0.1-0.1,0.2-0.1c0.1-0.1,0.2-0.2,0.3-0.3
							c-0.1-0.1-0.2-0.1-0.3-0.1c-0.1,0-0.1,0.1-0.2,0.2c-0.1,0.1-0.2,0.1,0-0.5c-0.2,0.9-0.4,0.8-0.5,0.7c-0.2-0.1-0.2-0.3-0.7,0.4
							l0.4-0.8c-0.1,0.1-0.4,0.5-0.5,0.5c0,0,0.2-0.2,0.4-0.5c0.2-0.2,0.3-0.5,0.3-0.5c-0.3,0.4-0.4,0.2-0.3,0
							c0-0.2,0.2-0.5-0.1-0.3c0.2,0,0.1,0.2-0.1,0.5c-0.2,0.3-0.5,0.7-0.5,0.9c-1.5,0.9,0.4-1.3,0.4-1.6c0-0.1,0-0.1,0-0.2
							c0.1,0-0.1,0.2-0.3,0.5c-0.1,0.2-0.3,0.3-0.5,0.5c0,0,0,0,0,0c0.2-0.3,0.4-0.7,0.8-1.1c-0.1-0.1-0.3,0-0.5,0.3
							c-0.2,0.2-0.5,0.5-0.7,0.6c0.9-0.9-0.4,0-0.7-0.1l0.8-0.5c0.5-0.9-1.6,0.6-1-0.4c0,0,1.1-0.1,1.1-0.1c0,0-0.3-0.2-0.3-0.2
							l0.9-0.2c-0.7-0.1-0.5-0.3-0.2-0.5c-0.3,0-0.6,0.1-0.9,0c-0.1,0-0.3-0.1-0.4-0.1c-0.1-0.1-0.2-0.2-0.2-0.4
							c0.5-0.4,0.7,0.2,0.6-0.6c0.5,0.2,1.1,0.4,0.4,0.8c0.3,0,0.5,0.2,0.7,0.2c0.5-0.5,0.1-1.2,0.1-1.5c0,0.1-0.1,0.3-0.2,0.3
							l-1.1-1.3c0.3-0.2,0.5,0,0.7,0.1c-0.1-0.3-0.4-0.4-0.5-0.8c0.6,0.1,1.3,0.1,1.6,0.6l-0.7-1.2c0.3-0.1,0.7-0.6,1-0.5
							c0.4-0.7-1.2-1.7-0.7-2.6c-0.1,0-0.2-0.1-0.3-0.3c0.1-0.8,0.9-1.6,0.1-2.6l1.1-0.6c-0.3-0.8-1.4,0.8-1.8-0.5
							c-0.4-0.9,1-0.3,1.3-0.7c-0.6-0.5-1.7-1.3-0.8-2.1C-106.7,312.5-106.9,312.7-106.8,313z M-107.3,303.3
							c0.2,0.2,0.7,0.6,0.2,0.7C-108,303.8-107.6,303.6-107.3,303.3z M-104.4,296.5c-0.2,0.3-0.3,0.1-0.5-0.2
							C-104.8,296.3-104.7,296.3-104.4,296.5z M-65.8,301.1C-65.9,301.1-65.9,301.1-65.8,301.1c0.1-0.3,0.2-0.5,0.1-0.4
							C-65.7,300.7-65.8,301-65.8,301.1z M-66.2,302c0.1,0.1,0.2,0.1,0.3,0c-0.2-0.1-0.2-0.3-0.2-0.5
							C-66.2,301.6-66.4,301.7-66.2,302z M-102.7,335.1l-0.2-0.2C-102.5,334.7-102.6,334.9-102.7,335.1z"/>
						<path class="st1" d="M-105.5,297.6c-0.1-0.1-0.1-0.3-0.2-0.4C-105.6,297.3-105.6,297.4-105.5,297.6z"/>
						<path class="st1" d="M-106.4,319C-106.4,319-106.4,319-106.4,319c0,0,0.1,0.1,0.1,0.1L-106.4,319z"/>
						<path class="st1" d="M-76,298c-0.2-0.1-0.3-0.3-0.3-0.4C-76.3,297.8-76.2,298-76,298z"/>
						<path class="st1" d="M-64.9,306.6l-0.2-0.6c0,0.3-0.1,0.4-0.3,0.5C-65.1,306.5-64.9,306.4-64.9,306.6z"/>
						<path class="st1" d="M-69.6,311.4c0.1,0.1,0,0.2,0.1,0.3l0.4,0C-69.2,311.3-69.5,311.1-69.6,311.4z"/>
						<path class="st1" d="M-67.4,307.1c-0.6,0-0.4,0.4-0.3,0.8c0,0,0,0,0-0.1C-66.8,307.9-67.1,307.5-67.4,307.1z"/>
						<path class="st1" d="M-67.7,308c0,0.1,0,0.2,0,0.4C-67.3,308.4-67.6,308.2-67.7,308z"/>
						<path class="st1" d="M-65.7,303.1c-0.2,0.2,0.8,0.1,0.6,0.2C-64.4,303.5-66.2,302.1-65.7,303.1z"/>
						<polygon class="st1" points="-69.6,307.4 -68.8,307.3 -69.4,307.1 						"/>
						<path class="st1" d="M-69,304.3l-0.2,0.6c0.1,0,0.2,0.1,0.3,0.2C-68.9,304.8-68.7,304.3-69,304.3z"/>
						<path class="st1" d="M-68.9,305.1c0,0.2,0,0.4,0.1,0.5C-68.8,305.5-68.8,305.3-68.9,305.1z"/>
						<polygon class="st1" points="-69.8,306.6 -69.6,306.4 -69.6,306 						"/>
						<path class="st1" d="M-68.8,297.2l-0.2-0.6c-0.3,0.1-0.4,0.4-0.3,0.6C-69.2,297.3-69.1,297.5-68.8,297.2z"/>
						<path class="st1" d="M-71,300c0.2-0.2,0.3-0.2,0.6-0.4l-1,0.3c0,0,0.1,0,0.2,0.1C-71.1,300-71,300-71,300z"/>
						<path class="st1" d="M-71.2,298.6c-0.3,0.1-0.8-0.2-0.7,0.3C-71.7,298.8-71.5,299.2-71.2,298.6z"/>
						<polygon class="st1" points="-77,295.3 -76.8,295.3 -76.9,293.7 						"/>
						<path class="st1" d="M-86.1,299.2c0.8,0.4,0.2-1,0.9-0.5c0.2-0.4-0.6-0.4-0.4-0.7C-86,298.4-86.3,298.1-86.1,299.2z"/>
						<path class="st1" d="M-85.5,297.9c0.1-0.1,0.2-0.1,0.2-0.2C-85.4,297.8-85.5,297.9-85.5,297.9z"/>
						<polygon class="st1" points="-71,335.9 -70.5,336.3 -70.8,335.7 						"/>
						<path class="st1" d="M-70,334.7l0.1,1l0.3-0.9C-69.7,334.8-69.9,334.9-70,334.7z"/>
						<path class="st1" d="M-105.2,301.8l-0.2,0c-0.3,0.1-0.3,0.2-0.3,0.4L-105.2,301.8z"/>
						<polygon class="st1" points="-106,308.9 -106,308.7 -106.9,309 						"/>
						<path class="st1" d="M-104.8,314.8c0-0.2-0.2-0.5-0.1-0.8C-104.8,314.5-106,314.8-104.8,314.8z"/>
					</g>
				</g>
			</g>
		</g>
	</g>
</g>
</svg>
