<?xml version="1.0" encoding="utf-8"?>
<!-- Generator: Adobe Illustrator 18.1.1, SVG Export Plug-In . SVG Version: 6.00 Build 0)  -->
<!DOCTYPE svg PUBLIC "-//W3C//DTD SVG 1.1//EN" "http://www.w3.org/Graphics/SVG/1.1/DTD/svg11.dtd">
<svg version="1.1" id="Layer_1" xmlns="http://www.w3.org/2000/svg" xmlns:xlink="http://www.w3.org/1999/xlink" x="0px" y="0px"
	 width="210.3px" height="150.7px" viewBox="-290 231.3 210.3 150.7" style="enable-background:new -290 231.3 210.3 150.7;"
	 xml:space="preserve">
<style type="text/css">
	.st0{fill:#C2986B;}
	.st1{fill:#764D2A;}
	.st2{fill:#3B2617;}
	.st3{fill:#FFFFFF;}
</style>
<g>
	<path class="st0" d="M-164.4,322.5c0-18.5,16.4-33.7,37.6-35.7c-2.8-1.8,4-16.7,0-18c-14.7-4.7-46.7,7.8-70.2,11.8
		c-40.8,6.8-51,26.1-48.2,42.6s17.5,23.9,58.3,17.1c8.9-1.5,17.2-3.5,24.9-6C-163.6,330.5-164.4,326.6-164.4,322.5z"/>
	<path class="st1" d="M-164.4,304.6c0-18.5,16.4-33.7,37.6-35.7c-13.4-8.4-40.3-11.2-70.2-6.2c-40.8,6.8-71.6,25.7-68.9,42.2
		c2.8,16.5,38.1,24.3,78.9,17.4c8.9-1.5,17.2-3.5,24.9-6C-163.6,312.6-164.4,308.7-164.4,304.6z"/>
	<path class="st2" d="M-162.1,316.2c-38.8,12.2-89.5,9.6-101.4-5.8l14.1,26.4c14,19.4,55.6,20.5,87.3,8.9V316.2z"/>
	<g>
		<g>
			<path class="st3" d="M-150.2,337.8l10.8-20.3c0.5-1,0.9-1.9,0.9-2.7c0-0.8,0.1-1.7,0.1-2.8c0-0.5,0-1-0.1-1.6
				c0-0.6-0.1-1.1-0.3-1.5c-0.2-0.4-0.5-0.8-0.8-1.1c-0.4-0.3-1-0.4-1.7-0.4c-0.9,0-1.6,0.3-2.1,0.8s-0.8,1.2-0.8,2.2v3.4h-6v-3.3
				c0-1.2,0.2-2.4,0.7-3.5c0.5-1.1,1.1-2,1.9-2.9c0.8-0.9,1.7-1.5,2.8-2s2.3-0.7,3.5-0.7c1.6,0,2.9,0.3,4,0.8c1.1,0.6,2,1.3,2.7,2.3
				s1.2,2.1,1.6,3.3c0.3,1.2,0.5,2.6,0.5,4c0,1,0,1.9-0.1,2.5c0,0.7-0.1,1.3-0.2,2c-0.1,0.6-0.3,1.2-0.6,1.9
				c-0.3,0.6-0.6,1.4-1.1,2.3l-8.8,16.9h10.8v6h-17.8v-5.6H-150.2z"/>
			<path class="st3" d="M-121.4,308.1l-6,4.4v-6.3l6-4.4h6v41.6h-6V308.1z"/>
			<path class="st3" d="M-103.2,314.4c-1.5,0-2.7-0.4-3.6-1.2c-0.9-0.8-1.3-1.9-1.3-3.2v-3.8c0-1.5,0.4-2.7,1.3-3.5
				c0.9-0.9,2.1-1.3,3.6-1.3s2.7,0.4,3.6,1.3c0.9,0.9,1.3,2,1.3,3.5v3.8c0,1.3-0.4,2.4-1.3,3.2C-100.5,314-101.7,314.4-103.2,314.4z
				 M-93.2,301.7h3.9l-14.3,41.6h-3.9L-93.2,301.7z M-103.2,310.9c0.4,0,0.7-0.1,1-0.4s0.4-0.7,0.4-1.1v-3c0-0.4-0.1-0.8-0.4-1.1
				c-0.3-0.3-0.6-0.4-1-0.4s-0.7,0.1-1,0.4s-0.4,0.7-0.4,1.1v3c0,0.4,0.1,0.8,0.4,1.1C-104,310.8-103.6,310.9-103.2,310.9z
				 M-93.6,343.7c-1.5,0-2.7-0.4-3.6-1.2c-0.9-0.8-1.3-1.9-1.3-3.2v-3.8c0-1.5,0.4-2.6,1.3-3.5c0.9-0.9,2.1-1.3,3.6-1.3
				s2.7,0.4,3.6,1.3c0.9,0.9,1.3,2,1.3,3.5v3.8c0,1.3-0.4,2.4-1.3,3.2C-90.9,343.3-92.1,343.7-93.6,343.7z M-95.1,338.7
				c0,0.4,0.1,0.8,0.4,1.1c0.3,0.3,0.6,0.4,1,0.4s0.7-0.1,1-0.4s0.4-0.7,0.4-1.1v-3c0-0.4-0.1-0.8-0.4-1.1c-0.3-0.3-0.6-0.4-1-0.4
				s-0.7,0.1-1,0.4s-0.4,0.7-0.4,1.1V338.7z"/>
		</g>
	</g>
</g>
</svg>
