<?xml version="1.0" encoding="utf-8"?>
<!-- Generator: Adobe Illustrator 19.2.1, SVG Export Plug-In . SVG Version: 6.00 Build 0)  -->
<!DOCTYPE svg PUBLIC "-//W3C//DTD SVG 1.1//EN" "http://www.w3.org/Graphics/SVG/1.1/DTD/svg11.dtd">
<svg version="1.1" id="Layer_1" xmlns="http://www.w3.org/2000/svg" xmlns:xlink="http://www.w3.org/1999/xlink" x="0px" y="0px"
	 viewBox="0 0 210.3 150.7" style="enable-background:new 0 0 210.3 150.7;" xml:space="preserve">
<g>
	<path style="fill:#C2986B;" d="M118.1,91.2c0-18.5,16.4-33.7,37.6-35.7c-2.8-1.8,4-16.7,0-18C141,32.8,109,45.3,85.5,49.3
		c-40.8,6.8-51,26.1-48.2,42.6s17.5,23.9,58.3,17.1c8.9-1.5,17.2-3.5,24.9-6C118.9,99.2,118.1,95.3,118.1,91.2z"/>
	<path style="fill:#764D2A;" d="M118.1,73.3c0-18.5,16.4-33.7,37.6-35.7c-13.4-8.4-40.3-11.2-70.2-6.2
		c-40.8,6.8-71.6,25.7-68.9,42.2C19.4,90.1,54.7,97.9,95.5,91c8.9-1.5,17.2-3.5,24.9-6C118.9,81.3,118.1,77.4,118.1,73.3z"/>
	<path style="fill:#3B2617;" d="M120.4,84.9C81.6,97.1,30.9,94.5,19,79.1l14.1,26.4c14,19.4,55.6,20.5,87.3,8.9L120.4,84.9
		L120.4,84.9z"/>
	<g>
		<g>
			<path style="fill:#FFFFFF;" d="M132.3,106.5l10.8-20.3c0.5-1,0.9-1.9,0.9-2.7c0-0.8,0.1-1.7,0.1-2.8c0-0.5,0-1-0.1-1.6
				c0-0.6-0.1-1.1-0.3-1.5s-0.5-0.8-0.8-1.1c-0.4-0.3-1-0.4-1.7-0.4c-0.9,0-1.6,0.3-2.1,0.8s-0.8,1.2-0.8,2.2v3.4h-6v-3.3
				c0-1.2,0.2-2.4,0.7-3.5s1.1-2,1.9-2.9c0.8-0.9,1.7-1.5,2.8-2s2.3-0.7,3.5-0.7c1.6,0,2.9,0.3,4,0.8c1.1,0.6,2,1.3,2.7,2.3
				s1.2,2.1,1.6,3.3c0.3,1.2,0.5,2.6,0.5,4c0,1,0,1.9-0.1,2.5c0,0.7-0.1,1.3-0.2,2c-0.1,0.6-0.3,1.2-0.6,1.9
				c-0.3,0.6-0.6,1.4-1.1,2.3l-8.8,16.9H150v6h-17.8v-5.6L132.3,106.5L132.3,106.5z"/>
			<path style="fill:#FFFFFF;" d="M161.1,76.8l-6,4.4v-6.3l6-4.4h6v41.6h-6V76.8z"/>
			<path style="fill:#FFFFFF;" d="M179.3,83.1c-1.5,0-2.7-0.4-3.6-1.2c-0.9-0.8-1.3-1.9-1.3-3.2v-3.8c0-1.5,0.4-2.7,1.3-3.5
				c0.9-0.9,2.1-1.3,3.6-1.3s2.7,0.4,3.6,1.3c0.9,0.9,1.3,2,1.3,3.5v3.8c0,1.3-0.4,2.4-1.3,3.2C182,82.7,180.8,83.1,179.3,83.1z
				 M189.3,70.4h3.9L178.9,112H175L189.3,70.4z M179.3,79.6c0.4,0,0.7-0.1,1-0.4s0.4-0.7,0.4-1.1v-3c0-0.4-0.1-0.8-0.4-1.1
				c-0.3-0.3-0.6-0.4-1-0.4c-0.4,0-0.7,0.1-1,0.4s-0.4,0.7-0.4,1.1v3c0,0.4,0.1,0.8,0.4,1.1C178.5,79.5,178.9,79.6,179.3,79.6z
				 M188.9,112.4c-1.5,0-2.7-0.4-3.6-1.2c-0.9-0.8-1.3-1.9-1.3-3.2v-3.8c0-1.5,0.4-2.6,1.3-3.5c0.9-0.9,2.1-1.3,3.6-1.3
				s2.7,0.4,3.6,1.3c0.9,0.9,1.3,2,1.3,3.5v3.8c0,1.3-0.4,2.4-1.3,3.2C191.6,112,190.4,112.4,188.9,112.4z M187.4,107.4
				c0,0.4,0.1,0.8,0.4,1.1c0.3,0.3,0.6,0.4,1,0.4c0.4,0,0.7-0.1,1-0.4s0.4-0.7,0.4-1.1v-3c0-0.4-0.1-0.8-0.4-1.1
				c-0.3-0.3-0.6-0.4-1-0.4c-0.4,0-0.7,0.1-1,0.4s-0.4,0.7-0.4,1.1V107.4z"/>
		</g>
	</g>
</g>
</svg>
