<?xml version="1.0" encoding="utf-8"?>
<!-- Generator: Adobe Illustrator 18.1.1, SVG Export Plug-In . SVG Version: 6.00 Build 0)  -->
<!DOCTYPE svg PUBLIC "-//W3C//DTD SVG 1.1//EN" "http://www.w3.org/Graphics/SVG/1.1/DTD/svg11.dtd">
<svg version="1.1" id="Layer_1" xmlns="http://www.w3.org/2000/svg" xmlns:xlink="http://www.w3.org/1999/xlink" x="0px" y="0px"
	 width="210.3px" height="150.7px" viewBox="6.3 229.8 210.3 150.7" style="enable-background:new 6.3 229.8 210.3 150.7;"
	 xml:space="preserve">
<style type="text/css">
	.st0{fill:#C2986B;}
	.st1{fill:#764D2A;}
	.st2{fill:#3B2617;}
</style>
<g>
	<path class="st0" d="M125.6,316.9c0-18.5,16.4-33.7,37.6-35.7c-2.8-1.8,4-16.7,0-18c-14.7-4.7-46.7,7.8-70.2,11.8
		c-40.8,6.8-51,26.1-48.2,42.6c2.8,16.5,17.5,23.9,58.3,17.1c8.9-1.5,17.2-3.5,24.9-6C126.4,324.9,125.6,321,125.6,316.9z"/>
	<path class="st1" d="M125.6,299c0-18.5,16.4-33.7,37.6-35.7c-13.4-8.4-40.3-11.2-70.2-6.2c-40.8,6.8-71.6,25.7-68.9,42.2
		c2.8,16.5,38.1,24.3,78.9,17.4c8.9-1.5,17.2-3.5,24.9-6C126.4,307,125.6,303.1,125.6,299z"/>
	<path class="st2" d="M127.9,310.6c-38.8,12.2-89.5,9.6-101.4-5.8l14.1,26.4c14,19.4,55.6,20.5,87.3,8.9V310.6z"/>
	<g>
		<g>
			<path d="M139.8,332.2l10.8-20.3c0.5-1,0.9-1.9,0.9-2.7s0.1-1.7,0.1-2.8c0-0.5,0-1-0.1-1.6c0-0.6-0.1-1.1-0.3-1.5
				c-0.2-0.4-0.5-0.8-0.8-1.1c-0.4-0.3-1-0.4-1.7-0.4c-0.9,0-1.6,0.3-2.1,0.8c-0.5,0.5-0.8,1.2-0.8,2.2v3.4h-6v-3.3
				c0-1.2,0.2-2.4,0.7-3.5c0.5-1.1,1.1-2,1.9-2.9s1.7-1.5,2.8-2c1.1-0.5,2.3-0.7,3.5-0.7c1.6,0,2.9,0.3,4,0.8c1.1,0.6,2,1.3,2.7,2.3
				c0.7,1,1.2,2.1,1.6,3.3c0.3,1.2,0.5,2.6,0.5,4c0,1,0,1.9-0.1,2.5c0,0.7-0.1,1.3-0.2,2c-0.1,0.6-0.3,1.2-0.6,1.9
				c-0.3,0.6-0.6,1.4-1.1,2.3l-8.8,16.9h10.8v6h-17.8V332.2z"/>
			<path d="M168.6,302.5l-6,4.4v-6.3l6-4.4h6v41.6h-6V302.5z"/>
			<path d="M186.8,308.8c-1.5,0-2.7-0.4-3.6-1.2c-0.9-0.8-1.3-1.9-1.3-3.2v-3.8c0-1.5,0.4-2.7,1.3-3.5c0.9-0.9,2.1-1.3,3.6-1.3
				c1.5,0,2.7,0.4,3.6,1.3c0.9,0.9,1.3,2,1.3,3.5v3.8c0,1.3-0.4,2.4-1.3,3.2C189.5,308.4,188.3,308.8,186.8,308.8z M196.8,296.1h3.9
				l-14.3,41.6h-3.9L196.8,296.1z M186.8,305.3c0.4,0,0.7-0.1,1-0.4c0.3-0.3,0.4-0.7,0.4-1.1v-3c0-0.4-0.1-0.8-0.4-1.1
				c-0.3-0.3-0.6-0.4-1-0.4s-0.7,0.1-1,0.4c-0.3,0.3-0.4,0.7-0.4,1.1v3c0,0.4,0.1,0.8,0.4,1.1C186,305.2,186.4,305.3,186.8,305.3z
				 M196.4,338.1c-1.5,0-2.7-0.4-3.6-1.2s-1.3-1.9-1.3-3.2v-3.8c0-1.5,0.4-2.6,1.3-3.5c0.9-0.9,2.1-1.3,3.6-1.3
				c1.5,0,2.7,0.4,3.6,1.3c0.9,0.9,1.3,2,1.3,3.5v3.8c0,1.3-0.4,2.4-1.3,3.2C199.1,337.7,197.9,338.1,196.4,338.1z M194.9,333.1
				c0,0.4,0.1,0.8,0.4,1.1c0.3,0.3,0.6,0.4,1,0.4c0.4,0,0.7-0.1,1-0.4c0.3-0.3,0.4-0.7,0.4-1.1v-3c0-0.4-0.1-0.8-0.4-1.1
				c-0.3-0.3-0.6-0.4-1-0.4c-0.4,0-0.7,0.1-1,0.4c-0.3,0.3-0.4,0.7-0.4,1.1V333.1z"/>
		</g>
	</g>
</g>
</svg>
