<?xml version="1.0" encoding="utf-8"?>
<!-- Generator: Adobe Illustrator 19.2.1, SVG Export Plug-In . SVG Version: 6.00 Build 0)  -->
<!DOCTYPE svg PUBLIC "-//W3C//DTD SVG 1.1//EN" "http://www.w3.org/Graphics/SVG/1.1/DTD/svg11.dtd">
<svg version="1.1" id="Layer_1" xmlns="http://www.w3.org/2000/svg" xmlns:xlink="http://www.w3.org/1999/xlink" x="0px" y="0px"
	 viewBox="0 0 210.3 150.7" style="enable-background:new 0 0 210.3 150.7;" xml:space="preserve">
<g>
	
		<rect x="86.5" y="103.8" style="fill:none;stroke:#FFFFFF;stroke-width:1.2543;stroke-miterlimit:10;" width="37.3" height="10.2"/>
	<g>
		<path style="fill:#FFFFFF;" d="M25.5,48.7c5.1,0-2.4-20.1,2.1-25.8c5.1-6.6,4.3-15.8-2.1-15.8s-7.2,9.2-2.1,15.8
			C27.8,28.6,20.4,48.7,25.5,48.7z"/>
		<path style="fill:#FFFFFF;" d="M38.7,48.7c5.1,0-2.4-20.1,2.1-25.8c5.1-6.6,4.3-15.8-2.1-15.8s-7.2,9.2-2.1,15.8
			C41.1,28.6,33.7,48.7,38.7,48.7z"/>
		<path style="fill:#FFFFFF;" d="M52,48.7c5.1,0-2.4-20.1,2.1-25.8c5.1-6.6,4.3-15.8-2.1-15.8s-7.2,9.2-2.1,15.8
			C54.4,28.6,47,48.7,52,48.7z"/>
		<path style="fill:#FFFFFF;" d="M65.3,48.7c5.1,0-2.4-20.1,2.1-25.8c5.1-6.6,4.3-15.8-2.1-15.8s-7.2,9.2-2.1,15.8
			C67.7,28.6,60.2,48.7,65.3,48.7z"/>
		<path style="fill:#FFFFFF;" d="M78.6,48.7c5.1,0-2.4-20.1,2.1-25.8c5.1-6.6,4.3-15.8-2.1-15.8s-7.2,9.2-2.1,15.8
			C80.9,28.6,73.5,48.7,78.6,48.7z"/>
		<path style="fill:#FFFFFF;" d="M91.9,48.7c5.1,0-2.4-20.1,2.1-25.8c5.1-6.6,4.3-15.8-2.1-15.8c-6.3,0-7.2,9.2-2.1,15.8
			C94.2,28.6,86.8,48.7,91.9,48.7z"/>
		<path style="fill:#FFFFFF;" d="M105.1,48.7c5.1,0-2.4-20.1,2.1-25.8c5.1-6.6,4.3-15.8-2.1-15.8c-6.3,0-7.2,9.2-2.1,15.8
			C107.5,28.6,100.1,48.7,105.1,48.7z"/>
		<path style="fill:#FFFFFF;" d="M118.4,48.7c5.1,0-2.4-20.1,2.1-25.8c5.1-6.6,4.3-15.8-2.1-15.8s-7.2,9.2-2.1,15.8
			C120.8,28.6,113.4,48.7,118.4,48.7z"/>
		<path style="fill:#FFFFFF;" d="M38.7,48.7c5.1,0-2.4-20.1,2.1-25.8c5.1-6.6,4.3-15.8-2.1-15.8s-7.2,9.2-2.1,15.8
			C41.1,28.6,33.7,48.7,38.7,48.7z"/>
		<path style="fill:#FFFFFF;" d="M52,48.7c5.1,0-2.4-20.1,2.1-25.8c5.1-6.6,4.3-15.8-2.1-15.8s-7.2,9.2-2.1,15.8
			C54.4,28.6,47,48.7,52,48.7z"/>
		<path style="fill:#FFFFFF;" d="M65.3,48.7c5.1,0-2.4-20.1,2.1-25.8c5.1-6.6,4.3-15.8-2.1-15.8s-7.2,9.2-2.1,15.8
			C67.7,28.6,60.2,48.7,65.3,48.7z"/>
		<path style="fill:#FFFFFF;" d="M78.6,48.7c5.1,0-2.4-20.1,2.1-25.8c5.1-6.6,4.3-15.8-2.1-15.8s-7.2,9.2-2.1,15.8
			C80.9,28.6,73.5,48.7,78.6,48.7z"/>
		<path style="fill:#FFFFFF;" d="M91.9,48.7c5.1,0-2.4-20.1,2.1-25.8c5.1-6.6,4.3-15.8-2.1-15.8c-6.3,0-7.2,9.2-2.1,15.8
			C94.2,28.6,86.8,48.7,91.9,48.7z"/>
		<path style="fill:#FFFFFF;" d="M105.1,48.7c5.1,0-2.4-20.1,2.1-25.8c5.1-6.6,4.3-15.8-2.1-15.8c-6.3,0-7.2,9.2-2.1,15.8
			C107.5,28.6,100.1,48.7,105.1,48.7z"/>
		<path style="fill:#FFFFFF;" d="M118.4,48.7c5.1,0-2.4-20.1,2.1-25.8c5.1-6.6,4.3-15.8-2.1-15.8s-7.2,9.2-2.1,15.8
			C120.8,28.6,113.4,48.7,118.4,48.7z"/>
		<path style="fill:#FFFFFF;" d="M131.7,48.7c5.1,0-2.4-20.1,2.1-25.8c5.1-6.6,4.3-15.8-2.1-15.8s-7.2,9.2-2.1,15.8
			C134.1,28.6,126.6,48.7,131.7,48.7z"/>
		<path style="fill:#FFFFFF;" d="M52,48.7c5.1,0-2.4-20.1,2.1-25.8c5.1-6.6,4.3-15.8-2.1-15.8s-7.2,9.2-2.1,15.8
			C54.4,28.6,47,48.7,52,48.7z"/>
		<path style="fill:#FFFFFF;" d="M65.3,48.7c5.1,0-2.4-20.1,2.1-25.8c5.1-6.6,4.3-15.8-2.1-15.8s-7.2,9.2-2.1,15.8
			C67.7,28.6,60.2,48.7,65.3,48.7z"/>
		<path style="fill:#FFFFFF;" d="M78.6,48.7c5.1,0-2.4-20.1,2.1-25.8c5.1-6.6,4.3-15.8-2.1-15.8s-7.2,9.2-2.1,15.8
			C80.9,28.6,73.5,48.7,78.6,48.7z"/>
		<path style="fill:#FFFFFF;" d="M91.9,48.7c5.1,0-2.4-20.1,2.1-25.8c5.1-6.6,4.3-15.8-2.1-15.8c-6.3,0-7.2,9.2-2.1,15.8
			C94.2,28.6,86.8,48.7,91.9,48.7z"/>
		<path style="fill:#FFFFFF;" d="M105.1,48.7c5.1,0-2.4-20.1,2.1-25.8c5.1-6.6,4.3-15.8-2.1-15.8c-6.3,0-7.2,9.2-2.1,15.8
			C107.5,28.6,100.1,48.7,105.1,48.7z"/>
		<path style="fill:#FFFFFF;" d="M118.4,48.7c5.1,0-2.4-20.1,2.1-25.8c5.1-6.6,4.3-15.8-2.1-15.8s-7.2,9.2-2.1,15.8
			C120.8,28.6,113.4,48.7,118.4,48.7z"/>
		<path style="fill:#FFFFFF;" d="M131.7,48.7c5.1,0-2.4-20.1,2.1-25.8c5.1-6.6,4.3-15.8-2.1-15.8s-7.2,9.2-2.1,15.8
			C134.1,28.6,126.6,48.7,131.7,48.7z"/>
		<path style="fill:#FFFFFF;" d="M145,48.7c5.1,0-2.4-20.1,2.1-25.8c5.1-6.6,4.3-15.8-2.1-15.8c-6.3,0-7.2,9.2-2.1,15.8
			C147.4,28.6,139.9,48.7,145,48.7z"/>
		<path style="fill:#FFFFFF;" d="M65.3,48.7c5.1,0-2.4-20.1,2.1-25.8c5.1-6.6,4.3-15.8-2.1-15.8s-7.2,9.2-2.1,15.8
			C67.7,28.6,60.2,48.7,65.3,48.7z"/>
		<path style="fill:#FFFFFF;" d="M78.6,48.7c5.1,0-2.4-20.1,2.1-25.8c5.1-6.6,4.3-15.8-2.1-15.8s-7.2,9.2-2.1,15.8
			C80.9,28.6,73.5,48.7,78.6,48.7z"/>
		<path style="fill:#FFFFFF;" d="M91.9,48.7c5.1,0-2.4-20.1,2.1-25.8c5.1-6.6,4.3-15.8-2.1-15.8c-6.3,0-7.2,9.2-2.1,15.8
			C94.2,28.6,86.8,48.7,91.9,48.7z"/>
		<path style="fill:#FFFFFF;" d="M105.1,48.7c5.1,0-2.4-20.1,2.1-25.8c5.1-6.6,4.3-15.8-2.1-15.8c-6.3,0-7.2,9.2-2.1,15.8
			C107.5,28.6,100.1,48.7,105.1,48.7z"/>
		<path style="fill:#FFFFFF;" d="M118.4,48.7c5.1,0-2.4-20.1,2.1-25.8c5.1-6.6,4.3-15.8-2.1-15.8s-7.2,9.2-2.1,15.8
			C120.8,28.6,113.4,48.7,118.4,48.7z"/>
		<path style="fill:#FFFFFF;" d="M131.7,48.7c5.1,0-2.4-20.1,2.1-25.8c5.1-6.6,4.3-15.8-2.1-15.8s-7.2,9.2-2.1,15.8
			C134.1,28.6,126.6,48.7,131.7,48.7z"/>
		<path style="fill:#FFFFFF;" d="M145,48.7c5.1,0-2.4-20.1,2.1-25.8c5.1-6.6,4.3-15.8-2.1-15.8c-6.3,0-7.2,9.2-2.1,15.8
			C147.4,28.6,139.9,48.7,145,48.7z"/>
		<path style="fill:#FFFFFF;" d="M158.3,48.7c5.1,0-2.4-20.1,2.1-25.8c5.1-6.6,4.3-15.8-2.1-15.8c-6.3,0-7.2,9.2-2.1,15.8
			C160.6,28.6,153.2,48.7,158.3,48.7z"/>
		<path style="fill:#FFFFFF;" d="M78.6,48.7c5.1,0-2.4-20.1,2.1-25.8c5.1-6.6,4.3-15.8-2.1-15.8s-7.2,9.2-2.1,15.8
			C80.9,28.6,73.5,48.7,78.6,48.7z"/>
		<path style="fill:#FFFFFF;" d="M91.9,48.7c5.1,0-2.4-20.1,2.1-25.8c5.1-6.6,4.3-15.8-2.1-15.8c-6.3,0-7.2,9.2-2.1,15.8
			C94.2,28.6,86.8,48.7,91.9,48.7z"/>
		<path style="fill:#FFFFFF;" d="M105.1,48.7c5.1,0-2.4-20.1,2.1-25.8c5.1-6.6,4.3-15.8-2.1-15.8c-6.3,0-7.2,9.2-2.1,15.8
			C107.5,28.6,100.1,48.7,105.1,48.7z"/>
		<path style="fill:#FFFFFF;" d="M118.4,48.7c5.1,0-2.4-20.1,2.1-25.8c5.1-6.6,4.3-15.8-2.1-15.8s-7.2,9.2-2.1,15.8
			C120.8,28.6,113.4,48.7,118.4,48.7z"/>
		<path style="fill:#FFFFFF;" d="M131.7,48.7c5.1,0-2.4-20.1,2.1-25.8c5.1-6.6,4.3-15.8-2.1-15.8s-7.2,9.2-2.1,15.8
			C134.1,28.6,126.6,48.7,131.7,48.7z"/>
		<path style="fill:#FFFFFF;" d="M145,48.7c5.1,0-2.4-20.1,2.1-25.8c5.1-6.6,4.3-15.8-2.1-15.8c-6.3,0-7.2,9.2-2.1,15.8
			C147.4,28.6,139.9,48.7,145,48.7z"/>
		<path style="fill:#FFFFFF;" d="M158.3,48.7c5.1,0-2.4-20.1,2.1-25.8c5.1-6.6,4.3-15.8-2.1-15.8c-6.3,0-7.2,9.2-2.1,15.8
			C160.6,28.6,153.2,48.7,158.3,48.7z"/>
		<path style="fill:#FFFFFF;" d="M171.6,48.7c5.1,0-2.4-20.1,2.1-25.8c5.1-6.6,4.3-15.8-2.1-15.8c-6.3,0-7.2,9.2-2.1,15.8
			C173.9,28.6,166.5,48.7,171.6,48.7z"/>
		<path style="fill:#FFFFFF;" d="M91.9,48.7c5.1,0-2.4-20.1,2.1-25.8c5.1-6.6,4.3-15.8-2.1-15.8c-6.3,0-7.2,9.2-2.1,15.8
			C94.2,28.6,86.8,48.7,91.9,48.7z"/>
		<path style="fill:#FFFFFF;" d="M105.1,48.7c5.1,0-2.4-20.1,2.1-25.8c5.1-6.6,4.3-15.8-2.1-15.8c-6.3,0-7.2,9.2-2.1,15.8
			C107.5,28.6,100.1,48.7,105.1,48.7z"/>
		<path style="fill:#FFFFFF;" d="M118.4,48.7c5.1,0-2.4-20.1,2.1-25.8c5.1-6.6,4.3-15.8-2.1-15.8s-7.2,9.2-2.1,15.8
			C120.8,28.6,113.4,48.7,118.4,48.7z"/>
		<path style="fill:#FFFFFF;" d="M131.7,48.7c5.1,0-2.4-20.1,2.1-25.8c5.1-6.6,4.3-15.8-2.1-15.8s-7.2,9.2-2.1,15.8
			C134.1,28.6,126.6,48.7,131.7,48.7z"/>
		<path style="fill:#FFFFFF;" d="M145,48.7c5.1,0-2.4-20.1,2.1-25.8c5.1-6.6,4.3-15.8-2.1-15.8c-6.3,0-7.2,9.2-2.1,15.8
			C147.4,28.6,139.9,48.7,145,48.7z"/>
		<path style="fill:#FFFFFF;" d="M158.3,48.7c5.1,0-2.4-20.1,2.1-25.8c5.1-6.6,4.3-15.8-2.1-15.8c-6.3,0-7.2,9.2-2.1,15.8
			C160.6,28.6,153.2,48.7,158.3,48.7z"/>
		<path style="fill:#FFFFFF;" d="M171.6,48.7c5.1,0-2.4-20.1,2.1-25.8c5.1-6.6,4.3-15.8-2.1-15.8c-6.3,0-7.2,9.2-2.1,15.8
			C173.9,28.6,166.5,48.7,171.6,48.7z"/>
		<path style="fill:#FFFFFF;" d="M184.8,48.7c5.1,0-2.4-20.1,2.1-25.8c5.1-6.6,4.3-15.8-2.1-15.8c-6.3,0-7.2,9.2-2.1,15.8
			C187.2,28.6,179.8,48.7,184.8,48.7z"/>
		<path style="fill:#FFFFFF;" d="M25.5,96.3c5.1,0-2.4-20.1,2.1-25.8c5.1-6.6,4.3-15.8-2.1-15.8s-7.2,9.2-2.1,15.8
			C27.8,76.2,20.4,96.3,25.5,96.3z"/>
		<path style="fill:#FFFFFF;" d="M38.7,96.3c5.1,0-2.4-20.1,2.1-25.8c5.1-6.6,4.3-15.8-2.1-15.8s-7.2,9.2-2.1,15.8
			C41.1,76.2,33.7,96.3,38.7,96.3z"/>
		<path style="fill:#FFFFFF;" d="M52,96.3c5.1,0-2.4-20.1,2.1-25.8c5.1-6.6,4.3-15.8-2.1-15.8s-7.2,9.2-2.1,15.8
			C54.4,76.2,47,96.3,52,96.3z"/>
		<path style="fill:#FFFFFF;" d="M65.3,96.3c5.1,0-2.4-20.1,2.1-25.8c5.1-6.6,4.3-15.8-2.1-15.8s-7.2,9.2-2.1,15.8
			C67.7,76.2,60.2,96.3,65.3,96.3z"/>
		<path style="fill:#FFFFFF;" d="M78.6,96.3c5.1,0-2.4-20.1,2.1-25.8c5.1-6.6,4.3-15.8-2.1-15.8s-7.2,9.2-2.1,15.8
			C80.9,76.2,73.5,96.3,78.6,96.3z"/>
		<path style="fill:#FFFFFF;" d="M91.9,96.3c5.1,0-2.4-20.1,2.1-25.8c5.1-6.6,4.3-15.8-2.1-15.8c-6.3,0-7.2,9.2-2.1,15.8
			C94.2,76.2,86.8,96.3,91.9,96.3z"/>
		<path style="fill:#FFFFFF;" d="M105.1,96.3c5.1,0-2.4-20.1,2.1-25.8c5.1-6.6,4.3-15.8-2.1-15.8c-6.3,0-7.2,9.2-2.1,15.8
			C107.5,76.2,100.1,96.3,105.1,96.3z"/>
		<path style="fill:#FFFFFF;" d="M118.4,96.3c5.1,0-2.4-20.1,2.1-25.8c5.1-6.6,4.3-15.8-2.1-15.8s-7.2,9.2-2.1,15.8
			C120.8,76.2,113.4,96.3,118.4,96.3z"/>
		<path style="fill:#FFFFFF;" d="M38.7,96.3c5.1,0-2.4-20.1,2.1-25.8c5.1-6.6,4.3-15.8-2.1-15.8s-7.2,9.2-2.1,15.8
			C41.1,76.2,33.7,96.3,38.7,96.3z"/>
		<path style="fill:#FFFFFF;" d="M52,96.3c5.1,0-2.4-20.1,2.1-25.8c5.1-6.6,4.3-15.8-2.1-15.8s-7.2,9.2-2.1,15.8
			C54.4,76.2,47,96.3,52,96.3z"/>
		<path style="fill:#FFFFFF;" d="M65.3,96.3c5.1,0-2.4-20.1,2.1-25.8c5.1-6.6,4.3-15.8-2.1-15.8s-7.2,9.2-2.1,15.8
			C67.7,76.2,60.2,96.3,65.3,96.3z"/>
		<path style="fill:#FFFFFF;" d="M78.6,96.3c5.1,0-2.4-20.1,2.1-25.8c5.1-6.6,4.3-15.8-2.1-15.8s-7.2,9.2-2.1,15.8
			C80.9,76.2,73.5,96.3,78.6,96.3z"/>
		<path style="fill:#FFFFFF;" d="M91.9,96.3c5.1,0-2.4-20.1,2.1-25.8c5.1-6.6,4.3-15.8-2.1-15.8c-6.3,0-7.2,9.2-2.1,15.8
			C94.2,76.2,86.8,96.3,91.9,96.3z"/>
		<path style="fill:#FFFFFF;" d="M105.1,96.3c5.1,0-2.4-20.1,2.1-25.8c5.1-6.6,4.3-15.8-2.1-15.8c-6.3,0-7.2,9.2-2.1,15.8
			C107.5,76.2,100.1,96.3,105.1,96.3z"/>
		<path style="fill:#FFFFFF;" d="M118.4,96.3c5.1,0-2.4-20.1,2.1-25.8c5.1-6.6,4.3-15.8-2.1-15.8s-7.2,9.2-2.1,15.8
			C120.8,76.2,113.4,96.3,118.4,96.3z"/>
		<path style="fill:#FFFFFF;" d="M131.7,96.3c5.1,0-2.4-20.1,2.1-25.8c5.1-6.6,4.3-15.8-2.1-15.8s-7.2,9.2-2.1,15.8
			C134.1,76.2,126.6,96.3,131.7,96.3z"/>
		<path style="fill:#FFFFFF;" d="M52,96.3c5.1,0-2.4-20.1,2.1-25.8c5.1-6.6,4.3-15.8-2.1-15.8s-7.2,9.2-2.1,15.8
			C54.4,76.2,47,96.3,52,96.3z"/>
		<path style="fill:#FFFFFF;" d="M65.3,96.3c5.1,0-2.4-20.1,2.1-25.8c5.1-6.6,4.3-15.8-2.1-15.8s-7.2,9.2-2.1,15.8
			C67.7,76.2,60.2,96.3,65.3,96.3z"/>
		<path style="fill:#FFFFFF;" d="M78.6,96.3c5.1,0-2.4-20.1,2.1-25.8c5.1-6.6,4.3-15.8-2.1-15.8s-7.2,9.2-2.1,15.8
			C80.9,76.2,73.5,96.3,78.6,96.3z"/>
		<path style="fill:#FFFFFF;" d="M91.9,96.3c5.1,0-2.4-20.1,2.1-25.8c5.1-6.6,4.3-15.8-2.1-15.8c-6.3,0-7.2,9.2-2.1,15.8
			C94.2,76.2,86.8,96.3,91.9,96.3z"/>
		<path style="fill:#FFFFFF;" d="M105.1,96.3c5.1,0-2.4-20.1,2.1-25.8c5.1-6.6,4.3-15.8-2.1-15.8c-6.3,0-7.2,9.2-2.1,15.8
			C107.5,76.2,100.1,96.3,105.1,96.3z"/>
		<path style="fill:#FFFFFF;" d="M118.4,96.3c5.1,0-2.4-20.1,2.1-25.8c5.1-6.6,4.3-15.8-2.1-15.8s-7.2,9.2-2.1,15.8
			C120.8,76.2,113.4,96.3,118.4,96.3z"/>
		<path style="fill:#FFFFFF;" d="M131.7,96.3c5.1,0-2.4-20.1,2.1-25.8c5.1-6.6,4.3-15.8-2.1-15.8s-7.2,9.2-2.1,15.8
			C134.1,76.2,126.6,96.3,131.7,96.3z"/>
		<path style="fill:#FFFFFF;" d="M145,96.3c5.1,0-2.4-20.1,2.1-25.8c5.1-6.6,4.3-15.8-2.1-15.8c-6.3,0-7.2,9.2-2.1,15.8
			C147.4,76.2,139.9,96.3,145,96.3z"/>
		<path style="fill:#FFFFFF;" d="M65.3,96.3c5.1,0-2.4-20.1,2.1-25.8c5.1-6.6,4.3-15.8-2.1-15.8s-7.2,9.2-2.1,15.8
			C67.7,76.2,60.2,96.3,65.3,96.3z"/>
		<path style="fill:#FFFFFF;" d="M78.6,96.3c5.1,0-2.4-20.1,2.1-25.8c5.1-6.6,4.3-15.8-2.1-15.8s-7.2,9.2-2.1,15.8
			C80.9,76.2,73.5,96.3,78.6,96.3z"/>
		<path style="fill:#FFFFFF;" d="M91.9,96.3c5.1,0-2.4-20.1,2.1-25.8c5.1-6.6,4.3-15.8-2.1-15.8c-6.3,0-7.2,9.2-2.1,15.8
			C94.2,76.2,86.8,96.3,91.9,96.3z"/>
		<path style="fill:#FFFFFF;" d="M105.1,96.3c5.1,0-2.4-20.1,2.1-25.8c5.1-6.6,4.3-15.8-2.1-15.8c-6.3,0-7.2,9.2-2.1,15.8
			C107.5,76.2,100.1,96.3,105.1,96.3z"/>
		<path style="fill:#FFFFFF;" d="M118.4,96.3c5.1,0-2.4-20.1,2.1-25.8c5.1-6.6,4.3-15.8-2.1-15.8s-7.2,9.2-2.1,15.8
			C120.8,76.2,113.4,96.3,118.4,96.3z"/>
		<path style="fill:#FFFFFF;" d="M131.7,96.3c5.1,0-2.4-20.1,2.1-25.8c5.1-6.6,4.3-15.8-2.1-15.8s-7.2,9.2-2.1,15.8
			C134.1,76.2,126.6,96.3,131.7,96.3z"/>
		<path style="fill:#FFFFFF;" d="M145,96.3c5.1,0-2.4-20.1,2.1-25.8c5.1-6.6,4.3-15.8-2.1-15.8c-6.3,0-7.2,9.2-2.1,15.8
			C147.4,76.2,139.9,96.3,145,96.3z"/>
		<path style="fill:#FFFFFF;" d="M158.3,96.3c5.1,0-2.4-20.1,2.1-25.8c5.1-6.6,4.3-15.8-2.1-15.8c-6.3,0-7.2,9.2-2.1,15.8
			C160.6,76.2,153.2,96.3,158.3,96.3z"/>
		<path style="fill:#FFFFFF;" d="M78.6,96.3c5.1,0-2.4-20.1,2.1-25.8c5.1-6.6,4.3-15.8-2.1-15.8s-7.2,9.2-2.1,15.8
			C80.9,76.2,73.5,96.3,78.6,96.3z"/>
		<path style="fill:#FFFFFF;" d="M91.9,96.3c5.1,0-2.4-20.1,2.1-25.8c5.1-6.6,4.3-15.8-2.1-15.8c-6.3,0-7.2,9.2-2.1,15.8
			C94.2,76.2,86.8,96.3,91.9,96.3z"/>
		<path style="fill:#FFFFFF;" d="M105.1,96.3c5.1,0-2.4-20.1,2.1-25.8c5.1-6.6,4.3-15.8-2.1-15.8c-6.3,0-7.2,9.2-2.1,15.8
			C107.5,76.2,100.1,96.3,105.1,96.3z"/>
		<path style="fill:#FFFFFF;" d="M118.4,96.3c5.1,0-2.4-20.1,2.1-25.8c5.1-6.6,4.3-15.8-2.1-15.8s-7.2,9.2-2.1,15.8
			C120.8,76.2,113.4,96.3,118.4,96.3z"/>
		<path style="fill:#FFFFFF;" d="M131.7,96.3c5.1,0-2.4-20.1,2.1-25.8c5.1-6.6,4.3-15.8-2.1-15.8s-7.2,9.2-2.1,15.8
			C134.1,76.2,126.6,96.3,131.7,96.3z"/>
		<path style="fill:#FFFFFF;" d="M145,96.3c5.1,0-2.4-20.1,2.1-25.8c5.1-6.6,4.3-15.8-2.1-15.8c-6.3,0-7.2,9.2-2.1,15.8
			C147.4,76.2,139.9,96.3,145,96.3z"/>
		<path style="fill:#FFFFFF;" d="M158.3,96.3c5.1,0-2.4-20.1,2.1-25.8c5.1-6.6,4.3-15.8-2.1-15.8c-6.3,0-7.2,9.2-2.1,15.8
			C160.6,76.2,153.2,96.3,158.3,96.3z"/>
		<path style="fill:#FFFFFF;" d="M171.6,96.3c5.1,0-2.4-20.1,2.1-25.8c5.1-6.6,4.3-15.8-2.1-15.8c-6.3,0-7.2,9.2-2.1,15.8
			C173.9,76.2,166.5,96.3,171.6,96.3z"/>
		<path style="fill:#FFFFFF;" d="M91.9,96.3c5.1,0-2.4-20.1,2.1-25.8c5.1-6.6,4.3-15.8-2.1-15.8c-6.3,0-7.2,9.2-2.1,15.8
			C94.2,76.2,86.8,96.3,91.9,96.3z"/>
		<path style="fill:#FFFFFF;" d="M105.1,96.3c5.1,0-2.4-20.1,2.1-25.8c5.1-6.6,4.3-15.8-2.1-15.8c-6.3,0-7.2,9.2-2.1,15.8
			C107.5,76.2,100.1,96.3,105.1,96.3z"/>
		<path style="fill:#FFFFFF;" d="M118.4,96.3c5.1,0-2.4-20.1,2.1-25.8c5.1-6.6,4.3-15.8-2.1-15.8s-7.2,9.2-2.1,15.8
			C120.8,76.2,113.4,96.3,118.4,96.3z"/>
		<path style="fill:#FFFFFF;" d="M131.7,96.3c5.1,0-2.4-20.1,2.1-25.8c5.1-6.6,4.3-15.8-2.1-15.8s-7.2,9.2-2.1,15.8
			C134.1,76.2,126.6,96.3,131.7,96.3z"/>
		<path style="fill:#FFFFFF;" d="M145,96.3c5.1,0-2.4-20.1,2.1-25.8c5.1-6.6,4.3-15.8-2.1-15.8c-6.3,0-7.2,9.2-2.1,15.8
			C147.4,76.2,139.9,96.3,145,96.3z"/>
		<path style="fill:#FFFFFF;" d="M158.3,96.3c5.1,0-2.4-20.1,2.1-25.8c5.1-6.6,4.3-15.8-2.1-15.8c-6.3,0-7.2,9.2-2.1,15.8
			C160.6,76.2,153.2,96.3,158.3,96.3z"/>
		<path style="fill:#FFFFFF;" d="M171.6,96.3c5.1,0-2.4-20.1,2.1-25.8c5.1-6.6,4.3-15.8-2.1-15.8c-6.3,0-7.2,9.2-2.1,15.8
			C173.9,76.2,166.5,96.3,171.6,96.3z"/>
		<path style="fill:#FFFFFF;" d="M184.8,96.3c5.1,0-2.4-20.1,2.1-25.8c5.1-6.6,4.3-15.8-2.1-15.8c-6.3,0-7.2,9.2-2.1,15.8
			C187.2,76.2,179.8,96.3,184.8,96.3z"/>
	</g>
	<polyline style="fill:none;stroke:#FBED21;stroke-width:1.2543;stroke-miterlimit:10;" points="201.2,87.4 184.8,103.8 25.5,103.8 
		9.1,87.4 	"/>
	<path style="fill:#F79420;stroke:#FFFFFF;stroke-width:1.2543;stroke-miterlimit:10;" d="M195.6,143H14.7c-3.1,0-5.6-2.5-5.6-5.6
		v-17.9c0-3.1,2.5-5.6,5.6-5.6h180.9c3.1,0,5.6,2.5,5.6,5.6v17.9C201.2,140.5,198.7,143,195.6,143z"/>
	<path style="fill:#764D2A;stroke:#FFFFFF;stroke-width:1.2543;stroke-miterlimit:10;" d="M139.7,117.6H70.6c-1.6,0-2.9,1.3-2.9,2.9
		v15.9c0,1.6,1.3,2.9,2.9,2.9h69.2c1.6,0,2.9-1.3,2.9-2.9v-15.9C142.6,118.9,141.3,117.6,139.7,117.6z"/>
	<g>
		<rect x="82.1" y="122.6" style="fill:none;" width="48.2" height="13.1"/>
		<path style="fill:#FFFFFF;" d="M85,124.2l-1.5,1.1v-1.6l1.5-1.1h1.5v10.7H85V124.2z"/>
		<path style="fill:#FFFFFF;" d="M92.2,124.2l-1.5,1.1v-1.6l1.5-1.1h1.5v10.7h-1.5V124.2z"/>
		<path style="fill:#FFFFFF;" d="M97.1,125.6c0-1,0.3-1.7,0.9-2.3c0.6-0.5,1.2-0.8,2-0.8s1.5,0.3,2.1,0.8s0.9,1.3,0.9,2.3v4.7
			c0,1-0.3,1.7-0.9,2.3c-0.6,0.5-1.3,0.8-2.1,0.8c-0.8,0-1.5-0.3-2-0.8c-0.6-0.5-0.9-1.3-0.9-2.3V125.6z M101.5,125.7
			c0-1.1-0.5-1.6-1.5-1.6s-1.4,0.6-1.5,1.6v4.6c0,1.1,0.5,1.6,1.5,1.6c0.9,0,1.4-0.6,1.5-1.6V125.7z"/>
		<path style="fill:#FFFFFF;" d="M104.8,131.8h1.5v1.5h-1.5V131.8z"/>
		<path style="fill:#FFFFFF;" d="M108,125.6c0-1,0.3-1.7,0.9-2.3c0.6-0.5,1.2-0.8,2-0.8s1.5,0.3,2.1,0.8s0.9,1.3,0.9,2.3v4.7
			c0,1-0.3,1.7-0.9,2.3c-0.6,0.5-1.3,0.8-2.1,0.8c-0.8,0-1.5-0.3-2-0.8c-0.6-0.5-0.9-1.3-0.9-2.3V125.6z M112.4,125.7
			c0-1.1-0.5-1.6-1.5-1.6s-1.4,0.6-1.5,1.6v4.6c0,1.1,0.5,1.6,1.5,1.6c0.9,0,1.4-0.6,1.5-1.6V125.7z"/>
		<path style="fill:#FFFFFF;" d="M123.4,132.5c-0.5,0.6-1.1,0.9-1.9,0.9c-0.5,0-0.9-0.1-1.2-0.3c-0.3-0.2-0.6-0.4-0.8-0.6
			c-0.2-0.2-0.3-0.6-0.4-0.9c-0.1-0.4-0.1-1-0.1-2s0-1.7,0.1-2.1s0.2-0.7,0.4-0.9c0.2-0.2,0.4-0.5,0.8-0.6c0.3-0.2,0.7-0.3,1.2-0.3
			c0.7,0,1.4,0.3,1.9,0.9v-0.8h1.5v7.4c0,1.1-0.3,2-1,2.5c-0.6,0.6-1.4,0.8-2.2,0.8c-1,0-1.9-0.4-2.6-1.3l1.2-0.9
			c0.2,0.2,0.4,0.3,0.7,0.5c0.3,0.1,0.5,0.2,0.8,0.2c0.5,0,0.9-0.1,1.2-0.4s0.5-0.7,0.5-1.2v-0.9H123.4z M120.4,129.5
			c0,0.6,0,1,0.1,1.2c0,0.2,0.1,0.4,0.2,0.6c0.1,0.1,0.3,0.3,0.5,0.4s0.4,0.2,0.7,0.2c0.3,0,0.5-0.1,0.7-0.2s0.3-0.2,0.4-0.4
			c0.1-0.2,0.2-0.3,0.2-0.6c0-0.2,0-0.6,0-1.2s0-1,0-1.2s-0.1-0.4-0.2-0.6c-0.1-0.1-0.2-0.3-0.4-0.4s-0.4-0.2-0.7-0.2
			s-0.5,0.1-0.7,0.2s-0.4,0.3-0.5,0.4s-0.2,0.3-0.2,0.6C120.5,128.5,120.4,128.9,120.4,129.5z"/>
	</g>
</g>
</svg>
