<?xml version="1.0" encoding="utf-8"?>
<!-- Generator: Adobe Illustrator 18.1.1, SVG Export Plug-In . SVG Version: 6.00 Build 0)  -->
<!DOCTYPE svg PUBLIC "-//W3C//DTD SVG 1.1//EN" "http://www.w3.org/Graphics/SVG/1.1/DTD/svg11.dtd">
<svg version="1.1" id="Layer_1" xmlns="http://www.w3.org/2000/svg" xmlns:xlink="http://www.w3.org/1999/xlink" x="0px" y="0px"
	 width="210.3px" height="150.7px" viewBox="6.3 229.8 210.3 150.7" style="enable-background:new 6.3 229.8 210.3 150.7;"
	 xml:space="preserve">
<style type="text/css">
	.st0{fill:none;stroke:#FFFFFF;stroke-width:1.2543;stroke-miterlimit:10;}
	.st1{fill:#FFFFFF;}
	.st2{fill:none;stroke:#FBED21;stroke-width:1.2543;stroke-miterlimit:10;}
	.st3{fill:#F79420;stroke:#FFFFFF;stroke-width:1.2543;stroke-miterlimit:10;}
	.st4{fill:#764D2A;stroke:#FFFFFF;stroke-width:1.2543;stroke-miterlimit:10;}
	.st5{fill:none;}
</style>
<g>
	<rect x="92.5" y="335" class="st0" width="37.3" height="10.2"/>
	<g>
		<path class="st1" d="M31.5,279.9c5.1,0-2.4-20.1,2.1-25.8c5.1-6.6,4.3-15.8-2.1-15.8s-7.2,9.2-2.1,15.8
			C33.8,259.8,26.4,279.9,31.5,279.9z"/>
		<path class="st1" d="M44.7,279.9c5.1,0-2.4-20.1,2.1-25.8c5.1-6.6,4.3-15.8-2.1-15.8s-7.2,9.2-2.1,15.8
			C47.1,259.8,39.7,279.9,44.7,279.9z"/>
		<path class="st1" d="M58,279.9c5.1,0-2.4-20.1,2.1-25.8c5.1-6.6,4.3-15.8-2.1-15.8s-7.2,9.2-2.1,15.8
			C60.4,259.8,53,279.9,58,279.9z"/>
		<path class="st1" d="M71.3,279.9c5.1,0-2.4-20.1,2.1-25.8c5.1-6.6,4.3-15.8-2.1-15.8s-7.2,9.2-2.1,15.8
			C73.7,259.8,66.2,279.9,71.3,279.9z"/>
		<path class="st1" d="M84.6,279.9c5.1,0-2.4-20.1,2.1-25.8c5.1-6.6,4.3-15.8-2.1-15.8s-7.2,9.2-2.1,15.8
			C86.9,259.8,79.5,279.9,84.6,279.9z"/>
		<path class="st1" d="M97.9,279.9c5.1,0-2.4-20.1,2.1-25.8c5.1-6.6,4.3-15.8-2.1-15.8c-6.3,0-7.2,9.2-2.1,15.8
			C100.2,259.8,92.8,279.9,97.9,279.9z"/>
		<path class="st1" d="M111.1,279.9c5.1,0-2.4-20.1,2.1-25.8c5.1-6.6,4.3-15.8-2.1-15.8c-6.3,0-7.2,9.2-2.1,15.8
			C113.5,259.8,106.1,279.9,111.1,279.9z"/>
		<path class="st1" d="M124.4,279.9c5.1,0-2.4-20.1,2.1-25.8c5.1-6.6,4.3-15.8-2.1-15.8s-7.2,9.2-2.1,15.8
			C126.8,259.8,119.4,279.9,124.4,279.9z"/>
		<path class="st1" d="M44.7,279.9c5.1,0-2.4-20.1,2.1-25.8c5.1-6.6,4.3-15.8-2.1-15.8s-7.2,9.2-2.1,15.8
			C47.1,259.8,39.7,279.9,44.7,279.9z"/>
		<path class="st1" d="M58,279.9c5.1,0-2.4-20.1,2.1-25.8c5.1-6.6,4.3-15.8-2.1-15.8s-7.2,9.2-2.1,15.8
			C60.4,259.8,53,279.9,58,279.9z"/>
		<path class="st1" d="M71.3,279.9c5.1,0-2.4-20.1,2.1-25.8c5.1-6.6,4.3-15.8-2.1-15.8s-7.2,9.2-2.1,15.8
			C73.7,259.8,66.2,279.9,71.3,279.9z"/>
		<path class="st1" d="M84.6,279.9c5.1,0-2.4-20.1,2.1-25.8c5.1-6.6,4.3-15.8-2.1-15.8s-7.2,9.2-2.1,15.8
			C86.9,259.8,79.5,279.9,84.6,279.9z"/>
		<path class="st1" d="M97.9,279.9c5.1,0-2.4-20.1,2.1-25.8c5.1-6.6,4.3-15.8-2.1-15.8c-6.3,0-7.2,9.2-2.1,15.8
			C100.2,259.8,92.8,279.9,97.9,279.9z"/>
		<path class="st1" d="M111.1,279.9c5.1,0-2.4-20.1,2.1-25.8c5.1-6.6,4.3-15.8-2.1-15.8c-6.3,0-7.2,9.2-2.1,15.8
			C113.5,259.8,106.1,279.9,111.1,279.9z"/>
		<path class="st1" d="M124.4,279.9c5.1,0-2.4-20.1,2.1-25.8c5.1-6.6,4.3-15.8-2.1-15.8s-7.2,9.2-2.1,15.8
			C126.8,259.8,119.4,279.9,124.4,279.9z"/>
		<path class="st1" d="M137.7,279.9c5.1,0-2.4-20.1,2.1-25.8c5.1-6.6,4.3-15.8-2.1-15.8s-7.2,9.2-2.1,15.8
			C140.1,259.8,132.6,279.9,137.7,279.9z"/>
		<path class="st1" d="M58,279.9c5.1,0-2.4-20.1,2.1-25.8c5.1-6.6,4.3-15.8-2.1-15.8s-7.2,9.2-2.1,15.8
			C60.4,259.8,53,279.9,58,279.9z"/>
		<path class="st1" d="M71.3,279.9c5.1,0-2.4-20.1,2.1-25.8c5.1-6.6,4.3-15.8-2.1-15.8s-7.2,9.2-2.1,15.8
			C73.7,259.8,66.2,279.9,71.3,279.9z"/>
		<path class="st1" d="M84.6,279.9c5.1,0-2.4-20.1,2.1-25.8c5.1-6.6,4.3-15.8-2.1-15.8s-7.2,9.2-2.1,15.8
			C86.9,259.8,79.5,279.9,84.6,279.9z"/>
		<path class="st1" d="M97.9,279.9c5.1,0-2.4-20.1,2.1-25.8c5.1-6.6,4.3-15.8-2.1-15.8c-6.3,0-7.2,9.2-2.1,15.8
			C100.2,259.8,92.8,279.9,97.9,279.9z"/>
		<path class="st1" d="M111.1,279.9c5.1,0-2.4-20.1,2.1-25.8c5.1-6.6,4.3-15.8-2.1-15.8c-6.3,0-7.2,9.2-2.1,15.8
			C113.5,259.8,106.1,279.9,111.1,279.9z"/>
		<path class="st1" d="M124.4,279.9c5.1,0-2.4-20.1,2.1-25.8c5.1-6.6,4.3-15.8-2.1-15.8s-7.2,9.2-2.1,15.8
			C126.8,259.8,119.4,279.9,124.4,279.9z"/>
		<path class="st1" d="M137.7,279.9c5.1,0-2.4-20.1,2.1-25.8c5.1-6.6,4.3-15.8-2.1-15.8s-7.2,9.2-2.1,15.8
			C140.1,259.8,132.6,279.9,137.7,279.9z"/>
		<path class="st1" d="M151,279.9c5.1,0-2.4-20.1,2.1-25.8c5.1-6.6,4.3-15.8-2.1-15.8c-6.3,0-7.2,9.2-2.1,15.8
			C153.4,259.8,145.9,279.9,151,279.9z"/>
		<path class="st1" d="M71.3,279.9c5.1,0-2.4-20.1,2.1-25.8c5.1-6.6,4.3-15.8-2.1-15.8s-7.2,9.2-2.1,15.8
			C73.7,259.8,66.2,279.9,71.3,279.9z"/>
		<path class="st1" d="M84.6,279.9c5.1,0-2.4-20.1,2.1-25.8c5.1-6.6,4.3-15.8-2.1-15.8s-7.2,9.2-2.1,15.8
			C86.9,259.8,79.5,279.9,84.6,279.9z"/>
		<path class="st1" d="M97.9,279.9c5.1,0-2.4-20.1,2.1-25.8c5.1-6.6,4.3-15.8-2.1-15.8c-6.3,0-7.2,9.2-2.1,15.8
			C100.2,259.8,92.8,279.9,97.9,279.9z"/>
		<path class="st1" d="M111.1,279.9c5.1,0-2.4-20.1,2.1-25.8c5.1-6.6,4.3-15.8-2.1-15.8c-6.3,0-7.2,9.2-2.1,15.8
			C113.5,259.8,106.1,279.9,111.1,279.9z"/>
		<path class="st1" d="M124.4,279.9c5.1,0-2.4-20.1,2.1-25.8c5.1-6.6,4.3-15.8-2.1-15.8s-7.2,9.2-2.1,15.8
			C126.8,259.8,119.4,279.9,124.4,279.9z"/>
		<path class="st1" d="M137.7,279.9c5.1,0-2.4-20.1,2.1-25.8c5.1-6.6,4.3-15.8-2.1-15.8s-7.2,9.2-2.1,15.8
			C140.1,259.8,132.6,279.9,137.7,279.9z"/>
		<path class="st1" d="M151,279.9c5.1,0-2.4-20.1,2.1-25.8c5.1-6.6,4.3-15.8-2.1-15.8c-6.3,0-7.2,9.2-2.1,15.8
			C153.4,259.8,145.9,279.9,151,279.9z"/>
		<path class="st1" d="M164.3,279.9c5.1,0-2.4-20.1,2.1-25.8c5.1-6.6,4.3-15.8-2.1-15.8c-6.3,0-7.2,9.2-2.1,15.8
			C166.6,259.8,159.2,279.9,164.3,279.9z"/>
		<path class="st1" d="M84.6,279.9c5.1,0-2.4-20.1,2.1-25.8c5.1-6.6,4.3-15.8-2.1-15.8s-7.2,9.2-2.1,15.8
			C86.9,259.8,79.5,279.9,84.6,279.9z"/>
		<path class="st1" d="M97.9,279.9c5.1,0-2.4-20.1,2.1-25.8c5.1-6.6,4.3-15.8-2.1-15.8c-6.3,0-7.2,9.2-2.1,15.8
			C100.2,259.8,92.8,279.9,97.9,279.9z"/>
		<path class="st1" d="M111.1,279.9c5.1,0-2.4-20.1,2.1-25.8c5.1-6.6,4.3-15.8-2.1-15.8c-6.3,0-7.2,9.2-2.1,15.8
			C113.5,259.8,106.1,279.9,111.1,279.9z"/>
		<path class="st1" d="M124.4,279.9c5.1,0-2.4-20.1,2.1-25.8c5.1-6.6,4.3-15.8-2.1-15.8s-7.2,9.2-2.1,15.8
			C126.8,259.8,119.4,279.9,124.4,279.9z"/>
		<path class="st1" d="M137.7,279.9c5.1,0-2.4-20.1,2.1-25.8c5.1-6.6,4.3-15.8-2.1-15.8s-7.2,9.2-2.1,15.8
			C140.1,259.8,132.6,279.9,137.7,279.9z"/>
		<path class="st1" d="M151,279.9c5.1,0-2.4-20.1,2.1-25.8c5.1-6.6,4.3-15.8-2.1-15.8c-6.3,0-7.2,9.2-2.1,15.8
			C153.4,259.8,145.9,279.9,151,279.9z"/>
		<path class="st1" d="M164.3,279.9c5.1,0-2.4-20.1,2.1-25.8c5.1-6.6,4.3-15.8-2.1-15.8c-6.3,0-7.2,9.2-2.1,15.8
			C166.6,259.8,159.2,279.9,164.3,279.9z"/>
		<path class="st1" d="M177.6,279.9c5.1,0-2.4-20.1,2.1-25.8c5.1-6.6,4.3-15.8-2.1-15.8c-6.3,0-7.2,9.2-2.1,15.8
			C179.9,259.8,172.5,279.9,177.6,279.9z"/>
		<path class="st1" d="M97.9,279.9c5.1,0-2.4-20.1,2.1-25.8c5.1-6.6,4.3-15.8-2.1-15.8c-6.3,0-7.2,9.2-2.1,15.8
			C100.2,259.8,92.8,279.9,97.9,279.9z"/>
		<path class="st1" d="M111.1,279.9c5.1,0-2.4-20.1,2.1-25.8c5.1-6.6,4.3-15.8-2.1-15.8c-6.3,0-7.2,9.2-2.1,15.8
			C113.5,259.8,106.1,279.9,111.1,279.9z"/>
		<path class="st1" d="M124.4,279.9c5.1,0-2.4-20.1,2.1-25.8c5.1-6.6,4.3-15.8-2.1-15.8s-7.2,9.2-2.1,15.8
			C126.8,259.8,119.4,279.9,124.4,279.9z"/>
		<path class="st1" d="M137.7,279.9c5.1,0-2.4-20.1,2.1-25.8c5.1-6.6,4.3-15.8-2.1-15.8s-7.2,9.2-2.1,15.8
			C140.1,259.8,132.6,279.9,137.7,279.9z"/>
		<path class="st1" d="M151,279.9c5.1,0-2.4-20.1,2.1-25.8c5.1-6.6,4.3-15.8-2.1-15.8c-6.3,0-7.2,9.2-2.1,15.8
			C153.4,259.8,145.9,279.9,151,279.9z"/>
		<path class="st1" d="M164.3,279.9c5.1,0-2.4-20.1,2.1-25.8c5.1-6.6,4.3-15.8-2.1-15.8c-6.3,0-7.2,9.2-2.1,15.8
			C166.6,259.8,159.2,279.9,164.3,279.9z"/>
		<path class="st1" d="M177.6,279.9c5.1,0-2.4-20.1,2.1-25.8c5.1-6.6,4.3-15.8-2.1-15.8c-6.3,0-7.2,9.2-2.1,15.8
			C179.9,259.8,172.5,279.9,177.6,279.9z"/>
		<path class="st1" d="M190.8,279.9c5.1,0-2.4-20.1,2.1-25.8c5.1-6.6,4.3-15.8-2.1-15.8c-6.3,0-7.2,9.2-2.1,15.8
			C193.2,259.8,185.8,279.9,190.8,279.9z"/>
		<path class="st1" d="M31.5,327.5c5.1,0-2.4-20.1,2.1-25.8c5.1-6.6,4.3-15.8-2.1-15.8s-7.2,9.2-2.1,15.8
			C33.8,307.4,26.4,327.5,31.5,327.5z"/>
		<path class="st1" d="M44.7,327.5c5.1,0-2.4-20.1,2.1-25.8c5.1-6.6,4.3-15.8-2.1-15.8s-7.2,9.2-2.1,15.8
			C47.1,307.4,39.7,327.5,44.7,327.5z"/>
		<path class="st1" d="M58,327.5c5.1,0-2.4-20.1,2.1-25.8c5.1-6.6,4.3-15.8-2.1-15.8s-7.2,9.2-2.1,15.8
			C60.4,307.4,53,327.5,58,327.5z"/>
		<path class="st1" d="M71.3,327.5c5.1,0-2.4-20.1,2.1-25.8c5.1-6.6,4.3-15.8-2.1-15.8s-7.2,9.2-2.1,15.8
			C73.7,307.4,66.2,327.5,71.3,327.5z"/>
		<path class="st1" d="M84.6,327.5c5.1,0-2.4-20.1,2.1-25.8c5.1-6.6,4.3-15.8-2.1-15.8s-7.2,9.2-2.1,15.8
			C86.9,307.4,79.5,327.5,84.6,327.5z"/>
		<path class="st1" d="M97.9,327.5c5.1,0-2.4-20.1,2.1-25.8c5.1-6.6,4.3-15.8-2.1-15.8c-6.3,0-7.2,9.2-2.1,15.8
			C100.2,307.4,92.8,327.5,97.9,327.5z"/>
		<path class="st1" d="M111.1,327.5c5.1,0-2.4-20.1,2.1-25.8c5.1-6.6,4.3-15.8-2.1-15.8c-6.3,0-7.2,9.2-2.1,15.8
			C113.5,307.4,106.1,327.5,111.1,327.5z"/>
		<path class="st1" d="M124.4,327.5c5.1,0-2.4-20.1,2.1-25.8c5.1-6.6,4.3-15.8-2.1-15.8s-7.2,9.2-2.1,15.8
			C126.8,307.4,119.4,327.5,124.4,327.5z"/>
		<path class="st1" d="M44.7,327.5c5.1,0-2.4-20.1,2.1-25.8c5.1-6.6,4.3-15.8-2.1-15.8s-7.2,9.2-2.1,15.8
			C47.1,307.4,39.7,327.5,44.7,327.5z"/>
		<path class="st1" d="M58,327.5c5.1,0-2.4-20.1,2.1-25.8c5.1-6.6,4.3-15.8-2.1-15.8s-7.2,9.2-2.1,15.8
			C60.4,307.4,53,327.5,58,327.5z"/>
		<path class="st1" d="M71.3,327.5c5.1,0-2.4-20.1,2.1-25.8c5.1-6.6,4.3-15.8-2.1-15.8s-7.2,9.2-2.1,15.8
			C73.7,307.4,66.2,327.5,71.3,327.5z"/>
		<path class="st1" d="M84.6,327.5c5.1,0-2.4-20.1,2.1-25.8c5.1-6.6,4.3-15.8-2.1-15.8s-7.2,9.2-2.1,15.8
			C86.9,307.4,79.5,327.5,84.6,327.5z"/>
		<path class="st1" d="M97.9,327.5c5.1,0-2.4-20.1,2.1-25.8c5.1-6.6,4.3-15.8-2.1-15.8c-6.3,0-7.2,9.2-2.1,15.8
			C100.2,307.4,92.8,327.5,97.9,327.5z"/>
		<path class="st1" d="M111.1,327.5c5.1,0-2.4-20.1,2.1-25.8c5.1-6.6,4.3-15.8-2.1-15.8c-6.3,0-7.2,9.2-2.1,15.8
			C113.5,307.4,106.1,327.5,111.1,327.5z"/>
		<path class="st1" d="M124.4,327.5c5.1,0-2.4-20.1,2.1-25.8c5.1-6.6,4.3-15.8-2.1-15.8s-7.2,9.2-2.1,15.8
			C126.8,307.4,119.4,327.5,124.4,327.5z"/>
		<path class="st1" d="M137.7,327.5c5.1,0-2.4-20.1,2.1-25.8c5.1-6.6,4.3-15.8-2.1-15.8s-7.2,9.2-2.1,15.8
			C140.1,307.4,132.6,327.5,137.7,327.5z"/>
		<path class="st1" d="M58,327.5c5.1,0-2.4-20.1,2.1-25.8c5.1-6.6,4.3-15.8-2.1-15.8s-7.2,9.2-2.1,15.8
			C60.4,307.4,53,327.5,58,327.5z"/>
		<path class="st1" d="M71.3,327.5c5.1,0-2.4-20.1,2.1-25.8c5.1-6.6,4.3-15.8-2.1-15.8s-7.2,9.2-2.1,15.8
			C73.7,307.4,66.2,327.5,71.3,327.5z"/>
		<path class="st1" d="M84.6,327.5c5.1,0-2.4-20.1,2.1-25.8c5.1-6.6,4.3-15.8-2.1-15.8s-7.2,9.2-2.1,15.8
			C86.9,307.4,79.5,327.5,84.6,327.5z"/>
		<path class="st1" d="M97.9,327.5c5.1,0-2.4-20.1,2.1-25.8c5.1-6.6,4.3-15.8-2.1-15.8c-6.3,0-7.2,9.2-2.1,15.8
			C100.2,307.4,92.8,327.5,97.9,327.5z"/>
		<path class="st1" d="M111.1,327.5c5.1,0-2.4-20.1,2.1-25.8c5.1-6.6,4.3-15.8-2.1-15.8c-6.3,0-7.2,9.2-2.1,15.8
			C113.5,307.4,106.1,327.5,111.1,327.5z"/>
		<path class="st1" d="M124.4,327.5c5.1,0-2.4-20.1,2.1-25.8c5.1-6.6,4.3-15.8-2.1-15.8s-7.2,9.2-2.1,15.8
			C126.8,307.4,119.4,327.5,124.4,327.5z"/>
		<path class="st1" d="M137.7,327.5c5.1,0-2.4-20.1,2.1-25.8c5.1-6.6,4.3-15.8-2.1-15.8s-7.2,9.2-2.1,15.8
			C140.1,307.4,132.6,327.5,137.7,327.5z"/>
		<path class="st1" d="M151,327.5c5.1,0-2.4-20.1,2.1-25.8c5.1-6.6,4.3-15.8-2.1-15.8c-6.3,0-7.2,9.2-2.1,15.8
			C153.4,307.4,145.9,327.5,151,327.5z"/>
		<path class="st1" d="M71.3,327.5c5.1,0-2.4-20.1,2.1-25.8c5.1-6.6,4.3-15.8-2.1-15.8s-7.2,9.2-2.1,15.8
			C73.7,307.4,66.2,327.5,71.3,327.5z"/>
		<path class="st1" d="M84.6,327.5c5.1,0-2.4-20.1,2.1-25.8c5.1-6.6,4.3-15.8-2.1-15.8s-7.2,9.2-2.1,15.8
			C86.9,307.4,79.5,327.5,84.6,327.5z"/>
		<path class="st1" d="M97.9,327.5c5.1,0-2.4-20.1,2.1-25.8c5.1-6.6,4.3-15.8-2.1-15.8c-6.3,0-7.2,9.2-2.1,15.8
			C100.2,307.4,92.8,327.5,97.9,327.5z"/>
		<path class="st1" d="M111.1,327.5c5.1,0-2.4-20.1,2.1-25.8c5.1-6.6,4.3-15.8-2.1-15.8c-6.3,0-7.2,9.2-2.1,15.8
			C113.5,307.4,106.1,327.5,111.1,327.5z"/>
		<path class="st1" d="M124.4,327.5c5.1,0-2.4-20.1,2.1-25.8c5.1-6.6,4.3-15.8-2.1-15.8s-7.2,9.2-2.1,15.8
			C126.8,307.4,119.4,327.5,124.4,327.5z"/>
		<path class="st1" d="M137.7,327.5c5.1,0-2.4-20.1,2.1-25.8c5.1-6.6,4.3-15.8-2.1-15.8s-7.2,9.2-2.1,15.8
			C140.1,307.4,132.6,327.5,137.7,327.5z"/>
		<path class="st1" d="M151,327.5c5.1,0-2.4-20.1,2.1-25.8c5.1-6.6,4.3-15.8-2.1-15.8c-6.3,0-7.2,9.2-2.1,15.8
			C153.4,307.4,145.9,327.5,151,327.5z"/>
		<path class="st1" d="M164.3,327.5c5.1,0-2.4-20.1,2.1-25.8c5.1-6.6,4.3-15.8-2.1-15.8c-6.3,0-7.2,9.2-2.1,15.8
			C166.6,307.4,159.2,327.5,164.3,327.5z"/>
		<path class="st1" d="M84.6,327.5c5.1,0-2.4-20.1,2.1-25.8c5.1-6.6,4.3-15.8-2.1-15.8s-7.2,9.2-2.1,15.8
			C86.9,307.4,79.5,327.5,84.6,327.5z"/>
		<path class="st1" d="M97.9,327.5c5.1,0-2.4-20.1,2.1-25.8c5.1-6.6,4.3-15.8-2.1-15.8c-6.3,0-7.2,9.2-2.1,15.8
			C100.2,307.4,92.8,327.5,97.9,327.5z"/>
		<path class="st1" d="M111.1,327.5c5.1,0-2.4-20.1,2.1-25.8c5.1-6.6,4.3-15.8-2.1-15.8c-6.3,0-7.2,9.2-2.1,15.8
			C113.5,307.4,106.1,327.5,111.1,327.5z"/>
		<path class="st1" d="M124.4,327.5c5.1,0-2.4-20.1,2.1-25.8c5.1-6.6,4.3-15.8-2.1-15.8s-7.2,9.2-2.1,15.8
			C126.8,307.4,119.4,327.5,124.4,327.5z"/>
		<path class="st1" d="M137.7,327.5c5.1,0-2.4-20.1,2.1-25.8c5.1-6.6,4.3-15.8-2.1-15.8s-7.2,9.2-2.1,15.8
			C140.1,307.4,132.6,327.5,137.7,327.5z"/>
		<path class="st1" d="M151,327.5c5.1,0-2.4-20.1,2.1-25.8c5.1-6.6,4.3-15.8-2.1-15.8c-6.3,0-7.2,9.2-2.1,15.8
			C153.4,307.4,145.9,327.5,151,327.5z"/>
		<path class="st1" d="M164.3,327.5c5.1,0-2.4-20.1,2.1-25.8c5.1-6.6,4.3-15.8-2.1-15.8c-6.3,0-7.2,9.2-2.1,15.8
			C166.6,307.4,159.2,327.5,164.3,327.5z"/>
		<path class="st1" d="M177.6,327.5c5.1,0-2.4-20.1,2.1-25.8c5.1-6.6,4.3-15.8-2.1-15.8c-6.3,0-7.2,9.2-2.1,15.8
			C179.9,307.4,172.5,327.5,177.6,327.5z"/>
		<path class="st1" d="M97.9,327.5c5.1,0-2.4-20.1,2.1-25.8c5.1-6.6,4.3-15.8-2.1-15.8c-6.3,0-7.2,9.2-2.1,15.8
			C100.2,307.4,92.8,327.5,97.9,327.5z"/>
		<path class="st1" d="M111.1,327.5c5.1,0-2.4-20.1,2.1-25.8c5.1-6.6,4.3-15.8-2.1-15.8c-6.3,0-7.2,9.2-2.1,15.8
			C113.5,307.4,106.1,327.5,111.1,327.5z"/>
		<path class="st1" d="M124.4,327.5c5.1,0-2.4-20.1,2.1-25.8c5.1-6.6,4.3-15.8-2.1-15.8s-7.2,9.2-2.1,15.8
			C126.8,307.4,119.4,327.5,124.4,327.5z"/>
		<path class="st1" d="M137.7,327.5c5.1,0-2.4-20.1,2.1-25.8c5.1-6.6,4.3-15.8-2.1-15.8s-7.2,9.2-2.1,15.8
			C140.1,307.4,132.6,327.5,137.7,327.5z"/>
		<path class="st1" d="M151,327.5c5.1,0-2.4-20.1,2.1-25.8c5.1-6.6,4.3-15.8-2.1-15.8c-6.3,0-7.2,9.2-2.1,15.8
			C153.4,307.4,145.9,327.5,151,327.5z"/>
		<path class="st1" d="M164.3,327.5c5.1,0-2.4-20.1,2.1-25.8c5.1-6.6,4.3-15.8-2.1-15.8c-6.3,0-7.2,9.2-2.1,15.8
			C166.6,307.4,159.2,327.5,164.3,327.5z"/>
		<path class="st1" d="M177.6,327.5c5.1,0-2.4-20.1,2.1-25.8c5.1-6.6,4.3-15.8-2.1-15.8c-6.3,0-7.2,9.2-2.1,15.8
			C179.9,307.4,172.5,327.5,177.6,327.5z"/>
		<path class="st1" d="M190.8,327.5c5.1,0-2.4-20.1,2.1-25.8c5.1-6.6,4.3-15.8-2.1-15.8c-6.3,0-7.2,9.2-2.1,15.8
			C193.2,307.4,185.8,327.5,190.8,327.5z"/>
	</g>
	<polyline class="st2" points="207.2,318.6 190.8,335 31.5,335 15.1,318.6 	"/>
	<path class="st3" d="M201.6,374.2H20.7c-3.1,0-5.6-2.5-5.6-5.6v-17.9c0-3.1,2.5-5.6,5.6-5.6h180.9c3.1,0,5.6,2.5,5.6,5.6v17.9
		C207.2,371.7,204.7,374.2,201.6,374.2z"/>
	<path class="st4" d="M145.7,348.8H76.6c-1.6,0-2.9,1.3-2.9,2.9v15.9c0,1.6,1.3,2.9,2.9,2.9h69.2c1.6,0,2.9-1.3,2.9-2.9v-15.9
		C148.6,350.1,147.3,348.8,145.7,348.8z"/>
	<g>
		<rect x="88.1" y="353.8" class="st5" width="48.2" height="13.1"/>
		<path class="st1" d="M91,355.4l-1.5,1.1v-1.6l1.5-1.1h1.5v10.7H91V355.4z"/>
		<path class="st1" d="M98.2,355.4l-1.5,1.1v-1.6l1.5-1.1h1.5v10.7h-1.5V355.4z"/>
		<path class="st1" d="M103.1,356.8c0-1,0.3-1.7,0.9-2.3c0.6-0.5,1.2-0.8,2-0.8c0.8,0,1.5,0.3,2.1,0.8c0.6,0.5,0.9,1.3,0.9,2.3v4.7
			c0,1-0.3,1.7-0.9,2.3c-0.6,0.5-1.3,0.8-2.1,0.8c-0.8,0-1.5-0.3-2-0.8c-0.6-0.5-0.9-1.3-0.9-2.3V356.8z M107.5,356.9
			c0-1.1-0.5-1.6-1.5-1.6c-1,0-1.4,0.6-1.5,1.6v4.6c0,1.1,0.5,1.6,1.5,1.6c0.9,0,1.4-0.6,1.5-1.6V356.9z"/>
		<path class="st1" d="M110.8,363h1.5v1.5h-1.5V363z"/>
		<path class="st1" d="M114,356.8c0-1,0.3-1.7,0.9-2.3c0.6-0.5,1.2-0.8,2-0.8c0.8,0,1.5,0.3,2.1,0.8c0.6,0.5,0.9,1.3,0.9,2.3v4.7
			c0,1-0.3,1.7-0.9,2.3c-0.6,0.5-1.3,0.8-2.1,0.8c-0.8,0-1.5-0.3-2-0.8c-0.6-0.5-0.9-1.3-0.9-2.3V356.8z M118.4,356.9
			c0-1.1-0.5-1.6-1.5-1.6c-1,0-1.4,0.6-1.5,1.6v4.6c0,1.1,0.5,1.6,1.5,1.6c0.9,0,1.4-0.6,1.5-1.6V356.9z"/>
		<path class="st1" d="M129.4,363.7c-0.5,0.6-1.1,0.9-1.9,0.9c-0.5,0-0.9-0.1-1.2-0.3c-0.3-0.2-0.6-0.4-0.8-0.6
			c-0.2-0.2-0.3-0.6-0.4-0.9c-0.1-0.4-0.1-1-0.1-2c0-1,0-1.7,0.1-2.1c0.1-0.4,0.2-0.7,0.4-0.9c0.2-0.2,0.4-0.5,0.8-0.6
			c0.3-0.2,0.7-0.3,1.2-0.3c0.7,0,1.4,0.3,1.9,0.9v-0.8h1.5v7.4c0,1.1-0.3,2-1,2.5c-0.6,0.6-1.4,0.8-2.2,0.8c-1,0-1.9-0.4-2.6-1.3
			l1.2-0.9c0.2,0.2,0.4,0.3,0.7,0.5c0.3,0.1,0.5,0.2,0.8,0.2c0.5,0,0.9-0.1,1.2-0.4c0.3-0.3,0.5-0.7,0.5-1.2V363.7z M126.4,360.7
			c0,0.6,0,1,0.1,1.2c0,0.2,0.1,0.4,0.2,0.6c0.1,0.1,0.3,0.3,0.5,0.4c0.2,0.1,0.4,0.2,0.7,0.2s0.5-0.1,0.7-0.2
			c0.2-0.1,0.3-0.2,0.4-0.4c0.1-0.2,0.2-0.3,0.2-0.6c0-0.2,0-0.6,0-1.2c0-0.6,0-1,0-1.2c0-0.2-0.1-0.4-0.2-0.6
			c-0.1-0.1-0.2-0.3-0.4-0.4c-0.2-0.1-0.4-0.2-0.7-0.2c-0.3,0-0.5,0.1-0.7,0.2c-0.2,0.1-0.4,0.3-0.5,0.4c-0.1,0.1-0.2,0.3-0.2,0.6
			C126.5,359.7,126.4,360.1,126.4,360.7z"/>
	</g>
</g>
</svg>
