<?xml version="1.0" encoding="utf-8"?>
<!-- Generator: Adobe Illustrator 18.1.1, SVG Export Plug-In . SVG Version: 6.00 Build 0)  -->
<!DOCTYPE svg PUBLIC "-//W3C//DTD SVG 1.1//EN" "http://www.w3.org/Graphics/SVG/1.1/DTD/svg11.dtd">
<svg version="1.1" id="Layer_1" xmlns="http://www.w3.org/2000/svg" xmlns:xlink="http://www.w3.org/1999/xlink" x="0px" y="0px"
	 width="507px" height="340.2px" viewBox="-142 136.8 507 340.2" style="enable-background:new -142 136.8 507 340.2;"
	 xml:space="preserve">
<style type="text/css">
	.st0{fill:#F05A2A;stroke:#221F1F;stroke-width:2.1176;stroke-miterlimit:10;}
	.st1{fill:#FFFFFF;stroke:#FFFFFF;stroke-width:1.0588;stroke-miterlimit:10;}
	.st2{fill:#FBED21;stroke:#FBED21;stroke-width:2.1177;stroke-miterlimit:10;}
	.st3{fill:#FBED21;stroke:#FBED21;stroke-width:3.1765;stroke-miterlimit:10;}
</style>
<g>
	<rect x="-92.1" y="188.5" class="st0" width="411.8" height="236.6"/>
	<g>
		<path class="st1" d="M-45.2,258.9l-4.6,10.4l-8.3-0.1l20.1-45.8l8.3,0.1l20.3,46l-8.3-0.1l-4.6-10.4L-45.2,258.9z M-25.4,251.7
			l-8.4-18.9l-8.3,18.9H-25.4z"/>
		<path class="st1" d="M46.9,246.9h7.8v15.8c-4.5,4.9-10.5,7.1-18.7,7.1c-6.7,0-12.5-2.2-17.1-6.7c-4.6-4.5-6.8-10.1-6.8-17
			s2.4-12.5,7-17.1c4.6-4.5,10.4-6.7,17-6.8s12.1,2,16.6,5.8l-4.1,5.9c-1.8-1.4-3.7-2.5-5.4-3.2c-1.7-0.5-3.9-0.9-6.4-0.9
			c-4.7,0-8.5,1.4-11.7,4.5c-3.2,3-4.7,7-4.7,11.8s1.6,8.8,4.6,11.7c3,2.9,6.8,4.5,11.2,4.5s8-0.9,11-2.9L46.9,246.9z"/>
		<path class="st1" d="M88.3,253.5v-18.9h7.4l-0.1,35h-7.4v-6.3c-1.2,2.2-2.9,3.8-4.9,5.1c-2,1.2-4.3,1.8-6.7,1.8
			c-3.9,0-7.1-1.2-9.6-3.6s-3.7-5.9-3.7-10.5v-21.4h7.4v19.2c0,6.4,2.6,9.7,8,9.7c2.5,0,4.7-0.8,6.6-2.6
			C87.4,259,88.3,256.7,88.3,253.5z"/>
		<path class="st1" d="M106.7,227.5c-0.9-0.9-1.4-2.1-1.4-3.3c0-1.2,0.5-2.4,1.4-3.3c0.9-0.9,2.1-1.4,3.3-1.4s2.4,0.5,3.3,1.4
			c0.9,0.9,1.4,2.1,1.4,3.3c0,1.2-0.5,2.4-1.4,3.3c-0.9,0.9-2.1,1.4-3.3,1.4C108.7,228.8,107.6,228.4,106.7,227.5z M113.5,269.4
			h-7.4l0.1-35h7.4L113.5,269.4z"/>
		<path class="st1" d="M127,264.9c-3.3-3.3-4.9-7.6-4.9-13.2c0-5.4,1.7-9.7,5.1-13c3.4-3.3,7.4-4.9,12.1-4.9c4.7,0,8.4,2,11.2,5.9
			v-19.2h7.4v48.8h-7.4v-5.3c-2.8,3.8-6.7,5.8-11.8,5.8C134.1,270.1,130.2,268.2,127,264.9z M129.3,252.2c0,3.3,1.1,6.1,3.2,8.3
			c2.1,2.1,4.7,3.2,7.5,3.2c3,0,5.4-1.2,7.5-3.3c2.1-2.1,3-4.9,3-8.3c0-3.3-0.9-6.2-3-8.3c-2.1-2.2-4.5-3.4-7.5-3.4
			c-3,0-5.5,1.1-7.6,3.3C130.4,245.9,129.3,248.8,129.3,252.2z"/>
		<path class="st1" d="M201,255.2h-27.5c0.1,2.6,1.3,4.6,3.6,6.2c2.1,1.6,4.6,2.4,7.4,2.2c4.5,0,7.8-1.4,10-4.1l4.2,4.6
			c-3.8,3.9-8.7,5.9-14.7,5.8c-4.9,0-9.1-1.6-12.5-4.9s-5.3-7.6-5.3-13.2s1.7-9.9,5.3-13.2s7.6-4.7,12.4-4.9c4.7,0,8.8,1.4,12.1,4.2
			c3.3,2.9,5,6.8,5,11.8L201,255.2z M173.5,249.4h20c0-3-0.9-5.1-2.6-6.8c-1.8-1.6-4.1-2.4-6.7-2.4s-5.1,0.8-7.2,2.5
			C174.7,244.4,173.6,246.7,173.5,249.4z"/>
		<path class="st1" d="M236.3,240.5v17.8c0,1.6,0.4,3,1.3,3.9c0.9,1.1,2.1,1.6,3.7,1.4c1.6,0,3.2-0.8,4.5-2.2l3,5.3
			c-2.5,2.2-5.5,3.6-8.5,3.6c-3.2,0-5.8-1.2-8-3.3c-2.2-2.2-3.3-5.1-3.3-8.8v-17.5h-4.5v-5.9h4.5v-11h7.4v11h9.2v5.9L236.3,240.5z"
			/>
		<path class="st1" d="M283.6,264.8c-3.4,3.6-7.9,5.3-13.2,5.3s-9.6-1.7-13.2-5.3c-3.6-3.4-5.3-7.8-5.3-12.9c0-5,1.7-9.3,5.3-12.9
			c3.4-3.6,7.9-5.3,13.2-5.3s9.6,1.7,13.2,5.3c3.6,3.4,5.3,7.8,5.3,12.9C288.9,257.1,287.2,261.4,283.6,264.8z M262.6,260.3
			c2.1,2.1,4.7,3.2,7.9,3.2c3.3,0,5.9-1.1,8-3.3c2.1-2.1,3-4.9,3.2-8.2c0-3.3-1.1-6.2-3.2-8.3c-2.1-2.1-4.7-3.2-7.9-3.2
			s-5.9,1.1-7.9,3.2c-2.1,2.1-3,4.9-3.2,8.2C259.4,255.5,260.5,258.1,262.6,260.3z"/>
		<path class="st2" d="M-53.6,319l0.1-33.1h5.7v14.3h16.4v-14.3h5.7l-0.1,33.1h-5.7v-13.5H-48V319H-53.6z"/>
		<path class="st2" d="M-7.5,311.5l-3.3,7.5h-5.9l14.6-33h5.9l14.6,33h-5.9l-3.3-7.6L-7.5,311.5z M6.9,306.4l-6.1-13.7l-6.1,13.7
			H6.9z"/>
		<path class="st2" d="M27.8,319l0.1-33.1h5.7v27.8h15.1v5.3L27.8,319z"/>
		<path class="st2" d="M59.3,319l0.1-33.1h5.7v27.8h15.1v5.3L59.3,319z"/>
		<path class="st2" d="M117.6,314.5c-3.4,3.3-7.5,4.9-12.4,4.9c-5,0-9.1-1.7-12.4-4.9c-3.3-3.3-5-7.2-5-12.2c0-4.9,1.7-8.9,5.1-12.2
			c3.4-3.3,7.5-4.9,12.4-4.9c5,0,9.1,1.7,12.4,4.9c3.3,3.3,5,7.2,5,12.2C122.6,307.2,121,311.4,117.6,314.5z M113.5,293.7
			c-2.4-2.4-5-3.6-8.3-3.6s-6.1,1.1-8.3,3.4c-2.2,2.4-3.4,5.1-3.3,8.5c0,3.3,1.1,6.2,3.4,8.5c2.4,2.4,5,3.6,8.3,3.6s6.1-1.1,8.3-3.4
			c2.2-2.4,3.4-5.1,3.3-8.5C116.8,299,115.8,296.2,113.5,293.7z"/>
		<path class="st2" d="M144.3,309.8l7.4-23.8h5l7.4,23.8l8.3-23.8h6.1l-11.6,33.1h-5.5l-7-22.6h-0.4l-7,22.8h-5.5L130,286h6.1
			L144.3,309.8z"/>
		<path class="st2" d="M211.7,286.1v5.3H194v8.7h15.9v5H194v8.8h18.2v5.3l-23.9,0.1l0.1-33.1H211.7z"/>
		<path class="st2" d="M247.4,286.1v5.3h-17.6v8.7h15.9v5h-15.9v8.8H248v5.3l-23.8-0.1l0.1-33.1L247.4,286.1z"/>
		<path class="st2" d="M284.7,286.1h5.7l-0.1,33.1h-6.1l-18.7-24.1v24.1h-5.7l0.1-33.1h5.7l19.2,24.7L284.7,286.1z"/>
		<path class="st3" d="M-23.2,383.8c3.4-0.1,6.3-0.7,8.8-1.7c2.4-1.2,5.1-2.9,7.8-5.4l6.4,6.4C-6.4,390-14,393.4-23,393.6
			c-8.8,0-16.3-2.9-22.1-8.5c-5.9-5.8-8.8-12.9-8.7-21.7c0-8.7,3-16,8.9-21.8c5.9-5.8,13.5-8.8,22.6-8.8c9.2,0,16.7,3.4,22.9,10.1
			l-6.3,6.8c-2.8-2.6-5.5-4.6-7.9-5.7c-2.5-1.1-5.4-1.6-8.8-1.7c-5.9,0-10.9,2-15,5.8s-6.1,8.8-6.1,14.7c0,5.9,2.1,10.9,6.1,15
			C-33.4,381.9-28.8,383.8-23.2,383.8z"/>
		<path class="st3" d="M28.6,379.5l-5.9,13.4H12l26-58.8h10.7l26,58.8H64.1l-5.8-13.4H28.6z M54,370.3L43.2,346l-10.7,24.2L54,370.3
			z"/>
		<path class="st3" d="M135.2,334.1h10v58.8h-10.8L101.2,350l-0.1,42.9H91v-58.8h10l34.2,43.9L135.2,334.1z"/>
		<path class="st3" d="M214.6,341.8c5.7,5.1,8.5,12.2,8.5,21.4s-2.8,16.3-8.3,21.7c-5.5,5.4-13.8,8-25.3,7.9h-19.5V334h20.3
			C200.7,334.1,208.9,336.6,214.6,341.8z M213,363.6c0-13.4-7.8-20.3-23.1-20.3h-10v40.4h11c7.1,0,12.6-1.7,16.3-5
			C211.1,375.2,213.1,370.2,213,363.6z"/>
		<path class="st3" d="M267.3,393.1h-10.1v-23.3l-21.8-35.6h10.9l16,26.8l16-26.8h10.9l-21.8,35.6L267.3,393.1z"/>
	</g>
	<polyline class="st0" points="-91.9,188.3 -128.5,173.4 -118.7,188.4 -133.9,197.9 -118.7,209.3 -133.9,222.7 -123.1,230.4 
		-134,243.4 -120.8,252.1 -134,268.2 -121.1,279.5 -133.9,293.7 -121,301.8 -134,317 -121,330 -134,339.8 -119.9,353.9 -134,362.5 
		-121,376.6 -134,390.7 -119.9,401.5 -134.1,419.9 -121,419.9 -134.1,440.4 -92.2,425 	"/>
	<polyline class="st0" points="319.6,425.3 357.1,433.8 342.3,419 357,409.8 342.1,398.6 357,385.6 346.3,378.2 357,365.4 
		344.2,356.9 357,341.1 344.5,330.2 357,316.4 344.4,308.5 357,293.6 344.4,281 357.1,271.5 343.3,257.8 357.1,249.3 344.5,235.7 
		357,221.9 343.3,211.3 357,193.5 344.4,193.4 357.1,173.4 319.8,189.2 	"/>
</g>
</svg>
