<?xml version="1.0" encoding="utf-8"?>
<!-- Generator: Adobe Illustrator 18.1.1, SVG Export Plug-In . SVG Version: 6.00 Build 0)  -->
<!DOCTYPE svg PUBLIC "-//W3C//DTD SVG 1.1//EN" "http://www.w3.org/Graphics/SVG/1.1/DTD/svg11.dtd">
<svg version="1.1" id="Layer_1" xmlns="http://www.w3.org/2000/svg" xmlns:xlink="http://www.w3.org/1999/xlink" x="0px" y="0px"
	 width="507px" height="340.2px" viewBox="0 0 507 340.2" style="enable-background:new 0 0 507 340.2;" xml:space="preserve">
<style type="text/css">
	.st0{fill:#F05A2A;stroke:#221F1F;stroke-width:2.1176;stroke-miterlimit:10;}
	.st1{fill:#FFFFFF;stroke:#FFFFFF;stroke-width:1.0588;stroke-miterlimit:10;}
	.st2{fill:#FBED21;stroke:#FBED21;stroke-width:2.1177;stroke-miterlimit:10;}
	.st3{fill:#FBED21;stroke:#FBED21;stroke-width:3.1765;stroke-miterlimit:10;}
</style>
<g>
	
		<rect x="97.8" y="82.9" transform="matrix(0.9772 -0.2123 0.2123 0.9772 -30.913 57.9481)" class="st0" width="313.1" height="179.9"/>
	<g>
		<path class="st1" d="M128.4,163.1l-1.7,8.5l-6.2,1.3l7.6-37.4l6.2-1.3l22.5,30.9l-6.2,1.3l-5.1-7L128.4,163.1z M142,154.5
			l-9.3-12.7l-3.1,15.4L142,154.5z"/>
		<path class="st1" d="M194.9,139.3l5.8-1.3l2.5,11.7c-2.5,4.3-6.7,7-12.7,8.3c-5,1.1-9.6,0.4-13.8-2.2c-4.1-2.6-6.7-6.4-7.8-11.5
			c-1.1-5.1-0.3-9.7,2.4-13.8c2.7-4.1,6.6-6.7,11.5-7.8c4.9-1.1,9.3-0.5,13.2,1.6l-2.1,5.1c-1.6-0.8-3.1-1.3-4.5-1.5
			c-1.4-0.1-3.1,0-4.9,0.4c-3.5,0.8-6.1,2.5-8,5.2c-1.9,2.7-2.4,5.9-1.6,9.6c0.8,3.6,2.6,6.3,5.3,8s5.8,2.2,9,1.5
			c3.2-0.7,5.8-2,7.7-3.9L194.9,139.3z"/>
		<path class="st1" d="M226.7,137.4l-3.1-14.1l5.5-1.2l5.6,26l-5.5,1.2l-1-4.7c-0.5,1.8-1.5,3.3-2.8,4.6c-1.3,1.2-2.9,2.1-4.7,2.5
			c-2.9,0.6-5.5,0.3-7.7-1.1c-2.2-1.4-3.7-3.8-4.4-7.2l-3.5-15.9l5.5-1.2l3.1,14.3c1,4.8,3.5,6.8,7.5,5.9c1.9-0.4,3.4-1.4,4.5-3
			C226.9,141.7,227.2,139.8,226.7,137.4z"/>
		<path class="st1" d="M236.2,115.1c-0.8-0.5-1.4-1.3-1.6-2.2c-0.2-0.9,0-1.8,0.5-2.7c0.5-0.8,1.3-1.4,2.2-1.6
			c0.9-0.2,1.8,0,2.7,0.5c0.8,0.5,1.4,1.3,1.6,2.2c0.2,0.9,0,1.8-0.5,2.7c-0.5,0.8-1.3,1.4-2.2,1.6
			C237.9,115.8,237,115.7,236.2,115.1z M248.1,145.2l-5.5,1.2l-5.6-26l5.5-1.2L248.1,145.2z"/>
		<path class="st1" d="M257.3,139.7c-3-1.9-4.9-4.9-5.8-9c-0.9-4-0.3-7.5,1.7-10.5c2-3,4.7-4.8,8.2-5.6s6.6,0.1,9.3,2.6l-3.1-14.3
			l5.5-1.2l7.9,36.3l-5.5,1.2l-0.8-3.9c-1.4,3.3-4,5.4-7.9,6.2C263.4,142.3,260.3,141.6,257.3,139.7z M257,129.8
			c0.5,2.5,1.8,4.3,3.7,5.6c1.9,1.2,4,1.6,6.1,1.1c2.2-0.5,3.8-1.7,5-3.6c1.2-1.9,1.5-4.1,0.9-6.6c-0.5-2.5-1.7-4.4-3.6-5.7
			c-1.9-1.3-3.9-1.8-6.1-1.3c-2.2,0.5-3.9,1.7-5.1,3.7C256.8,125,256.5,127.3,257,129.8z"/>
		<path class="st1" d="M310.7,120.5l-20.4,4.4c0.5,1.9,1.7,3.2,3.6,4c1.8,0.8,3.8,1,5.8,0.5c3.3-0.7,5.5-2.3,6.8-4.7l3.9,2.7
			c-2.2,3.5-5.5,5.8-10,6.7c-3.6,0.8-7,0.3-10.1-1.6c-3.1-1.9-5.1-4.8-6-8.9c-0.9-4.1-0.3-7.6,1.8-10.6c2.1-3,4.9-4.8,8.4-5.6
			c3.5-0.8,6.8-0.4,9.7,1.2c2.9,1.6,4.8,4.3,5.6,8L310.7,120.5z M289.4,120.6l14.9-3.2c-0.5-2.2-1.5-3.7-3.1-4.6
			c-1.6-0.9-3.4-1.1-5.4-0.7c-2,0.4-3.7,1.4-5,3S289,118.5,289.4,120.6z"/>
		<path class="st1" d="M334.5,103.8l2.9,13.2c0.3,1.2,0.8,2.2,1.6,2.7c0.8,0.6,1.8,0.8,3,0.5c1.2-0.3,2.2-1.1,3-2.4l3.1,3.4
			c-1.5,2.1-3.5,3.5-5.8,4s-4.5,0.1-6.5-1.1c-2-1.3-3.3-3.3-3.9-6l-2.8-13l-3.3,0.7l-1-4.4l3.3-0.7l-1.8-8.2l5.5-1.2l1.8,8.2
			l6.8-1.5l1,4.4L334.5,103.8z"/>
		<path class="st1" d="M373.7,114.2c-2,3.2-5,5.2-8.9,6c-3.9,0.8-7.4,0.3-10.6-1.8c-3.2-2-5.2-4.9-6-8.7c-0.8-3.7-0.2-7.2,1.8-10.4
			c2-3.2,5-5.2,8.9-6c3.9-0.8,7.4-0.3,10.6,1.8c3.2,2,5.2,4.9,6,8.7C376.3,107.6,375.7,111.1,373.7,114.2z M357.3,114.3
			c1.9,1.2,4,1.6,6.4,1.1c2.4-0.5,4.2-1.7,5.4-3.7c1.2-1.9,1.5-4.1,1-6.6c-0.5-2.5-1.8-4.4-3.7-5.6c-1.9-1.2-4-1.6-6.4-1.1
			c-2.4,0.5-4.2,1.7-5.4,3.6c-1.2,1.9-1.5,4.1-1,6.6C354.2,111.2,355.4,113,357.3,114.3z"/>
		<path class="st2" d="M131.9,209.1l-5.3-24.6l4.2-0.9l2.3,10.7l12.2-2.7l-2.3-10.7l4.2-0.9l5.3,24.6l-4.2,0.9l-2.2-10.1l-12.2,2.7
			l2.2,10.1L131.9,209.1z"/>
		<path class="st2" d="M165,196l-1.2,6.1l-4.4,1l5.5-26.9l4.4-1l16.2,22.2l-4.4,1l-3.7-5.1L165,196z M174.8,189.9l-6.7-9.2
			l-2.3,11.1L174.8,189.9z"/>
		<path class="st2" d="M192.4,195.9l-5.3-24.6l4.2-0.9l4.5,20.6l11.2-2.4l0.9,3.9L192.4,195.9z"/>
		<path class="st2" d="M215.8,190.8l-5.3-24.6l4.2-0.9l4.5,20.6l11.2-2.4l0.9,3.9L215.8,190.8z"/>
		<path class="st2" d="M258.4,178c-2,3-4.8,4.8-8.4,5.6c-3.7,0.8-7,0.2-10-1.6c-3-1.9-4.9-4.6-5.7-8.3c-0.8-3.6-0.2-6.9,1.8-9.9
			c2-3,4.8-4.8,8.4-5.6c3.7-0.8,7-0.2,10,1.6c3,1.9,4.9,4.6,5.7,8.3C260.9,171.8,260.4,175.1,258.4,178z M252,163.3
			c-2.1-1.4-4.3-1.8-6.7-1.3c-2.4,0.5-4.3,1.8-5.6,3.9c-1.3,2.1-1.7,4.4-1.1,6.9c0.5,2.5,1.8,4.4,3.9,5.8c2.1,1.4,4.3,1.8,6.7,1.3
			c2.4-0.5,4.3-1.8,5.6-3.9c1.3-2.1,1.7-4.4,1.1-6.9S254.1,164.7,252,163.3z"/>
		<path class="st2" d="M277.5,170.2l1.6-18.9l3.7-0.8l9.3,16.5l2.3-19l4.5-1l-3.2,26.5l-4.1,0.9l-8.8-15.7l-0.3,0.1l-1.5,18
			l-4.1,0.9L263,154.8l4.5-1L277.5,170.2z"/>
		<path class="st2" d="M323.7,141.7l0.8,3.9l-13.1,2.9l1.4,6.5l11.8-2.6l0.8,3.7l-11.8,2.6l1.4,6.6l13.5-2.9l0.8,3.9l-17.7,3.8
			l-5.3-24.6L323.7,141.7z"/>
		<path class="st2" d="M350.2,135.9l0.8,3.9l-13.1,2.9l1.4,6.5l11.8-2.6l0.8,3.7l-11.8,2.6l1.4,6.6l13.5-2.9l0.8,3.9l-17.7,3.8
			l-5.3-24.6L350.2,135.9z"/>
		<path class="st2" d="M377.9,129.9l4.2-0.9l5.3,24.6l-4.5,1l-17.8-14.9l3.9,17.9l-4.2,0.9l-5.3-24.6l4.2-0.9l18.3,15.3L377.9,129.9
			z"/>
		<path class="st3" d="M165,252.3c2.5-0.6,4.6-1.5,6.3-2.7c1.6-1.3,3.3-3,4.9-5.3l5.8,3.8c-3.5,6.1-8.6,9.9-15.2,11.4
			c-6.6,1.4-12.6,0.5-17.8-2.8c-5.3-3.3-8.6-8.2-10-14.7s-0.4-12.4,3.1-17.7c3.5-5.3,8.6-8.7,15.4-10.2c6.8-1.5,13-0.2,18.6,3.8
			l-3.6,6.1c-2.5-1.5-4.8-2.5-6.8-2.9c-2-0.4-4.3-0.3-6.8,0.2c-4.4,1-7.8,3.2-10.2,6.7s-3.1,7.5-2.1,11.9c1,4.4,3.3,7.8,6.9,10.2
			C157.1,252.5,160.9,253.2,165,252.3z"/>
		<path class="st3" d="M202.8,240.7l-2.2,10.9l-7.9,1.7l9.8-47.9l7.9-1.7l28.8,39.5l-7.9,1.7l-6.5-9L202.8,240.7z M220.2,229.8
			l-11.9-16.3l-4,19.7L220.2,229.8z"/>
		<path class="st3" d="M274.7,189.7l7.4-1.6l9.5,43.7l-8,1.7l-31.7-26.5l6.9,31.9l-7.4,1.6l-9.5-43.7l7.4-1.6l32.5,27.1L274.7,189.7
			z"/>
		<path class="st3" d="M334.8,182.6c5,2.9,8.3,7.7,9.8,14.5c1.5,6.8,0.6,12.6-2.6,17.5s-9,8.2-17.5,10l-14.5,3.2l-9.5-43.7l15-3.3
			C323.3,179.1,329.8,179.7,334.8,182.6z M337.2,199c-2.2-10-9-13.8-20.5-11.3l-7.4,1.6l6.5,30l8.2-1.8c5.3-1.2,9.1-3.3,11.3-6.4
			C337.7,207.9,338.3,203.9,337.2,199z"/>
		<path class="st3" d="M382.3,212.1l-7.5,1.6l-3.8-17.3l-22-22.9l8.1-1.8l16.3,17.3l7.6-22.5l8.1-1.8l-10.5,30L382.3,212.1z"/>
	</g>
	<polyline class="st0" points="82.3,118.2 7.6,115.6 18.2,129.5 8.5,139 21.6,145 12.5,157.5 21.8,161.4 15.8,172.8 26.9,177.1 
		19.8,191.3 31.2,197.6 24,210.2 34.9,214.1 27.7,227.5 39.5,235.1 31.4,244.4 44.1,252.6 35.1,261.3 47,269.7 39.6,282.2 51.8,288 
		44.3,303.9 54,301.8 47.6,319.2 60.5,316.4 57.1,333.6 120.5,294.1 	"/>
	<polyline class="st0" points="426.4,227.6 498.3,226.1 488,212.5 497.5,203.3 484.7,197.4 493.6,185.3 484.5,181.5 490.3,170.4 
		479.5,166.1 486.4,152.3 475.3,146.2 482.4,133.9 471.7,130.1 478.7,117 467.3,109.7 475.2,100.6 462.7,92.6 471.6,84.1 460,76 
		467.1,63.7 455.2,58.1 462.5,42.6 453.1,44.6 459.3,27.7 446.8,30.4 450.1,13.7 388.3,52.2 	"/>
</g>
<g>
</g>
<g>
</g>
<g>
</g>
<g>
</g>
<g>
</g>
<g>
</g>
<g>
</g>
<g>
</g>
<g>
</g>
<g>
</g>
<g>
</g>
<g>
</g>
<g>
</g>
<g>
</g>
<g>
</g>
</svg>
